<svg width="24" height="36" viewBox="0 0 24 36" fill="none" xmlns="http://www.w3.org/2000/svg">
<path d="M3.87557 22.7936C10.3236 35.5072 17.5671 36.8146 19.6741 35.6723L20.2227 35.3665L15.2901 25.6409C15.1098 25.7373 14.9249 25.8351 14.7386 25.936C13.0398 26.8536 11.3379 24.1958 9.17034 19.9111C7.00275 15.6263 5.84355 12.6704 7.54391 11.7483C7.73169 11.6474 7.91207 11.5464 8.09097 11.4425L3.15846 1.71686L2.60843 2.0227C0.502945 3.17111 -2.57248 10.0815 3.87557 22.7936ZM23.2064 33.7563C24.0211 33.3144 23.5746 32.3479 23.1103 31.435L19.7968 24.9023C19.4405 24.2004 18.852 23.8044 18.3759 24.0628C18.0802 24.2249 17.3808 24.5674 16.4848 25.0277L21.407 34.7334L23.2064 33.7563ZM11.1073 9.73436C11.5834 9.47746 11.6026 8.74804 11.2462 8.05226C10.8899 7.35648 7.93425 1.5196 7.93425 1.5196C7.47146 0.602088 6.95691 -0.315421 6.14222 0.118866L4.3428 1.09449L9.26496 10.8002C10.1403 10.294 10.8071 9.89646 11.1073 9.73436Z" fill="white"/>
</svg>
