<svg width="29" height="28" viewBox="0 0 29 28" fill="none" xmlns="http://www.w3.org/2000/svg">
<path d="M16.1157 17.1055H8.52246V17.8316H16.1157V17.1055Z" fill="#4B4B4B"/>
<path d="M16.1157 14.1641H8.52246V14.8878H16.1157V14.1641Z" fill="#4B4B4B"/>
<path d="M16.1157 11.2188H8.52246V11.9448H16.1157V11.2188Z" fill="#4B4B4B"/>
<path d="M16.1164 8.28125H12.5391V9.00734H16.1164V8.28125Z" fill="#4B4B4B"/>
<path d="M19.0438 19.4761V5.54742C19.0438 5.45781 19.0361 5.36762 19.0207 5.28305C18.8949 4.5543 18.2584 4 17.4941 4H11.2147C10.7631 4 10.332 4.1798 10.0139 4.49793L6.09559 8.41352C5.77719 8.73461 5.59766 9.16543 5.59766 9.61734V19.4761C5.59766 20.3277 6.2932 21.0232 7.14777 21.0232H17.494C18.3484 21.0232 19.0438 20.3277 19.0438 19.4761ZM10.6658 5.07535V8.5548C10.6658 8.93223 10.5195 9.0782 10.1447 9.0782H6.66531L10.6658 5.07535ZM6.4677 19.4761V9.85058H10.6091C10.7453 9.85058 10.8735 9.81738 10.9862 9.75832C11.1456 9.67879 11.2738 9.55035 11.3506 9.39395C11.41 9.2809 11.4405 9.15508 11.4405 9.02184V4.87H17.4941C17.7736 4.87 18.0148 5.03914 18.1175 5.28305C18.1534 5.36523 18.1712 5.45246 18.1712 5.54742V19.4761C18.1712 19.8479 17.8686 20.1535 17.4941 20.1535H7.14781C6.77305 20.1535 6.4677 19.8479 6.4677 19.4761Z" fill="#4B4B4B"/>
<path d="M20.8551 6.97656H19.8109L19.8646 7.84656H20.855C21.2298 7.84656 21.5327 8.14922 21.5327 8.52398V22.4526C21.5327 22.8245 21.2298 23.13 20.855 23.13H10.5064C10.2266 23.13 9.98535 22.9579 9.88266 22.7167C9.84945 22.6348 9.82898 22.5476 9.82898 22.4526V21.8471H8.95898V22.4527C8.95898 22.5423 8.96672 22.6319 8.98215 22.7168C9.10793 23.4429 9.74445 23.9998 10.5064 23.9998H20.8551C21.7097 23.9998 22.4029 23.3043 22.4029 22.4527V8.52402C22.4028 7.66945 21.7096 6.97656 20.8551 6.97656Z" fill="#4B4B4B"/>
</svg>
