<svg width="29" height="28" viewBox="0 0 29 28" fill="none" xmlns="http://www.w3.org/2000/svg">
<g clip-path="url(#clip0_1887_25240)">
<path d="M22.6762 5.00545C20.4522 7.63059 18.2915 10.1801 16.1204 12.7423C18.4902 16.2444 20.8493 19.7293 23.2343 23.2542C23.0845 23.2616 22.9796 23.2709 22.8754 23.2709C21.3587 23.2716 19.8413 23.2649 18.3245 23.2783C18.0732 23.2803 17.93 23.1966 17.7915 22.9897C16.3065 20.7817 14.8122 18.581 13.3205 16.3783C13.2848 16.3255 13.2472 16.2732 13.1932 16.1963C12.5572 16.9454 11.9344 17.6785 11.3123 18.4124C10.0007 19.9589 8.68784 21.5041 7.3829 23.0567C7.24765 23.2174 7.11175 23.2837 6.90525 23.2763C6.50149 23.2616 6.09708 23.2716 5.62207 23.2716C7.93905 20.5374 10.2118 17.8546 12.4971 15.1579C10.2191 11.7909 7.94564 8.43265 5.64582 5.03424C5.76985 5.02286 5.85957 5.00679 5.9493 5.00679C7.49901 5.00545 9.04937 5.01014 10.5991 5.00076C10.8135 4.99943 10.9336 5.07307 11.0517 5.24848C12.4622 7.34604 13.8813 9.43758 15.2977 11.5312C15.328 11.576 15.359 11.6202 15.4177 11.7039C15.7456 11.3222 16.0617 10.9587 16.3731 10.5911C17.8924 8.79954 19.4078 7.00393 20.9357 5.22036C21.0334 5.10655 21.2214 5.02621 21.3732 5.01549C21.7756 4.98737 22.1807 5.00545 22.6762 5.00545ZM7.79655 6.22128C7.8777 6.35384 7.92454 6.43686 7.97797 6.51519C9.78366 9.1363 11.5907 11.7568 13.3964 14.3779C15.1196 16.8785 16.8415 19.3804 18.568 21.8797C18.632 21.9721 18.7356 22.1 18.8233 22.1019C19.5556 22.1201 20.2879 22.112 21.071 22.112C20.9971 21.9955 20.9536 21.9219 20.9061 21.8522C19.6487 20.0245 18.3905 18.1974 17.1317 16.3703C14.855 13.0656 12.5789 9.76096 10.2989 6.45828C10.2343 6.36522 10.1327 6.23333 10.0456 6.23132C9.31459 6.21324 8.58295 6.22061 7.79721 6.22061L7.79655 6.22128Z" fill="black"/>
</g>
<defs>
<clipPath id="clip0_1887_25240">
<rect width="17" height="19" fill="white" transform="translate(6 5)"/>
</clipPath>
</defs>
</svg>
