<svg width="25" height="25" viewBox="0 0 25 25" fill="none" xmlns="http://www.w3.org/2000/svg">
<path d="M4.43337 17.2849C3.27017 15.3224 2.8633 13.0029 3.28914 10.7616C3.71497 8.52042 4.94423 6.5117 6.74614 5.11259C8.54805 3.71348 10.7987 3.02019 13.0755 3.16288C15.3524 3.30557 17.4989 4.27442 19.112 5.88756C20.7251 7.50069 21.694 9.64716 21.8367 11.924C21.9794 14.2009 21.2861 16.4515 19.887 18.2534C18.4878 20.0553 16.4791 21.2846 14.2379 21.7104C11.9967 22.1362 9.67711 21.7294 7.71462 20.5662V20.5662L4.47243 21.4841C4.3396 21.523 4.19876 21.5254 4.06468 21.4911C3.93059 21.4568 3.80821 21.3871 3.71034 21.2892C3.61248 21.1913 3.54274 21.069 3.50845 20.9349C3.47415 20.8008 3.47655 20.6599 3.5154 20.5271L4.43337 17.2849Z" stroke="#2871B0" stroke-width="1.5" stroke-linecap="round" stroke-linejoin="round"/>
<path d="M12.5 13.4766C13.0393 13.4766 13.4766 13.0393 13.4766 12.5C13.4766 11.9607 13.0393 11.5234 12.5 11.5234C11.9607 11.5234 11.5234 11.9607 11.5234 12.5C11.5234 13.0393 11.9607 13.4766 12.5 13.4766Z" fill="#2871B0"/>
<path d="M17.1875 13.4766C17.7268 13.4766 18.1641 13.0393 18.1641 12.5C18.1641 11.9607 17.7268 11.5234 17.1875 11.5234C16.6482 11.5234 16.2109 11.9607 16.2109 12.5C16.2109 13.0393 16.6482 13.4766 17.1875 13.4766Z" fill="#2871B0"/>
<path d="M7.8125 13.4766C8.35184 13.4766 8.78906 13.0393 8.78906 12.5C8.78906 11.9607 8.35184 11.5234 7.8125 11.5234C7.27316 11.5234 6.83594 11.9607 6.83594 12.5C6.83594 13.0393 7.27316 13.4766 7.8125 13.4766Z" fill="#2871B0"/>
</svg>
