<svg width="26" height="26" viewBox="0 0 26 26" fill="none" xmlns="http://www.w3.org/2000/svg">
<path d="M5.11072 17.9755C3.901 15.9346 3.47785 13.5222 3.92072 11.1913C4.36359 8.86045 5.64202 6.77139 7.51601 5.31631C9.38999 3.86124 11.7307 3.14022 14.0986 3.28861C16.4665 3.43701 18.6988 4.44462 20.3765 6.12228C22.0541 7.79993 23.0618 10.0323 23.2102 12.4002C23.3585 14.7681 22.6375 17.1088 21.1825 18.9828C19.7274 20.8567 17.6383 22.1352 15.3074 22.578C12.9766 23.0209 10.5642 22.5978 8.52322 21.388V21.388L5.15135 22.3427C5.0132 22.3831 4.86673 22.3856 4.72728 22.35C4.58784 22.3143 4.46055 22.2418 4.35878 22.14C4.257 22.0382 4.18447 21.9109 4.1488 21.7715C4.11313 21.632 4.11563 21.4856 4.15604 21.3474L5.11072 17.9755Z" stroke="#2871B0" stroke-width="1.5" stroke-linecap="round" stroke-linejoin="round"/>
<path d="M13.5 14.0156C14.0609 14.0156 14.5156 13.5609 14.5156 13C14.5156 12.4391 14.0609 11.9844 13.5 11.9844C12.9391 11.9844 12.4844 12.4391 12.4844 13C12.4844 13.5609 12.9391 14.0156 13.5 14.0156Z" fill="#2871B0"/>
<path d="M18.375 14.0156C18.9359 14.0156 19.3906 13.5609 19.3906 13C19.3906 12.4391 18.9359 11.9844 18.375 11.9844C17.8141 11.9844 17.3594 12.4391 17.3594 13C17.3594 13.5609 17.8141 14.0156 18.375 14.0156Z" fill="#2871B0"/>
<path d="M8.625 14.0156C9.18591 14.0156 9.64062 13.5609 9.64062 13C9.64062 12.4391 9.18591 11.9844 8.625 11.9844C8.06409 11.9844 7.60938 12.4391 7.60938 13C7.60938 13.5609 8.06409 14.0156 8.625 14.0156Z" fill="#2871B0"/>
</svg>
