<svg width="26" height="26" viewBox="0 0 26 26" fill="none" xmlns="http://www.w3.org/2000/svg">
<circle cx="13" cy="13" r="12.6905" fill="white" stroke="black" stroke-width="0.619048"/>
<path d="M13.2129 15.8906C14.5505 15.8906 15.6348 14.8063 15.6348 13.4688C15.6348 12.1312 14.5505 11.0469 13.2129 11.0469C11.8753 11.0469 10.791 12.1312 10.791 13.4688C10.791 14.8063 11.8753 15.8906 13.2129 15.8906Z" stroke="black" stroke-linecap="round" stroke-linejoin="round"/>
<path d="M15.877 7.89844H10.5488C8.94375 7.89844 7.64258 9.19961 7.64258 10.8047V16.1328C7.64258 17.7379 8.94375 19.0391 10.5488 19.0391H15.877C17.482 19.0391 18.7832 17.7379 18.7832 16.1328V10.8047C18.7832 9.19961 17.482 7.89844 15.877 7.89844Z" stroke="black" stroke-linecap="round" stroke-linejoin="round"/>
<path d="M16.3613 10.9258C16.6957 10.9258 16.9668 10.6547 16.9668 10.3203C16.9668 9.98592 16.6957 9.71484 16.3613 9.71484C16.0269 9.71484 15.7559 9.98592 15.7559 10.3203C15.7559 10.6547 16.0269 10.9258 16.3613 10.9258Z" fill="black"/>
</svg>
