<svg width="26" height="26" viewBox="0 0 26 26" fill="none" xmlns="http://www.w3.org/2000/svg">
<circle cx="13" cy="13" r="12.6905" fill="white" stroke="black" stroke-width="0.619048"/>
<path d="M18.1987 6.81227C16.7135 8.50149 15.2706 10.142 13.8206 11.7908C15.4032 14.0443 16.9788 16.2867 18.5715 18.555C18.4715 18.5597 18.4014 18.5657 18.3318 18.5657C17.3189 18.5662 16.3055 18.5619 15.2926 18.5705C15.1248 18.5718 15.0292 18.5179 14.9366 18.3848C13.9449 16.964 12.9469 15.5479 11.9508 14.1305C11.927 14.0965 11.9019 14.0629 11.8657 14.0133C11.441 14.4954 11.0251 14.9671 10.6096 15.4393C9.73374 16.4345 8.85698 17.4288 7.9855 18.4279C7.89518 18.5313 7.80442 18.5739 7.66651 18.5692C7.39687 18.5597 7.12679 18.5662 6.80957 18.5662C8.35691 16.8067 9.87473 15.0805 11.4009 13.3451C9.87958 11.1786 8.36132 9.01761 6.82543 6.8308C6.90826 6.82348 6.96818 6.81314 7.0281 6.81314C8.06304 6.81227 9.09842 6.81529 10.1334 6.80926C10.2765 6.8084 10.3567 6.85579 10.4356 6.96866C11.3776 8.3184 12.3253 9.66426 13.2712 11.0114C13.2915 11.0403 13.3122 11.0687 13.3514 11.1226C13.5704 10.877 13.7814 10.6431 13.9894 10.4066C15.004 9.2537 16.0161 8.09825 17.0365 6.95057C17.1017 6.87733 17.2272 6.82563 17.3286 6.81874C17.5973 6.80064 17.8679 6.81227 18.1987 6.81227ZM8.26174 7.59463C8.31594 7.67993 8.34722 7.73335 8.38291 7.78376C9.58879 9.4704 10.7956 11.1566 12.0014 12.8432C13.1523 14.4523 14.3022 16.0623 15.4552 17.6705C15.4979 17.73 15.5671 17.8122 15.6257 17.8135C16.1148 17.8252 16.6038 17.82 17.1268 17.82C17.0774 17.745 17.0484 17.6976 17.0166 17.6528C16.1769 16.4767 15.3367 15.301 14.496 14.1253C12.9756 11.9988 11.4556 9.87234 9.93289 7.74714C9.88971 7.68726 9.82186 7.60239 9.7637 7.60109C9.27553 7.58946 8.78692 7.5942 8.26218 7.5942L8.26174 7.59463Z" fill="black"/>
</svg>
