<svg width="26" height="26" viewBox="0 0 26 26" fill="none" xmlns="http://www.w3.org/2000/svg">
<circle cx="13" cy="13" r="12.6905" fill="white" stroke="black" stroke-width="0.619048"/>
<g clip-path="url(#clip0_2004_21419)">
<path d="M6.71294 13.4906C6.70902 13.4049 6.7002 13.3212 6.7002 13.235C6.7002 9.62522 9.52064 6.69922 13.0002 6.69922C16.4798 6.69922 19.3002 9.62522 19.3002 13.235C19.3002 13.3212 19.2907 13.4051 19.2879 13.4906C19.157 10.0008 16.3966 7.21106 13.0002 7.21106C9.60366 7.21106 6.84328 10.0008 6.71294 13.4906ZM13.0002 9.5863C15.1232 9.5863 16.854 11.307 16.9797 13.4766C16.9845 13.3926 16.992 13.3099 16.992 13.2252C16.992 10.9379 15.2051 9.08412 13.0002 9.08412C10.7953 9.08412 9.00838 10.9379 9.00838 13.2252C9.00838 13.3097 9.01594 13.3926 9.02056 13.4766C9.14642 11.307 10.8771 9.5863 13.0002 9.5863ZM13.0002 10.7976C12.2781 10.7976 11.6922 11.4055 11.6922 12.1545C11.6922 12.9035 12.2782 13.5112 13.0002 13.5112C13.722 13.5112 14.3081 12.9033 14.3081 12.1545C14.3081 11.4055 13.722 10.7976 13.0002 10.7976ZM13.0002 13.6246C11.9484 13.6246 11.0955 13.6828 11.0955 15.6805C11.0955 17.6789 11.9484 19.2992 13.0002 19.2992C14.052 19.2992 14.9049 17.6789 14.9049 15.6804C14.9049 13.6828 14.052 13.6246 13.0002 13.6246Z" fill="black"/>
</g>
<defs>
<clipPath id="clip0_2004_21419">
<rect width="14" height="14" fill="white" transform="translate(6 6)"/>
</clipPath>
</defs>
</svg>
