<svg width="338" height="169" viewBox="0 0 338 169" fill="none" xmlns="http://www.w3.org/2000/svg">
<path d="M309.381 67.0842L309.574 66.665L309.625 66.465L309.747 66.1554L310.944 63.8202L311.149 63.0205L311.361 62.6915L311.413 62.4916L311.645 62.2528L312.475 60.8464L312.738 60.3174L312.699 60.1369L312.809 60.2077L312.885 59.247L312.776 59.1762L312.305 59.1832L311.493 59.3582L310.468 59.8623L308.066 61.4188L307.473 61.7354L307.041 61.9229L304.774 64.111L304.684 64.1305L304.059 64.7372L303.486 65.1441L302.932 65.6411L301.071 67.081L299.248 68.7013L298.514 69.2372L297.316 70.2508L296.903 70.5285L295.957 71.3935L295.454 71.6907L294.044 73.0333L293.58 73.5109L293.136 74.0788L292.382 74.5245L291.648 75.0604L289.735 76.7002L289.593 76.9196L288.808 77.6554L288.627 77.6943L288.647 77.7846L287.834 77.9596L286.849 78.6441L286.127 78.7997C285.895 79.0385 285.554 79.2065 285.302 79.3551L285 79.7036L283.331 80.7241L282.99 80.8921L281.753 81.7252L281.592 81.8544L281.341 82.0029L281.07 82.0613L280.509 82.0877L280.419 82.1072C279.014 82.5988 277.782 82.5809 277.208 81.666C276.594 80.5708 276.663 79.1394 276.984 77.5595L277.111 76.3989L277.362 76.2503L277.375 75.8699L277.619 75.2507L277.722 74.8509L277.883 74.7218L277.902 74.812L277.986 74.3219L278.423 73.2835L279.26 72.3477L279.401 72.1283L279.87 70.7997L280.134 70.2707L280.739 69.5737L281.628 68.438L284.911 63.9535L284.891 63.8633L284.981 63.8438L285.941 62.5984L286.153 62.2694L287.415 60.6755L288.039 60.0688L290.016 57.8487L290.087 57.739L290.917 56.3326L291.271 55.7842L291.496 55.0747L291.657 54.9456L292.308 54.8997L292.54 54.6609L293.132 54.3443L293.474 54.1763L293.906 53.9888L294.208 53.6404L294.169 53.4599L294.833 53.0336L297.409 50.9676L297.853 50.3997L298.176 50.1415L298.859 49.8054L299.058 49.8568L299.219 49.7276L299.973 49.2819L300.244 49.2236L300.637 48.8556L301.249 48.6293L301.752 48.3321L302.344 48.0156L302.686 47.8475L303.647 47.9238L304.169 47.7169L304.71 47.6002L305.09 47.6127L305.271 47.5738L305.29 47.664L305.651 47.5862L305.961 47.7084L306.09 47.8694L306.47 47.8818L306.748 48.2941L306.923 49.1063L306.691 49.3451C306.659 49.6352 306.427 49.874 305.932 50.6418C305.7 50.8806 305.41 50.8487 305.3 50.7779L304.366 51.2625L303.754 51.4889L302.13 51.8389L300.647 51.9696L300.666 52.0598L300.305 52.1376L300.286 52.0473L300.105 52.0862L299.493 52.3126L298.862 52.4487L297.715 53.2624L296.407 54.2052L294.526 55.5548L293.219 56.4975C292.736 56.8849 292.362 57.3431 291.899 57.8207C291.828 57.9304 291.828 57.9304 291.808 57.8402L291.132 58.6468L291.062 58.7565L290.9 58.8856L287.482 62.7385L287.198 63.1772L286.581 64.2546L286.085 65.0224L285.531 65.5194L284.816 66.1456L284.604 66.4747L283.986 67.552L283.845 67.7714L283.723 68.081L282.932 69.6679L282.7 69.9067L282.558 70.1261L282.326 70.3649L282.224 70.7647L282.031 71.184L281.85 71.2229L281.767 71.713L281.503 72.2419L281.401 72.6418L281.047 73.1902L280.712 73.8288L280.043 75.1061L280.082 75.2866L280.289 75.8085L280.238 76.0085L280.276 76.1889L280.135 76.4083L279.832 76.7568L279.639 77.1761L279.305 77.8147L279.061 78.4339L279.099 78.6144L279.048 78.8143L279.165 79.3557L279.404 79.5875L279.772 79.9804L280.081 80.1025L281.821 78.9723L282.594 78.6168L283.76 77.8934L283.85 77.8739L284.282 77.6865C285.358 76.9825 286.414 76.1883 287.47 75.3941L287.863 75.0261L288.417 74.5291L288.791 74.0709L289.512 73.9153C290.408 73.2502 291.393 72.5657 292.269 71.8104L292.643 71.3522L293.216 70.9454L293.197 70.8552L293.358 70.726L293.57 70.397L293.912 70.229L295.129 69.3056L295.773 68.7891L296.327 68.2921L298.491 66.5037L299.025 65.9164L301.299 64.1989L301.802 63.9017L303.251 62.7396L303.927 61.9329L305.376 60.7708L305.75 60.3126L306.374 59.7058L306.748 59.2477L307.675 58.2924L308.693 57.3177L311.354 56.0833L312.437 55.8499L313.288 55.8554L313.997 56.0802L314.416 56.2731C314.797 56.2856 315.016 56.4272 315.274 56.7492L315.294 56.8395L315.494 56.8908L315.571 57.2518L315.54 57.5419L315.72 57.503L315.669 57.7029L315.559 57.6322L315.417 57.8515L315.295 58.1611L315.193 58.561L314.748 59.1288C314.697 59.3287 314.556 59.5481 314.414 59.7675L313.996 60.8962L313.552 61.464L313.301 61.6126L312.49 63.1093L312.349 63.3286L312.368 63.4189L312.207 63.548L311.821 64.3865L311.699 64.6961L311.596 65.096L311.088 66.2441C310.947 66.4635 310.915 66.7537 310.863 66.9536L310.748 67.7338L310.678 67.8435C310.575 68.2433 310.562 68.6237 310.692 68.7847C310.75 69.0554 310.621 68.8944 311.001 68.9069C311.091 68.8874 311.201 68.9582 311.291 68.9388L311.723 68.7513L312.355 68.6152L312.516 68.4861L313.147 68.35L313.579 68.1625L313.779 68.2138C314.391 67.9875 314.894 67.6903 315.667 67.3348L316.35 66.9988L316.923 66.592L317.465 66.4753L320.429 64.8923L320.66 64.6535L321.595 64.1689L321.614 64.2592L322.709 63.6454L323.353 63.1289L323.695 62.9609L323.998 62.6124L326.8 61.1586L326.761 60.9781L327.071 61.1002L327.825 60.6545L328.037 60.3255L332.096 58.1288L332.547 58.0315L334.648 56.8235C334.738 56.8041 334.828 56.7846 334.938 56.8554L335.118 56.8165L335.345 57.4287L335.042 57.7772L334.32 57.9328L332.864 58.6243L331.898 59.3991L331.537 59.4769L330.171 60.1489L329.507 60.5752L327.646 62.015L326.248 62.9773L324.65 63.8882L322.821 65.0379L322.498 65.2961L321.674 65.8515L321.281 66.2194L320.618 66.6457L320.527 66.6652L319.954 67.072L319.329 67.6787L319.078 67.8273L318.936 68.0467L316.765 69.3644L316.804 69.5449L316.695 69.4741L316.031 69.9004L315.98 70.1003L314.562 70.9723L313.306 71.7151L312.933 72.1733L312.862 72.283L312.733 72.122L312.481 72.2705L312.34 72.4899L312.14 72.4385L312.069 72.5482L311.476 72.8648L310.484 73.0787L310.284 73.0274L309.652 73.1635L309.162 73.0803L308.762 72.9776L308.414 72.675L308.407 72.2043L308.239 71.8628C308.071 71.5213 308.012 71.2506 308.076 70.6703L308.211 69.9803L308.223 69.5999L308.68 68.6517L308.853 68.1422L309.381 67.0842Z" fill="black"/>
<path d="M270.837 28.4603L272.081 28.0978L273.525 27.7867L273.879 27.2383L275.596 23.3745L275.808 23.0455L276.58 21.3683L276.934 20.8199L277.39 19.8717L277.622 19.6329L278.323 18.0654L278.284 17.885L278.567 17.4462L278.67 17.0464L278.792 16.7368L278.56 16.9756L278.47 16.995L278.431 16.8146L278.553 16.505L278.895 16.337L278.953 16.6077L279.217 16.0787L279.571 15.5303L279.886 14.8014L279.918 14.5113L280.162 13.8921L281.25 12.8077L281.797 11.84L282.1 11.4915L282.351 11.3429L282.403 11.143L282.383 11.0528L282.454 10.9431L282.473 11.0333L282.762 9.74358L283.258 8.97581L284.501 8.61334L285.496 9.72108L285.858 10.9649L284.77 12.0493L284.042 13.0559L283.625 14.1846L283.31 14.9135L283.336 15.4743L281.032 18.8037L280.266 19.6298L277.492 24.2878L276.032 27.152L277.095 26.8284L277.398 26.4799L277.669 26.4216L277.998 26.6339L280.215 25.9673L280.176 25.7868L286.222 24.484L288.78 23.6494L291.487 23.066L291.816 23.2784L292.538 23.1228L292.597 23.3935L294.982 23.0684L295.755 22.7129L297.077 22.7114L298.572 22.2003L299.203 22.0642L300.035 21.9794L301.176 22.0168L301.827 21.9709L302.569 21.9056L304.961 22.0511L305.141 22.0122L305.902 22.0371L307.075 21.7843L307.875 21.9897L309.918 21.8326L310.298 21.8451L310.937 22.1796C311.318 22.192 311.698 22.2045 312.098 22.3072L312.169 22.1975L312.278 22.2683L314.819 22.665L314.98 22.5359L315.109 22.6969L315.199 22.6775L315.219 22.7677L316.708 23.1077L316.889 23.0688L317.198 23.191C317.308 23.2617 317.418 23.3325 317.598 23.2936L318.069 23.2866L319.268 23.5947L319.636 23.9876L320.585 24.4442L320.945 24.3664L321.384 24.6496L321.513 24.8106C322.133 25.0549 322.681 25.4088 323.21 25.6726C323.229 25.7628 323.32 25.7433 323.339 25.8336L323.629 25.8655L324.455 26.6317L324.475 26.722L324.694 26.8635L325.274 26.9273L325.494 27.0689L325.559 27.8103L325.966 28.3836L326.767 29.9106L327.013 30.613C327.032 30.7033 327.142 30.7741 327.252 30.8449C327.31 31.1156 327.349 31.296 327.278 31.4057L327.388 31.4765L327.234 32.0763L326.666 31.6321L326.517 31.3808C326.388 31.2198 326.349 31.0393 326.31 30.8588L325.407 29.7317L324.425 28.2435L324.167 27.9215L324.057 27.8507L323.341 27.1552L322.553 26.5695C322.444 26.4987 322.444 26.4987 322.424 26.4084L321.237 25.72L320.837 25.6173L319.579 25.0385L319.47 24.9677C319.27 24.9164 318.98 24.8845 318.76 24.7429L318.47 24.711L318.27 24.6596L317.451 24.364L316.671 24.2489L316.091 24.1851L315.852 23.9533L315.742 23.8825L315.562 23.9214L315.252 23.7992L313.692 23.5689L311.938 23.7579L311.268 23.7136L310.068 23.4055L308.637 23.3363C307.115 23.2864 305.542 23.4365 303.95 23.4964L303.789 23.6255L302.197 23.6854L301.455 23.7507L300.553 23.9452L299.941 24.1715L298.258 24.2509L297.427 24.3356L296.905 24.5425L296.614 24.5106L295.493 24.5635C294.751 24.6288 293.939 24.8039 293.308 24.94L292.966 25.108L292.676 25.0761C292.135 25.1928 291.664 25.1998 291.213 25.297C288.325 25.9192 285.438 26.5415 282.57 27.254L281.957 27.4804L281.384 27.8872L281.442 28.1579L281.081 28.2357L280.205 28.991L279.844 29.0688L279.903 29.3395L279.632 29.3978L278.395 30.2309L273.974 31.1838C273.588 32.0223 273.092 32.7901 272.777 33.519L272.623 34.1187L272.179 34.6866C271.774 35.4349 271.368 36.1832 271.053 36.9121L271.021 37.2023L270.069 38.9183L269.163 41.2854L268.565 42.453L267.4 44.4981L267.259 44.7175L265.207 49.2199L264.751 50.1681L263.432 52.8129L263.278 53.4127L262.924 53.9611L262.558 54.8899L262.159 56.1089L261.896 56.6378L261.419 57.4958L260.853 58.3733L260.467 59.2118L260.397 59.3215L260.204 59.7408L260.069 60.4308L259.124 62.6174L258.996 63.7781L256.019 70.5574L254.925 72.4927L253.458 74.8863L253.104 75.4347L252.416 76.6218L252.069 77.6408L252.024 78.3113L251.394 79.7691L251.022 81.5489L250.585 82.5874L249.672 84.4839L249.539 86.4955L249.656 87.037L249.663 87.5076L249.193 88.8362L249.356 90.0287L249.209 91.0991L249.126 91.5892L249.384 91.9112L249.874 91.9945L250.396 91.7876L251.943 91.0766L252.445 90.7795L252.567 90.4699L254.023 89.7783L254.758 89.2424L255.421 88.8161L255.885 88.3385L256.587 88.0927L257.341 87.647L257.734 87.279L258.095 87.2013L258.346 87.0527L260.44 85.374L261.998 84.2827L261.979 84.1924L262.16 84.1535L262.333 83.644L262.604 83.5857L263.106 83.2885L263.377 83.2302L263.589 82.9012L263.86 82.8428L266.224 81.1058L267.01 80.3699L267.351 80.2019L271.165 77.3028L271.95 76.5669L272.524 76.1601L273.509 75.4756L274.797 74.4425L274.888 74.4231L275.222 73.7844L276.098 73.0291L277.103 72.4348L278.269 71.7114L280.433 69.9231L280.414 69.8328L280.504 69.8134L280.897 69.4455L281.2 69.097L282.307 68.1028L282.578 68.0445L282.539 67.864L283.061 67.6571L283.435 67.1989L283.647 66.8699L284.118 66.8629L284.395 67.2752L284.524 67.4362L284.492 67.7264L284.28 68.0554L283.578 68.3012L283.365 68.6303L281.279 70.7796L280.635 71.2961L279.778 72.1416L278.58 73.1552L277.685 73.8203L276.841 74.2854L275.714 75.1893L275.16 75.6864L274.948 76.0154L274.072 76.7708L273.054 77.7455L271.656 78.7077L271.244 78.9854L270.587 79.8823L269.834 80.328L269.009 80.8834L268.667 81.0514L268.223 81.6193L267.83 81.9872L267.399 82.1747L266.723 82.9813L266.491 83.2202L265.788 83.466L265.137 83.5118L264.654 83.8992L263.134 85.171L262.329 85.8167L261.182 86.6303L260.912 86.6887L259.946 87.4634L259.077 88.6894L258.291 89.4253L257.859 89.6127L257.769 89.6322L257.898 89.7932L257.866 90.0834L257.525 90.2514L256.983 90.3681L257.086 89.9682L256.744 90.1362L256.049 90.8527L255.837 91.1817L253.504 92.6285L250.38 94.3406L249.187 94.5032L248.936 94.6518L248.265 94.6074L247.885 94.595L247.195 94.4604L246.808 93.9773L246.452 93.204C246.284 92.8625 246.309 92.1018 246.231 91.7408C246.166 90.9995 246.242 90.0388 246.46 88.8587L246.421 88.6783L246.465 88.0077L246.619 87.408L246.761 87.1886L246.664 86.7374L246.786 86.4278L247.12 85.7892L247.243 85.4796L247.628 84.641L248.181 82.8223L248.303 82.5127L248.328 81.7519L248.392 81.1716L248.585 80.7523L248.99 80.004L249.356 79.0752L249.491 78.3852L249.735 77.766L250.109 77.3078L250.16 77.1079L250.675 76.4304L251.331 75.5335L251.646 74.8046L251.659 74.4242L251.742 73.9341L252.296 73.4371L253.119 71.56L253.151 71.2699L253.363 70.9408C253.627 70.4119 253.871 69.7926 254.225 69.2442L254.592 68.3154L255.1 67.1673L255.466 66.2385L255.852 65.3999L256.084 65.1611L256.206 64.8515L256.47 64.3225L256.54 64.2129C256.663 63.9033 256.894 63.6644 256.926 63.3743L256.978 63.1744L257.171 62.7551L257.312 62.5357L257.505 62.1165L257.466 61.936L257.749 61.4972L257.652 61.0461L258.687 58.84L259.01 58.5817C259.01 58.5817 259.1 58.5623 259.08 58.472L259.073 58.0014L259.794 56.5242L260.026 56.2854L260.231 55.4857L260.817 54.6985L263.125 49.1965L263.498 48.7383L264.534 46.5322L264.675 46.3129C264.958 45.8741 265.203 45.2549 265.447 44.6357L265.518 44.5261L265.64 44.2165L265.73 44.197L266.765 41.9909L266.668 41.5397L267.762 39.6044L267.994 39.3656L268.328 38.7269L268.341 38.3465L269.813 35.1019L270.296 34.7146L270.792 33.9468L270.773 33.8566L271.056 33.4178L271.017 33.2374L271.21 32.8181L271.461 32.6695L271.583 32.3599L271.564 32.2697L271.666 31.8698L271.698 31.5797L272.277 30.3218L272.097 30.3607L271.614 30.7481L269.848 31.3175L268.804 31.7313L266.136 32.4951L263.416 33.4589L262.714 33.7047L261.921 33.97L259.653 34.8365L258.97 35.1725L254.659 37.5178L253.944 38.144L253.622 38.4022L252.578 38.8161L251.296 38.9981L249.924 40.5212L249.261 40.9474L247.534 41.6973L245.361 41.6934L244.464 41.0368L244.179 40.1539L244.224 39.4833L244.314 39.4639C244.275 39.2834 244.326 39.0835 244.468 38.8641L244.648 38.8252L244.519 38.6642L244.48 38.4837L244.739 38.8058C246.117 37.7533 247.805 36.823 249.874 35.9051L251.181 34.9623L252.606 34.561L253.186 34.6248L256.788 33.3763L256.949 33.2472L257.04 33.2277L259.418 32.432L259.488 32.3223L259.669 32.2834L261.254 31.7529L261.544 31.7848L262.086 31.6682L262.157 31.5585L262.608 31.4613L264.767 30.5239L264.928 30.3948L265.34 30.1171L265.881 30.0004L267.376 29.4894L267.628 29.3408L268.279 29.2949C268.71 29.1075 269.142 28.92 269.593 28.8228L269.664 28.7131L270.025 28.6353L270.837 28.4603Z" fill="black"/>
<path d="M226.557 84.9328L226.75 84.5136L226.801 84.3136L226.923 84.004L228.119 81.6688L228.325 80.8692L228.537 80.5401L228.589 80.3402L228.82 80.1014L229.65 78.695L229.914 78.166L229.875 77.9855L229.985 78.0563L230.061 77.0956L229.951 77.0248L229.481 77.0318L228.669 77.2068L227.644 77.7109L225.241 79.2674L224.649 79.584L224.217 79.7715L221.95 81.9596L221.86 81.9791L221.235 82.5858L220.662 82.9927L220.108 83.4897L218.246 84.9296L216.424 86.5499L215.689 87.0858L214.491 88.0994L214.079 88.3771L213.132 89.2421L212.63 89.5393L211.219 90.8819L210.756 91.3595L210.312 91.9274L209.558 92.3731L208.824 92.909L206.911 94.5488L206.769 94.7682L205.983 95.504L205.803 95.5429L205.822 95.6332L205.01 95.8082L204.025 96.4927L203.303 96.6483C203.071 96.8871 202.729 97.0551 202.478 97.2037L202.176 97.5522L200.507 98.5727L200.165 98.7407L198.929 99.5738L198.768 99.703L198.516 99.8515L198.246 99.9099L197.685 99.9363L197.594 99.9558C196.19 100.447 194.958 100.429 194.383 99.5146C193.77 98.4194 193.839 96.988 194.159 95.4081L194.287 94.2475L194.538 94.0989L194.551 93.7185L194.795 93.0993L194.898 92.6995L195.059 92.5704L195.078 92.6606L195.161 92.1705L195.599 91.1321L196.436 90.1963L196.577 89.9769L197.046 88.6483L197.31 88.1193L197.915 87.4223L198.804 86.2866L202.086 81.8021L202.067 81.7119L202.157 81.6924L203.116 80.447L203.329 80.118L204.59 78.5241L205.215 77.9174L207.192 75.6973L207.263 75.5876L208.093 74.1812L208.447 73.6328L208.671 72.9233L208.832 72.7942L209.484 72.7483L209.715 72.5095L210.308 72.1929L210.65 72.0249L211.081 71.8375L211.384 71.489L211.345 71.3085L212.009 70.8822L214.585 68.8162L215.029 68.2483L215.351 67.9901L216.034 67.654L216.234 67.7054L216.395 67.5762L217.149 67.1305L217.42 67.0722L217.813 66.7043L218.425 66.4779L218.927 66.1807L219.52 65.8642L219.862 65.6961L220.822 65.7724L221.344 65.5655L221.886 65.4488L222.266 65.4613L222.447 65.4224L222.466 65.5126L222.827 65.4348L223.137 65.557L223.266 65.718L223.646 65.7304L223.924 66.1427L224.099 66.9549L223.867 67.1937C223.835 67.4838 223.603 67.7226 223.108 68.4904C222.876 68.7292 222.586 68.6973 222.476 68.6265L221.542 69.1111L220.93 69.3375L219.305 69.6875L217.823 69.8182L217.842 69.9084L217.481 69.9862L217.462 69.8959L217.281 69.9348L216.669 70.1612L216.037 70.2973L214.891 71.111L213.583 72.0538L211.702 73.4034L210.394 74.3461C209.911 74.7335 209.538 75.1917 209.074 75.6693C209.004 75.779 209.004 75.779 208.984 75.6888L208.308 76.4954L208.237 76.6051L208.076 76.7342L204.657 80.5871L204.374 81.0258L203.757 82.1032L203.261 82.871L202.707 83.368L201.992 83.9942L201.78 84.3233L201.162 85.4006L201.021 85.62L200.898 85.9296L200.107 87.5165L199.876 87.7553L199.734 87.9747L199.502 88.2135L199.399 88.6133L199.206 89.0326L199.026 89.0715L198.943 89.5616L198.679 90.0905L198.576 90.4904L198.222 91.0388L197.888 91.6774L197.219 92.9547L197.258 93.1352L197.465 93.6571L197.413 93.8571L197.452 94.0375L197.311 94.2569L197.008 94.6054L196.815 95.0247L196.481 95.6633L196.236 96.2825L196.275 96.463L196.224 96.6629L196.341 97.2043L196.579 97.4362L196.947 97.829L197.257 97.9511L198.996 96.8209L199.77 96.4654L200.936 95.742L201.026 95.7225L201.458 95.5351C202.533 94.8311 203.59 94.0369 204.646 93.2427L205.039 92.8747L205.593 92.3777L205.966 91.9195L206.688 91.7639C207.584 91.0988 208.569 90.4143 209.445 89.659L209.819 89.2008L210.392 88.794L210.372 88.7038L210.533 88.5746L210.746 88.2456L211.087 88.0776L212.305 87.1542L212.949 86.6377L213.503 86.1407L215.667 84.3523L216.201 83.765L218.475 82.0475L218.978 81.7503L220.427 80.5882L221.103 79.7815L222.552 78.6194L222.925 78.1612L223.55 77.5544L223.924 77.0963L224.851 76.141L225.868 75.1663L228.53 73.9319L229.612 73.6985L230.463 73.704L231.173 73.9288L231.592 74.1217C231.973 74.1342 232.192 74.2758 232.45 74.5978L232.47 74.6881L232.669 74.7394L232.747 75.1004L232.715 75.3905L232.896 75.3516L232.844 75.5515L232.735 75.4808L232.593 75.7001L232.471 76.0097L232.368 76.4096L231.924 76.9774C231.873 77.1773 231.731 77.3967 231.59 77.6161L231.172 78.7448L230.728 79.3126L230.477 79.4612L229.666 80.9579L229.524 81.1772L229.544 81.2675L229.383 81.3966L228.997 82.2351L228.875 82.5447L228.772 82.9446L228.264 84.0927C228.122 84.3121 228.091 84.6023 228.039 84.8022L227.924 85.5824L227.853 85.6921C227.751 86.0919 227.738 86.4723 227.867 86.6333C227.926 86.9041 227.797 86.743 228.177 86.7555C228.267 86.736 228.377 86.8068 228.467 86.7874L228.899 86.5999L229.53 86.4638L229.691 86.3347L230.323 86.1986L230.755 86.0111L230.955 86.0624C231.567 85.8361 232.07 85.5389 232.843 85.1834L233.526 84.8474L234.099 84.4406L234.64 84.3239L237.604 82.7409L237.836 82.5021L238.77 82.0175L238.79 82.1078L239.885 81.494L240.529 80.9775L240.871 80.8095L241.173 80.461L243.976 79.0072L243.937 78.8267L244.247 78.9488L245.001 78.5031L245.213 78.1741L249.272 75.9774L249.723 75.8801L251.824 74.6721C251.914 74.6527 252.004 74.6332 252.114 74.704L252.294 74.6651L252.521 75.2773L252.218 75.6258L251.496 75.7814L250.04 76.4729L249.074 77.2477L248.713 77.3255L247.347 77.9975L246.683 78.4238L244.822 79.8637L243.424 80.8259L241.826 81.7368L239.996 82.8865L239.674 83.1447L238.85 83.7001L238.457 84.068L237.793 84.4943L237.703 84.5138L237.13 84.9206L236.505 85.5273L236.254 85.6759L236.112 85.8953L233.941 87.213L233.98 87.3935L233.87 87.3227L233.207 87.749L233.155 87.9489L231.738 88.8209L230.482 89.5637L230.108 90.0219L230.038 90.1316L229.908 89.9706L229.657 90.1191L229.516 90.3385L229.316 90.2872L229.245 90.3968L228.652 90.7134L227.66 90.9273L227.46 90.876L226.828 91.0121L226.338 90.9289L225.938 90.8262L225.59 90.5236L225.583 90.0529L225.415 89.7114C225.247 89.3699 225.188 89.0992 225.252 88.5189L225.387 87.8289L225.399 87.4485L225.856 86.5003L226.029 85.9908L226.557 84.9328Z" fill="black"/>
<path d="M84.3286 152.409L82.7752 152.649C82.5044 152.707 82.2532 152.856 81.9825 152.914L81.5507 153.102C80.7775 153.457 80.0751 153.703 79.3726 153.949L78.8895 154.336L77.6262 154.609L76.9821 155.125L75.8479 155.558L75.2357 155.785L73.7725 156.006C73.5018 156.064 73.2505 156.213 72.9798 156.271L72.8188 156.4L72.4579 156.478C69.9896 157.293 67.5213 158.108 65.1238 158.814L65.0336 158.833L63.3774 159.473L62.9457 159.661L62.2627 159.997L61.831 160.184L60.8189 160.308L59.4459 160.509L56.3903 160.79L53.3737 161.251L53.0835 161.219L46.0894 162.066L45.7479 162.234L44.3236 162.635L44.1626 162.764L42.641 162.714L42.4411 162.663L41.9705 162.67C41.4096 162.696 40.8682 162.813 40.417 162.91C39.2245 163.073 37.9931 163.055 36.7617 163.037L36.6714 163.056L36.291 163.044L35.5108 162.929L35.4011 162.858L33.9309 162.608L32.2997 162.488L29.9714 161.762L29.7326 161.53L25.2955 160.22C24.6958 160.066 23.921 159.1 23.3213 158.946C22.6118 158.721 21.7857 157.955 21.2303 157.13C20.636 156.125 20.1514 155.191 19.757 154.237L19.4793 153.825L19.2141 153.032L19.1293 152.201L19.071 151.93L18.8835 151.498L18.9598 150.537L18.714 149.835L18.8167 149.435L18.8221 148.584L19.1481 146.153L19.2508 145.753L19.674 143.774L19.7059 143.484L19.7573 143.284L20.0404 142.845L20.3111 142.787L20.6915 142.799L20.7693 143.16L20.6277 143.379C20.6277 143.379 20.6472 143.47 20.5764 143.579C20.5445 143.869 20.2419 144.218 20.1392 144.618L20.1586 144.708C20.0878 144.818 20.1073 144.908 20.1267 144.998C20.1267 144.998 20.1462 145.088 20.0754 145.198L19.9159 146.649L19.8451 146.758L19.698 147.829L19.9757 148.241L20.073 148.692L20.0022 148.802L19.9189 149.292L19.7968 149.602L19.887 149.582L19.8163 149.692L19.726 149.711L19.7649 149.892L19.7136 150.092L19.7913 150.453L19.9733 151.735L19.9998 152.296L20.2137 153.289C20.4984 154.172 20.9635 155.016 21.4093 155.77L21.9258 156.414L22.1646 156.646L22.4423 157.058L22.7713 157.27L23.0296 157.592C23.8362 158.268 24.8234 158.905 25.7911 159.452L26.0812 159.484L27.1392 160.012L27.9388 160.217L28.2484 160.339L29.3577 160.667L30.0671 160.891C30.7766 161.116 31.5568 161.231 32.337 161.347L34.3681 161.57L36.8504 161.696L38.2817 161.765L38.7329 161.668L39.3326 161.822L39.5131 161.783L39.8935 161.796C42.988 161.695 46.1338 161.395 49.1505 160.934L49.9431 160.669L50.665 160.513L52.7794 160.246L54.6549 159.748L56.0987 159.437L57.0399 159.423L57.7424 159.177L58.5545 159.002C60.0885 158.671 61.4226 158.289 62.4152 158.075L62.8275 157.798L63.3883 157.771L63.8201 157.584L64.8835 157.26L65.0834 157.312L66.8492 156.742L66.9395 156.723L67.5517 156.496C67.9126 156.419 68.2736 156.341 68.6151 156.173L68.8663 156.024L69.1565 156.056L69.498 155.888L70.7418 155.526L71.6247 155.241L72.3785 154.795L72.559 154.756L72.72 154.627L74.4151 154.167L75.0078 153.851L75.9102 153.656L76.3419 153.469L76.664 153.211L77.0444 153.223L77.4761 153.036L78.1202 152.519L78.5006 152.532L78.72 152.673L78.7394 152.763L80.1249 152.182L80.2151 152.162L80.4469 151.923L80.6982 151.775L81.6908 151.561L82.825 151.128L82.986 150.998L83.0568 150.889L84.7324 150.339L84.8032 150.229L85.5375 149.693L86.5301 149.479L86.73 149.531L87.0715 149.363L87.6448 148.956L88.8887 148.593L91.0474 147.656L92.6133 147.035L93.3865 146.68L93.5919 145.88L93.4947 145.429L93.3267 145.087L93.1711 144.366L93.1836 143.985L93.1571 143.424L93.2847 142.264L93.186 140.491L93.3913 139.691L93.5135 139.382L93.5648 139.182L93.7368 137.35L93.6395 136.899L93.7617 136.59L93.8519 136.57C94.0309 135.21 94.2098 133.849 94.479 132.469L94.4525 131.908L94.6579 131.109L94.7801 130.799L94.9854 129.999L95.1006 129.219L95.1644 128.639L95.1255 128.458L95.2087 127.968L95.299 127.949L95.4211 127.639L95.5627 127.42L95.5043 127.149L95.5557 126.949L95.7167 126.82L96.1594 124.931L96.301 124.711L96.1703 123.229L96.2022 122.938L96.6464 122.371L97.7262 119.494L97.9121 118.604L98.2466 117.965L98.4395 117.546L98.5936 116.946L98.967 116.488C98.9475 116.398 99.0378 116.379 99.0378 116.379L98.9989 116.198L99.0821 115.708L99.3139 115.469L99.4555 115.25L99.4166 115.069L99.5901 114.56L99.6026 114.179L100.316 112.232L100.458 112.012L100.631 111.503L101.1 110.174L101.261 110.045L101.505 109.426L101.84 108.787L102.187 107.768L102.148 107.588L102.199 107.388L102.36 107.259L102.431 107.149L103.652 104.053L103.845 103.634L104.72 101.557L105.054 100.918L105.472 99.7893L105.665 99.37L106.507 97.5832L106.41 97.132L106.662 96.9834L106.693 96.6933L106.777 96.2032L106.828 96.0033L106.686 96.2226L106.577 96.1518L106.557 96.0616L106.641 95.5715L107.072 95.3841L107.131 95.6548L107.285 95.055L107.709 94.3969L107.986 93.4876L108.017 93.1974L108.403 92.3589L109.453 91.094L110.051 89.9264L110.122 89.8167L112.263 85.2949L112.347 84.8048L112.842 84.037L112.977 83.347L113.067 83.3276L113.15 82.8375L113.78 81.3798L113.902 81.0702L115.4 77.0648L115.94 75.6265L116.119 74.266L116.717 73.0983L117.322 72.4014L118.505 69.1249L118.71 68.3252L119.404 66.2871L119.609 65.4875L120.606 63.1009L121.107 61.4821L121.679 59.7536L121.523 59.0318L121.386 57.0785L122.258 53.6798L123.881 52.0082L125.144 51.7359L125.698 51.2389C125.93 51.0001 126.22 51.032 126.369 51.2832C126.556 51.715 126.654 52.1661 126.661 52.6368L126.77 52.7076L126.784 53.6488L127.235 53.5516L127.274 53.7321L127.004 53.7904L126.65 54.3388L126.695 54.9899L126.658 56.1311L125.591 58.6273L125.189 62.0189L124.378 63.5156L123.773 64.2126L122.962 65.7092L122.422 67.1476L121.663 68.4443L122.385 68.2887L122.521 68.9204L121.935 69.7076L121.574 69.7854L121.709 69.0954L121.355 69.6438L120.769 70.431L120.537 70.6698L120.583 71.3209L120.371 71.65L119.978 72.0179L119.836 72.2373L116.442 80.1453L112.217 89.4597L112.326 89.5305L112.238 90.8716L111.62 91.949L111.298 92.2072L110.744 92.7043L107.677 99.503L107.593 99.9931L106.365 102.618L105.33 104.825L104.699 106.282L104.629 106.392L103.51 109.088L103.498 109.469L103.478 109.378L103.067 110.978L102.676 112.667L102.38 113.486L101.68 115.054L100.72 116.299C99.499 119.395 98.4581 122.452 97.6171 125.561L97.348 126.941L96.5739 132.112L96.3436 133.673L96.4408 134.124L96.4478 134.594L96.4299 135.826L95.9343 136.594L95.8192 137.374L95.9863 142.531L96.5822 144.858L96.5503 145.148L97.2333 144.812L97.8455 144.586L98.9602 144.062L99.0504 144.043L100.919 143.074L102.375 142.382L103.863 141.4L105.771 140.612L106.686 140.037L107.227 139.92C107.639 139.642 108.071 139.455 108.503 139.268L108.754 139.119L109.347 138.802C111.054 137.962 112.723 136.942 114.411 136.011L114.823 135.734L116.853 134.635L117.607 134.19L120.209 132.684L121.517 131.742L124.642 130.03L126.633 128.751L128.965 127.304L129.558 126.987L130.221 126.561L131.116 125.896L131.548 125.708C131.78 125.47 132.121 125.302 132.463 125.134L132.605 124.914L137.062 121.499L137.333 121.44L138.157 120.885L138.209 120.685L138.389 120.646L141.397 118.393L141.758 118.315L142.28 118.108L143.246 117.333L144.29 116.919L144.342 116.719L145.327 116.035L145.971 115.518L148.033 114.13L148.303 114.071L150.036 112.471L151.846 111.231L154.23 109.584C154.944 108.958 155.679 108.422 156.413 107.886L156.555 107.666L156.877 107.408L156.986 107.479L158.829 105.949L158.583 105.246L158.634 105.047L158.724 105.027L158.924 105.078L159.176 104.93L159.356 104.891L159.375 104.981L159.795 105.174C161.012 104.251 162.1 103.166 163.298 102.153L164.174 101.398L164.76 100.61L166.261 99.2483L166.756 98.4805L168.63 96.6602L169.609 95.5051L172.359 92.9295L174.902 89.832L175.707 89.1864L176.544 88.2506L178.952 85.843L179.326 85.3849L179.358 85.0947L179.563 84.295L179.685 83.9854L180.181 83.2177L181.095 82.6428L181.586 82.7261L181.785 82.7774L182.371 81.9902L182.564 81.5709L182.918 81.0225L182.801 80.4811L183.182 80.4935L183.18 79.1719L183.611 77.6628L183.984 77.2046L184.904 75.7787L186.341 74.997L186.36 75.0872L186.656 74.2681L186.778 73.9585L186.739 73.778L187.26 72.2495L187.414 71.6497L187.8 70.8112L187.883 70.3211L187.895 69.9407L188.108 69.6116L188.191 69.1216L188.113 68.7606L188.216 68.3608L188.448 68.122L188.718 68.0636C188.802 67.5736 188.975 67.0641 189.149 66.5545L189.019 66.3935L188.91 66.3227L188.981 66.213L189.071 66.1936L189.103 65.9034L188.864 65.6716L188.793 65.7813L188.522 65.8396L188.464 65.5689L188.657 65.1496L188.528 64.9886L188.489 64.8081L188.399 64.8276L188.199 64.7762L188.07 64.6152L188.14 64.5055L188.301 64.3764L188.192 64.3056L188.372 64.2667L188.263 64.1959L188.133 64.0349L188.346 63.7059L188.326 63.6156L188.636 63.7378L188.648 63.3574L188.68 63.0672L188.641 62.8868L188.532 62.816L188.622 62.7965L188.466 62.0746L187.975 60.6697L187.335 59.0136L187.167 58.6721L186.979 58.2404L186.869 58.1696L186.495 57.3061L185.52 56.2886L184.719 54.7616L184.57 54.5103L183.815 53.6344L183.318 53.0805C182.86 52.7071 182.492 52.3143 182.053 52.0311L181.504 51.6771L181.046 51.3037L180.459 50.7693L178.543 49.7658L177.685 49.2897L176.698 48.6526L175.33 48.003L175.24 48.0225L174.95 47.9906L174.111 47.6047L173.351 47.5798L172.77 47.516L172.512 47.194L172.222 47.1621L171.712 46.9886L171.422 46.9567L171.254 46.6152C168.526 45.7867 165.856 45.2289 163.296 44.7418L162.826 44.7488L161.046 44.377L160.756 44.3451L156.835 43.6791L156.635 43.6278L153.044 43.1742L152.212 43.259L151.361 43.2535L150.252 42.926L148.64 42.8956L146.519 42.6918L146.138 42.6793L145.068 42.5323L144.327 42.5976L143.856 42.6046L142.605 42.4964L141.032 42.6465L138.66 42.5913L137.177 42.7219L136.236 42.7359L135.314 42.8401L133.67 43.0999L133.251 42.907L132.149 43.0501L131.369 42.935C131.239 42.7739 130.859 42.7615 130.498 42.8393L130.318 42.8781L129.196 42.931L128.693 43.2282L126.882 43.1465L126.611 43.2048L124.677 43.4327L119.636 44.1412L118.373 44.4135L117.851 44.6204L117.31 44.7371L116.027 44.9191L113.139 45.5413L112.708 45.7288L110.574 45.9053C109.491 46.1387 108.518 46.4428 107.525 46.6567L106.759 47.4828L106.134 48.0896L105.793 48.2576L104.839 48.652L103.788 48.5952L103.401 48.1121L103.252 47.8608C102.35 48.0553 101.557 48.3205 100.674 48.6052L99.9399 49.1412L99.5081 49.3286L98.374 49.7619L97.484 49.576L90.8913 51.8465L84.6277 54.3294L84.5763 54.5294L80.9295 56.4483L80.4853 57.0162L80.4464 56.8357L79.3193 57.7396L77.8825 58.5214L77.709 59.0309L77.2897 58.838L75.506 60.6388L73.94 61.2595L73.6763 61.7885L72.8642 61.9635L72.3298 62.5508L70.3197 63.7394L70.2294 63.7588L69.9782 63.9074L69.2633 64.5336L68.007 65.2764L67.1964 66.7731L64.1493 68.8461L62.5779 70.3179L61.6188 71.5633L61.4577 71.6924L61.5869 71.8534L61.6257 72.0339L61.8062 71.995L61.6646 72.2144L61.9229 72.5364L61.9423 72.6266L61.8715 72.7363C62.2006 72.9487 62.2076 73.4193 61.7564 73.5166L61.4857 73.5749L61.0734 73.8526L61.0928 73.9428L60.9832 73.872L60.8929 73.8915L60.7832 73.8207L60.5833 73.7694L60.4612 74.079L60.3904 74.1886L59.8101 74.1248L59.5713 73.893C57.3862 74.2695 56.7421 74.786 56.0256 74.0905L55.0455 73.924L54.7678 73.5118L54.6706 73.0606L54.8635 72.6413C54.7344 72.4803 54.6955 72.2998 54.9273 72.061L56.1572 70.7573L57.4703 68.9635L60.0148 67.1876L59.7052 67.0654L59.4275 66.6531L59.2401 66.2214L59.5232 65.7827L59.8453 65.5244L59.6454 65.4731L59.7356 65.4536L59.9355 65.505L60.0965 65.3758L60.4575 65.2981L60.96 65.0009L62.1331 64.7481L63.6601 63.9469L64.4917 63.8622L65.0331 63.7455C65.1039 63.6358 65.1039 63.6358 65.1941 63.6164L65.4773 63.1776L67.2556 62.2278L69.317 60.8393L70.4123 60.2256L72.6223 59.0884L72.7834 58.9592L72.9833 59.0106L73.3053 58.7523C73.7371 58.5649 74.1494 58.2872 75.0642 57.7123C76.2691 57.1694 76.4107 56.95 76.6814 56.8917L77.1451 56.4141L78.028 56.1294L78.1182 56.1099L78.8526 55.574L79.6966 55.1088L80.2186 54.9019L80.8502 54.7658C81.3722 54.5589 81.9844 54.3325 82.5772 54.0159L83.4336 53.1704L84.2458 52.9953L86.3725 52.3482C86.7335 52.2704 87.075 52.1024 87.7385 51.6761L88.1189 51.6886C88.2799 51.5594 88.3702 51.54 88.5507 51.5011L88.9435 51.1332L90.0069 50.8096L90.6899 50.4735L92.1142 50.0722C92.3849 50.0138 92.7459 49.936 94.2924 49.2251L97.0313 48.3516L97.1021 48.2419L97.6754 47.835L98.0364 47.7573L98.5389 47.4601L99.712 47.2073L101.239 46.4061L102.432 46.2436L103.263 46.1588L105.339 45.7115C106.421 45.4782 107.485 45.1546 108.638 44.8116L109.16 44.6047L110.785 44.2546L111.577 43.9894L113.853 43.5935L116.36 42.9588L116.83 42.9518L119.989 42.2712L120.73 42.2059L121.362 42.0697L121.923 42.0433C122.644 41.8877 123.386 41.8224 124.108 41.6668L124.739 41.5307L124.939 41.5821L128.787 41.0361L128.968 40.9972L129.309 40.8292L129.941 40.693L130.702 40.7179L133.229 40.1735L133.731 39.8763L133.931 39.9277L134.17 40.1595L134.248 40.5204C134.357 40.5912 134.518 40.4621 134.718 40.5134L134.879 40.3843L136.581 40.3952L137.393 40.2202L138.044 40.1743L139.566 40.2242L141.068 40.1837L142.19 40.1309L142.86 40.1752L143.421 40.1488L144.311 40.3347L144.962 40.2888L145.472 40.4623L146.033 40.4359L145.852 40.4748L149.224 40.7868C150.205 40.9532 151.165 41.0295 152.126 41.1057L153.389 40.8335L153.899 41.007L155.169 41.2054L157.832 41.2926L157.922 41.2731L158.302 41.2856L158.863 41.2591L159.263 41.3618L159.766 41.0647L160.056 41.0966L160.443 41.5797L161.423 41.7461L163.822 42.3623L163.913 42.3428L164.932 42.6898L167.06 43.3643L168.808 44.0263L169.717 44.3025L170.775 44.8299C171.194 45.0228 171.684 45.1061 172.084 45.2088L174.342 46.0443L174.812 46.0373L175.161 46.3399C175.38 46.4815 175.58 46.5328 175.78 46.5841L176.18 46.6868L176.399 46.8284L176.999 46.9825L177.438 47.2656L178.057 47.5099L178.766 47.7347L179.095 47.9471L179.412 48.5398C180.489 49.1575 181.477 49.7946 182.483 50.522L182.973 50.6052L183.193 50.7468L183.56 51.1397L183.96 51.2423L185.154 52.4014L185.8 53.2066C186.536 53.9923 187.291 54.8682 187.956 55.7636L188.285 55.9759L188.492 56.4979L188.531 56.6784C188.809 57.0907 189.067 57.4127 189.255 57.8444L189.364 57.9152L189.384 58.0055L189.797 59.0494L189.888 59.03L190.224 59.713L190.282 59.9837C190.379 60.4349 190.567 60.8666 190.664 61.3178L190.864 61.3691L190.722 61.5885C190.761 61.769 190.71 61.9689 190.749 62.1493L190.839 62.1299L191.039 62.1812L191.387 62.4839L191.433 63.135L191.37 63.7153L191.157 64.0443C191.559 65.4686 192.167 67.415 191.8 68.3437C190.406 71.9493 189.513 75.2576 187.802 78.2704L187.841 78.4509L187.66 78.4898L187.255 79.2381L186.689 80.1155L186.2 81.3539L185.646 81.851L185.485 81.9801L184.931 82.4772L184.577 83.0256L184.275 83.3741L184.545 83.3158L184.514 83.6059L184.191 83.8642L184.101 83.8836L183.779 84.1419L183.489 84.11L183.457 84.4001L183.186 84.4585L182.027 85.6525L181.815 85.9816L181.21 86.6785L180.856 87.2269L179.838 88.2016L179.484 88.75L177.256 91.1187L176.651 91.8157L176.439 92.1447L176.548 92.2155L176.646 92.6667L176.653 93.1373L176.389 93.6663L176.557 94.0078L175.495 95.653L175.334 95.7821L175.102 96.0209L175.231 96.182L175.141 96.2014L175.122 96.1112L174.639 96.4986L174.548 96.518L174.258 96.4861L174.097 96.6152L173.827 96.6736L173.627 96.6222L173.466 96.7514L172.873 97.0679L172.68 97.4872L172.397 97.926L171.804 98.2425L170.921 98.5272L170.077 98.9924L169.755 99.2507L168.828 100.206L168.635 100.625L168.384 100.774L167.018 101.446L166.071 102.311L165.91 102.44L165.839 102.55L165.466 103.008L164.912 103.505L163.218 105.286L163.025 105.706L162.774 105.854L162.594 105.893L162.265 105.681L162.245 105.59L160.635 106.882L160.513 107.191L160.139 107.649L159.437 107.895C159.347 107.915 159.186 108.044 159.095 108.063L159.115 108.153L158.793 108.412L158.58 108.741L158.458 109.05L157.563 109.715L157.363 109.664L156.899 110.142L153.518 112.853L152.132 113.435L150.019 115.024L149.878 115.243L149.414 115.721L149.253 115.85L149.234 115.76L149.163 115.869L148.841 116.127L148.409 116.315L148.268 116.534L147.211 117.329L147.07 117.548L146.335 118.084L145.852 118.471L145.582 118.53L144.847 119.065L144.796 119.265L144.525 119.324L143.501 119.828L142.534 120.603L141.832 120.848C141.239 121.165 140.666 121.572 140.183 121.959L140.202 122.049L140.061 122.269L139.449 122.495L138.875 122.902L136.079 124.826L135.216 125.201L133.064 126.609L132.581 126.997L131.647 127.481L130.481 128.205L128.741 129.335L128.529 129.664L128.49 129.484L125.565 131.247L125.314 131.396L125.333 131.486L125.243 131.505L121.294 133.773L120.991 134.121L120.508 134.509L119.876 134.645C119.696 134.684 119.535 134.813 119.374 134.942L119.001 135.4L117.757 135.762L116.732 136.267L116.771 136.447L115.064 137.287L114.973 137.307L106.836 141.61L106.443 141.978L105.85 142.294L104.916 142.779L103.64 143.431L99.4518 145.467L98.7369 146.093L98.376 146.171L96.7712 146.611C96.4102 146.689 96.159 146.838 95.9077 146.986L95.9147 147.457L95.4331 149.166L95.4152 150.397L94.7781 151.385L94.2367 151.501L93.8563 151.489L93.5786 151.076L93.4495 150.915L93.3911 150.645L93.3398 150.845L93.3009 150.664L93.3717 150.554L93.3562 148.292L93.3367 148.201L93.066 148.26L92.0804 148.944L91.7195 149.022L90.7144 149.616L89.5997 150.14L88.7557 150.605L87.3897 151.277L86.7969 151.594L84.9214 152.092L84.3286 152.409ZM156.857 107.318L156.967 107.389L156.877 107.408L156.857 107.318Z" fill="black"/>
</svg>
