<svg width="293" height="364" viewBox="0 0 293 364" fill="none" xmlns="http://www.w3.org/2000/svg">
<rect x="3.58786" y="3.58786" width="285.594" height="356.633" rx="10.7636" fill="white" stroke="#2871B0" stroke-width="7.17572"/>
<path d="M223.166 0H271.243C283.132 0 292.77 9.63803 292.77 21.5272V69.6045H244.693C232.804 69.6045 223.166 59.9664 223.166 48.0773V0Z" fill="#2871B0"/>
<path d="M255.017 39.5667C254.077 33.9317 261.94 32.5143 261.94 28.8498C261.94 26.6028 260.236 25.1162 257.035 25.1162C254.773 25.1162 252.686 26.0842 250.911 28.0547L248.615 25.9459C250.842 23.4568 253.73 21.832 257.487 21.832C262.427 21.832 265.837 24.252 265.837 28.5041C265.837 33.6551 257.835 34.5194 258.566 39.5667H255.017ZM253.695 45.34C253.695 43.5077 255.052 42.3323 256.826 42.3323C258.6 42.3323 259.992 43.5077 259.992 45.34C259.992 47.1722 258.6 48.3822 256.826 48.3822C255.052 48.3822 253.695 47.1722 253.695 45.34Z" fill="white"/>
<path d="M61.4232 61.1969C62.4185 61.1969 63.3895 59.6919 64.3605 56.4391C64.9188 54.667 65.3557 52.6036 65.647 50.6131C61.6659 51.4384 59.554 54.934 59.554 57.58C59.554 60.0075 60.525 61.1969 61.4232 61.1969ZM68.026 66.5617L66.2296 63.7215C67.1521 63.6001 67.8318 63.4788 68.4629 63.3331C71.5458 62.6049 73.9248 60.3959 73.9248 56.9003C73.9248 53.5746 72.1284 51.0986 68.8999 50.5403C68.56 52.5794 68.1473 54.8126 67.4676 57.0702C66.0354 61.9252 63.9478 64.8867 61.3261 64.8867C58.6801 64.8867 56.4226 61.9495 56.4226 57.8955C56.4226 52.3609 61.2533 47.603 67.4919 47.603C73.4393 47.603 77.2019 51.754 77.2019 56.9974C77.2019 62.0466 74.0947 65.6392 68.026 66.5617ZM77.8816 83.6326H66.1325C66.0597 84.6765 65.9869 85.7445 65.8655 86.7884H75.2356C75.2356 86.7884 75.2113 87.6623 75.1385 88.0507C74.7016 94.6534 74.1918 97.3722 73.2208 98.4403C72.4925 99.2171 71.74 99.4598 70.5991 99.5569C69.7009 99.654 68.0745 99.6298 66.4481 99.5569C66.3995 98.7316 65.9626 97.5421 65.4286 96.7168C67.1035 96.8867 68.8028 96.8867 69.5067 96.8867C70.0408 96.8867 70.3806 96.8382 70.6719 96.5711C71.3031 96.0371 71.74 93.9252 72.0799 89.5071H65.4043C64.4818 93.6096 62.467 97.3965 57.612 99.8482C57.1994 99.0472 56.3255 98.0276 55.573 97.3965C62.1272 94.3621 62.6855 88.8275 62.9525 83.6326H56.0099V80.8653H65.3072V76.9085H68.293V80.8653H77.8816V83.6326ZM78.5855 111.846L76.6678 112.695C76.158 111.676 75.3812 110.244 74.7016 109.345L76.6193 108.544C77.2747 109.467 78.1729 110.996 78.5855 111.846ZM62.2728 110.268L65.8412 110.632C65.6956 111.263 65.5499 112.016 65.4286 112.623C65.2829 113.351 65.0887 114.225 64.9188 115.099C65.7199 115.05 66.4481 115.001 66.9336 115.001C69.4825 115.001 71.2788 116.142 71.2788 119.589C71.2788 122.43 70.9389 126.265 69.9194 128.353C69.1183 130.028 67.8075 130.562 65.9626 130.562C65.0644 130.562 63.8992 130.416 63.0982 130.222L62.5641 127.042C63.4866 127.309 64.8945 127.552 65.5257 127.552C66.3267 127.552 66.9336 127.309 67.322 126.508C67.9774 125.173 68.293 122.308 68.293 119.929C68.293 118.012 67.4676 117.745 65.9626 117.745C65.5742 117.745 64.9916 117.793 64.3119 117.842C63.3652 121.483 61.6174 127.139 59.4084 130.683L56.2769 129.421C58.6073 126.265 60.258 121.459 61.1076 118.181C60.258 118.279 59.5055 118.376 59.0443 118.449C58.3646 118.521 57.1265 118.691 56.374 118.813L56.107 115.56C56.9809 115.633 57.782 115.584 58.6559 115.56C59.4084 115.536 60.5493 115.463 61.763 115.366C62.1029 113.521 62.2971 111.773 62.2728 110.268ZM75.6968 112.962L74.4588 113.496C75.8667 115.705 77.6631 119.759 78.3671 121.871L75.3084 123.303C74.6773 120.633 72.978 116.385 71.2545 114.249L73.4878 113.302C73.0023 112.38 72.3954 111.215 71.8371 110.438L73.7548 109.637C74.3617 110.535 75.2113 112.064 75.6968 112.962ZM65.5742 157.707C65.5742 157.488 65.5742 157.197 65.5499 156.881C64.9188 156.784 64.2391 156.711 63.5594 156.711C61.6902 156.711 60.5736 157.343 60.5736 158.362C60.5736 159.552 61.7873 159.989 63.4623 159.989C65.0159 159.989 65.5742 159.285 65.5742 157.707ZM75.9638 158.823L74.119 161.688C72.7596 160.328 70.9389 158.896 68.8028 157.925C68.827 158.241 68.827 158.508 68.827 158.751C68.827 160.862 67.7347 162.902 63.705 162.902C60.2823 162.902 57.4664 161.785 57.4664 158.508C57.4664 156.007 59.6026 154.017 64.0206 154.017C64.5061 154.017 64.9916 154.041 65.4528 154.09C65.38 152.221 65.2829 150.157 65.2829 148.895C65.2829 147.438 65.2586 146.006 65.2344 144.987C65.2101 143.797 65.1373 142.778 64.9916 142.171H68.6086C68.5115 142.875 68.4386 144.04 68.3901 144.987C68.3901 145.521 68.3901 146.128 68.3901 146.734C70.2835 146.686 73.0994 146.589 75.09 146.37L75.2113 149.235C73.1965 149.429 70.3321 149.526 68.3901 149.575C68.4386 151.031 68.5357 152.925 68.6571 154.697C71.7157 155.619 74.3132 157.27 75.9638 158.823ZM61.1562 176.283C60.9863 177.132 60.8649 178.54 60.8649 179.196C60.8406 180.749 60.8649 182.57 61.0105 184.293C61.3504 187.765 62.0786 190.119 63.5837 190.119C64.7246 190.119 65.6713 187.303 66.1325 185.41L68.56 188.323C66.9579 192.498 65.4528 193.979 63.5108 193.979C60.8892 193.979 58.583 191.6 57.9033 185.143C57.6849 182.934 57.6363 180.142 57.6363 178.662C57.6363 177.982 57.612 176.962 57.4664 176.234L61.1562 176.283ZM73.1722 176.792C75.4541 179.584 77.299 185.386 77.566 189.076L74.386 190.289C74.0219 186.43 72.7353 180.774 70.1136 177.812L73.1722 176.792ZM61.4232 221.197C62.4185 221.197 63.3895 219.692 64.3605 216.439C64.9188 214.667 65.3557 212.604 65.647 210.613C61.6659 211.438 59.554 214.934 59.554 217.58C59.554 220.007 60.525 221.197 61.4232 221.197ZM68.026 226.562L66.2296 223.722C67.1521 223.6 67.8318 223.479 68.4629 223.333C71.5458 222.605 73.9248 220.396 73.9248 216.9C73.9248 213.575 72.1284 211.099 68.8999 210.54C68.56 212.579 68.1473 214.813 67.4676 217.07C66.0354 221.925 63.9478 224.887 61.3261 224.887C58.6801 224.887 56.4226 221.949 56.4226 217.896C56.4226 212.361 61.2533 207.603 67.4919 207.603C73.4393 207.603 77.2019 211.754 77.2019 216.997C77.2019 222.047 74.0947 225.639 68.026 226.562ZM72.7596 244.943C73.3422 245.817 74.2403 247.274 74.7016 248.245L72.8567 249.07C72.2498 247.735 71.74 246.788 70.9632 245.696L72.7596 244.943ZM75.4783 243.827C76.0852 244.676 77.0077 246.109 77.5174 247.055L75.6968 247.929C75.0414 246.618 74.4831 245.72 73.7063 244.652L75.4783 243.827ZM56.5682 240.962C57.5392 240.938 58.4617 240.89 58.9229 240.841C60.9377 240.671 64.9188 240.307 69.3125 239.919C71.7886 239.724 74.4103 239.579 76.1095 239.506L76.1338 242.613C74.8472 242.613 72.7838 242.637 71.4973 242.929C68.5843 243.705 66.4238 246.813 66.4238 249.653C66.4238 253.61 70.1136 255.042 74.1918 255.236L73.0751 258.562C68.026 258.246 63.2681 255.527 63.2681 250.308C63.2681 246.837 65.1858 244.118 66.8122 242.904C64.7246 243.123 59.6754 243.657 56.8838 244.264L56.5682 240.962ZM58.3888 270.608L61.7388 270.899C61.5446 271.385 61.2533 272.598 61.1562 273.035C60.7921 274.637 60.0153 279.929 60.0153 282.332C60.0153 282.818 60.0395 283.401 60.1124 283.886C60.4279 283.036 60.8163 282.235 61.1805 281.434L62.6612 282.624C61.9815 284.59 61.2047 287.042 60.9377 288.353C60.8649 288.693 60.7921 289.202 60.8163 289.469C60.8163 289.712 60.8163 290.125 60.8406 290.465L58.1218 290.659C57.6363 288.984 57.1751 286.241 57.1751 282.988C57.1751 279.347 57.8791 274.807 58.1704 272.962C58.2675 272.283 58.3888 271.36 58.3888 270.608ZM70.5263 285.537V285.124C69.8951 284.954 69.2397 284.857 68.5843 284.857C67.2249 284.857 66.3024 285.415 66.3024 286.314C66.3024 287.285 67.2734 287.722 68.5357 287.722C70.0165 287.722 70.5263 286.945 70.5263 285.537ZM78.1243 286.508L76.4979 289.032C75.5026 288.086 74.5316 287.285 73.5849 286.629C73.4393 288.911 72.1284 290.562 68.8756 290.562C65.5742 290.562 63.4866 289.154 63.4866 286.629C63.4866 284.177 65.5499 282.502 68.827 282.502C69.3854 282.502 69.9194 282.527 70.4049 282.6C70.3321 281.119 70.2593 279.371 70.235 277.672C69.6524 277.696 69.0698 277.696 68.5115 277.696C67.1035 277.696 65.7441 277.647 64.3119 277.55V274.686C65.6956 274.832 67.0792 274.904 68.5115 274.904C69.0698 274.904 69.6524 274.904 70.2107 274.88C70.1864 273.691 70.1864 272.72 70.1622 272.21C70.1622 271.846 70.0893 271.118 70.0165 270.632H73.4635C73.3907 271.093 73.3422 271.676 73.3179 272.186C73.2936 272.72 73.2451 273.618 73.2451 274.686C74.5559 274.54 75.8182 274.37 76.9591 274.128V277.113C75.7939 277.283 74.5316 277.429 73.2208 277.526C73.2693 279.856 73.3907 281.774 73.4878 283.401C75.5026 284.226 77.0077 285.464 78.1243 286.508ZM65.0887 315.328C64.5789 311.517 69.7252 310.643 69.7252 308.288C69.7252 306.832 68.56 306.006 66.6666 306.006C65.1615 306.006 63.8992 306.662 62.7826 307.924L60.7921 306.079C62.3214 304.283 64.4576 303.118 67.055 303.118C70.5748 303.118 73.148 304.744 73.148 307.972C73.148 311.541 67.856 311.954 68.2202 315.328H65.0887ZM64.142 319.382C64.142 317.974 65.2101 317.003 66.6666 317.003C68.1231 317.003 69.1912 317.974 69.1912 319.382C69.1912 320.79 68.1231 321.785 66.6666 321.785C65.2101 321.785 64.142 320.79 64.142 319.382Z" fill="black"/>
<line x1="108.858" y1="78.7109" x2="108.858" y2="97.101" stroke="#2871B0" stroke-width="2.94241"/>
<path d="M118.157 48.2827L120.584 50.2732C120.245 50.6616 119.929 50.9772 119.759 51.2928C118.011 54.1329 114.904 58.0169 111.481 60.7843C112.865 62.1679 114.297 63.7458 115.244 64.8867L112.404 67.1443C111.384 65.7849 109.345 63.5273 107.767 61.9009C106.359 60.4687 103.883 58.2839 102.427 57.2401L105 55.1768C105.971 55.905 107.573 57.2159 109.102 58.551C111.845 56.3662 114.127 53.5503 115.268 51.5598H102.427C101.456 51.5598 100.145 51.6812 99.6352 51.7297V48.3312C100.266 48.4283 101.601 48.5497 102.427 48.5497H115.899C116.822 48.5497 117.647 48.4526 118.157 48.2827ZM106.869 114.298H117.332C117.963 114.298 119.055 114.273 119.856 114.128V117.453C118.958 117.356 117.89 117.356 117.332 117.356H113.933C113.496 123.813 110.972 128.134 106.578 130.902L103.301 128.717C104.175 128.353 105.048 127.843 105.607 127.357C108.156 125.415 110.17 122.43 110.559 117.356H105.437C104.466 119.128 102.985 121.192 101.529 122.454L98.47 120.609C100.194 119.322 101.747 117.138 102.67 115.608C103.349 114.492 103.786 113.229 104.077 112.307C104.345 111.554 104.539 110.632 104.587 109.807L108.326 110.559C108.059 111.166 107.743 112.016 107.549 112.525C107.355 113.035 107.136 113.666 106.869 114.298ZM114.686 145.982H104.951C104.102 145.982 103.082 146.03 102.354 146.079V142.948C103.131 143.069 104.126 143.118 104.927 143.118H114.686C115.511 143.118 116.482 143.069 117.307 142.948V146.079C116.458 146.03 115.535 145.982 114.686 145.982ZM101.844 149.308H117.744C118.254 149.308 119.298 149.259 119.953 149.162V152.318C119.346 152.269 118.424 152.245 117.744 152.245H111.894C111.748 154.745 111.214 156.784 110.34 158.483C109.491 160.158 107.622 162.052 105.461 163.144L102.621 161.081C104.345 160.425 106.044 159.018 107.015 157.61C108.01 156.105 108.423 154.284 108.52 152.245H101.844C101.14 152.245 100.194 152.293 99.5138 152.342V149.162C100.242 149.235 101.092 149.308 101.844 149.308ZM114.783 178.346L117.21 180.604C116.069 181.866 113.957 183.565 111.748 184.997V193.081C111.748 193.931 111.773 195.217 111.918 195.703H108.326C108.398 195.217 108.447 193.931 108.447 193.081V186.842C106.311 187.862 103.641 188.93 101.601 189.488L99.975 186.672C103.107 186.017 106.626 184.512 108.544 183.395C111.02 181.939 113.569 179.924 114.783 178.346ZM103.301 207.118C105 208.258 108.156 210.783 109.564 212.24L107.088 214.788C105.825 213.429 102.791 210.783 101.019 209.545L103.301 207.118ZM100.266 223.285C104.053 222.751 107.209 221.513 109.564 220.105C113.69 217.653 116.87 213.939 118.4 210.662L120.293 214.084C118.448 217.362 115.22 220.711 111.311 223.066C108.86 224.547 105.728 225.906 102.305 226.489L100.266 223.285ZM118.278 241.011L116.482 241.763L118.545 243.026C118.278 243.487 117.938 244.167 117.744 244.749C117.089 246.934 115.705 250.163 113.496 252.857C111.19 255.697 108.277 257.906 103.713 259.727L100.849 257.154C105.801 255.673 108.496 253.561 110.632 251.134C112.282 249.264 113.69 246.327 114.079 244.531H107.233C105.631 246.643 103.519 248.779 101.116 250.405L98.3972 248.366C102.67 245.793 104.781 242.662 105.971 240.574C106.359 239.967 106.845 238.85 107.063 238.025L110.632 239.19C110.049 240.04 109.418 241.132 109.127 241.666L109.054 241.788H113.933C114.686 241.788 115.511 241.666 116.045 241.496L116.215 241.594C115.729 240.623 115.05 239.336 114.443 238.462L116.361 237.685C116.967 238.559 117.817 240.113 118.278 241.011ZM117.307 237.37L119.225 236.593C119.856 237.491 120.754 239.045 121.191 239.894L119.249 240.72C118.764 239.7 117.987 238.292 117.307 237.37ZM107.743 281.483L109.734 280.56V278.036L109.515 278.279C109.054 277.745 107.986 276.676 107.355 276.24C107.622 275.972 107.889 275.681 108.131 275.366H103.495C103.471 276.24 103.446 277.113 103.422 277.963H107.792V279.055L107.743 281.483ZM113.666 289.202H117.404C118.351 289.202 118.545 288.79 118.691 286.653C119.274 287.066 120.317 287.479 121.021 287.649C120.706 290.683 119.978 291.605 117.623 291.605H113.375C110.51 291.605 109.734 290.829 109.734 288.061V283.401L108.738 283.862L107.743 281.507C107.646 287.454 107.476 289.785 106.918 290.562C106.481 291.193 106.019 291.436 105.364 291.557C104.757 291.703 103.835 291.678 102.864 291.678C102.815 290.877 102.548 289.809 102.16 289.105C102.912 289.202 103.592 289.202 103.908 289.202C104.223 289.202 104.417 289.129 104.612 288.814C104.927 288.328 105.073 286.289 105.17 280.585H103.276C102.937 284.954 102.16 288.887 100.145 291.654C99.6837 290.974 98.7856 290.1 98.0816 289.639C100.485 286.314 100.703 280.973 100.776 275.366H98.4457V272.695H102.16V269.03H104.927V272.695H108.714V274.516C109.709 272.938 110.438 270.996 110.874 269.006L113.715 269.54C113.52 270.389 113.253 271.239 112.986 272.064H120.609V274.686H111.894C111.481 275.536 111.02 276.337 110.51 277.041H112.282V279.371L113.593 278.764V275.293H115.996V277.647L117.744 276.846L117.841 276.774L118.278 276.458L120.075 277.089L119.978 277.478C119.953 280.925 119.953 283.401 119.88 284.129C119.832 285.003 119.492 285.537 118.837 285.804C118.254 286.047 117.477 286.071 116.846 286.071C116.773 285.415 116.579 284.493 116.312 283.959C116.603 283.983 116.943 283.983 117.137 283.983C117.332 283.983 117.453 283.935 117.477 283.619C117.526 283.401 117.526 282.065 117.55 279.759L115.996 280.488V287.26H113.593V281.604L112.282 282.211V288.061C112.282 289.057 112.452 289.202 113.666 289.202ZM111.409 313.944V316.08C112.21 316.784 113.229 317.464 114.443 318.095C114.249 317.391 113.836 316.542 113.496 315.935C114.297 316.007 115.292 315.983 115.56 315.983C115.851 315.983 115.948 315.91 115.948 315.643V313.944H111.409ZM104.539 307.851H108.301V306.565H108.714C108.447 306.395 108.204 306.249 107.986 306.128C108.301 305.885 108.593 305.594 108.884 305.302H105.898C106.238 305.933 106.554 306.54 106.723 307.001L104.539 307.851ZM118.934 311.492V315.643C118.934 316.857 118.691 317.44 117.817 317.804C116.992 318.144 115.899 318.168 114.589 318.168C116.433 319.115 118.691 319.891 121.094 320.328C120.487 320.96 119.662 322.125 119.274 322.877C116.166 322.1 113.423 320.571 111.409 318.945V323.703H108.301V318.872C106.092 320.79 103.276 322.222 100.242 323.047C99.8537 322.319 99.0526 321.202 98.4457 320.62C102.475 319.819 106.238 317.998 108.301 315.643V313.944H103.665V318.241H100.606V311.492H108.301V310.327H99.0526V307.851H104.199C103.956 307.147 103.471 306.152 102.961 305.302H102.548C101.917 306.249 101.213 307.074 100.533 307.73C99.975 307.269 98.8098 306.516 98.1302 306.152C99.6595 304.865 101.067 302.826 101.844 300.836L104.587 301.588C104.417 302.001 104.223 302.462 104.005 302.899H109.248V304.89C110.243 303.749 111.044 302.292 111.554 300.836L114.394 301.54C114.224 301.977 114.03 302.438 113.812 302.899H120.56V305.302H116.603C116.967 305.909 117.283 306.516 117.453 306.977L114.88 307.803C114.686 307.147 114.176 306.176 113.642 305.302H112.477C112.137 305.812 111.773 306.298 111.409 306.71V307.851H120.147V310.327H111.409V311.492H118.934Z" fill="black"/>
<path d="M146.028 45.0784L148.698 45.9523C148.067 47.5787 147.29 49.2537 146.44 50.8316V67.6298H143.576V55.2739C143.066 55.9536 142.557 56.5604 142.047 57.0945C141.78 56.4391 140.979 54.8612 140.493 54.1815C142.678 51.9968 144.814 48.5497 146.028 45.0784ZM154.281 64.7168H159.209C160.641 64.7168 160.884 64.1342 161.103 61.3911C161.758 61.8281 162.947 62.3136 163.724 62.5078C163.336 66.1005 162.486 67.3142 159.428 67.3142H154.063C150.616 67.3142 149.621 66.3675 149.621 63.0418V56.4148L147.8 57.1188L146.683 54.5699L149.621 53.429V47.7001H152.485V52.2881L154.84 51.3899V45.1027H157.534V50.3218L159.986 49.3993L160.35 49.108L160.884 48.7439L162.85 49.4964L162.753 49.9334C162.729 54.1572 162.68 57.0702 162.535 58.1383C162.413 59.352 161.976 59.9832 161.175 60.323C160.423 60.6629 159.282 60.6872 158.432 60.6629C158.384 59.8618 158.141 58.6481 157.801 58.0169C158.335 58.0412 159.015 58.0655 159.282 58.0655C159.622 58.0655 159.792 57.9684 159.889 57.5071C159.986 57.0702 160.034 55.4681 160.059 52.2881L157.534 53.2833V61.9252H154.84V54.3514L152.485 55.2739V63.0418C152.485 64.4983 152.728 64.7168 154.281 64.7168ZM146.732 93.1969C147.727 93.1969 148.698 91.6919 149.669 88.4391C150.227 86.667 150.664 84.6036 150.956 82.6131C146.975 83.4384 144.863 86.934 144.863 89.58C144.863 92.0075 145.834 93.1969 146.732 93.1969ZM153.335 98.5617L151.538 95.7215C152.461 95.6001 153.14 95.4788 153.772 95.3331C156.854 94.6049 159.233 92.3959 159.233 88.9003C159.233 85.5746 157.437 83.0986 154.208 82.5403C153.869 84.5794 153.456 86.8126 152.776 89.0702C151.344 93.9252 149.256 96.8867 146.635 96.8867C143.989 96.8867 141.731 93.9495 141.731 89.8955C141.731 84.3609 146.562 79.603 152.801 79.603C158.748 79.603 162.51 83.754 162.51 88.9974C162.51 94.0466 159.403 97.6392 153.335 98.5617Z" fill="black"/>
<path d="M263.575 318.618C263.564 318.33 263.442 318.058 263.236 317.852L261.415 316.076V307.816C261.554 307.583 261.615 307.305 261.554 307.022C261.526 306.894 261.476 306.778 261.415 306.667V303.552L262.648 302.858C263.025 302.647 263.247 302.242 263.22 301.809L263.02 298.628C263.009 298.484 262.97 298.351 262.909 298.223C262.881 297.94 262.748 297.668 262.515 297.474L246.605 284.123C246.133 283.723 245.422 283.784 245.023 284.262C244.623 284.734 244.69 285.444 245.161 285.844L259.628 297.979L243.857 300.904C243.663 300.532 243.268 300.288 242.819 300.299L175.283 303.064L164.596 282.613L165.34 267.575L173.101 281.397C173.301 281.758 173.678 281.958 174.061 281.964C173.978 282.119 173.928 282.291 173.928 282.48V298.856C173.928 299.478 174.433 299.977 175.049 299.977C175.666 299.977 176.171 299.478 176.171 298.856V283.557L243.818 278.888L244.018 281.453C243.818 281.314 243.574 281.242 243.318 281.259L182.516 285.328C180.212 285.494 178.563 287.404 178.586 289.857L178.636 294.976C178.652 296.552 179.346 298.09 180.545 299.189C181.544 300.105 182.755 300.599 183.981 300.599C184.092 300.599 184.209 300.599 184.32 300.588C184.936 300.544 185.402 300.005 185.352 299.389C185.308 298.773 184.775 298.306 184.153 298.356C183.443 298.406 182.682 298.112 182.061 297.54C181.328 296.869 180.884 295.903 180.878 294.953L180.828 289.835C180.817 288.581 181.578 287.643 182.671 287.565L242.414 283.568L242.613 292.1L207.324 293.199C206.708 293.216 206.22 293.738 206.236 294.354C206.253 294.959 206.752 295.442 207.358 295.442C207.369 295.442 207.38 295.442 207.391 295.442L242.658 294.343L242.702 296.203L187.995 298.073C187.373 298.095 186.89 298.612 186.912 299.233C186.935 299.839 187.429 300.316 188.034 300.316C188.045 300.316 188.061 300.316 188.073 300.316L243.058 298.44C243.263 298.651 243.546 298.778 243.857 298.778C243.868 298.778 243.874 298.778 243.885 298.778C244.506 298.762 244.995 298.251 244.978 297.629L244.629 282.63C244.806 282.724 245.012 282.769 245.234 282.752C245.85 282.702 246.311 282.163 246.266 281.547L245.961 277.617C245.944 277.423 245.878 277.228 245.755 277.062C245.744 277.045 245.739 277.029 245.722 277.012C245.722 277.012 245.722 277.006 245.717 277.001L242.83 273.398L259.217 271.561C259.767 271.5 260.189 271.05 260.211 270.495L260.305 268.419C260.316 268.13 260.222 267.847 260.028 267.63L258.523 265.909L259.411 254.596L260.533 254.08C260.927 253.897 261.177 253.508 261.182 253.081L261.227 250.172C261.227 249.85 261.099 249.544 260.86 249.328C260.622 249.111 260.3 249.006 259.989 249.039L189.932 256.428C189.932 256.428 189.921 256.428 189.91 256.428C189.283 256.372 188.755 256.839 188.705 257.455L187.373 274.375C187.323 274.991 187.784 275.53 188.4 275.58C188.428 275.58 188.461 275.58 188.489 275.58C189.066 275.58 189.56 275.136 189.605 274.547L190.859 258.582L258.962 251.404L258.945 252.342L258.223 252.675C258.179 252.675 258.14 252.675 258.096 252.675L196.422 259.803C194.179 260.064 192.397 261.885 192.192 264.133L191.753 268.907C191.62 270.356 192.142 271.766 193.18 272.782C194.085 273.665 195.278 274.147 196.522 274.147C196.705 274.147 196.893 274.136 197.082 274.114C197.698 274.042 198.137 273.487 198.065 272.871C197.993 272.255 197.432 271.816 196.821 271.888C196.05 271.977 195.295 271.716 194.74 271.178C194.184 270.639 193.907 269.884 193.979 269.113L194.418 264.338C194.529 263.139 195.472 262.173 196.671 262.035L257.113 255.051L256.236 266.209C256.214 266.509 256.314 266.809 256.508 267.036L258.029 268.774L258.001 269.44L188.606 277.206L163.619 252.825L165.024 234.945L185.502 255.262C185.941 255.701 186.651 255.695 187.09 255.257C187.523 254.818 187.523 254.108 187.084 253.669L166.556 233.302L233.459 225.918L258.246 247.962C258.462 248.151 258.723 248.245 258.99 248.245C259.3 248.245 259.606 248.118 259.828 247.868C260.239 247.407 260.2 246.697 259.733 246.286L234.57 223.909C234.331 223.698 234.02 223.598 233.704 223.631L163.975 231.325C163.886 231.336 163.803 231.359 163.725 231.386C163.719 231.386 163.714 231.386 163.708 231.386C163.697 231.386 163.686 231.403 163.675 231.403C163.597 231.436 163.531 231.47 163.464 231.52C163.447 231.531 163.425 231.542 163.408 231.558C163.336 231.614 163.27 231.681 163.214 231.753C163.203 231.764 163.198 231.78 163.186 231.792C163.142 231.858 163.103 231.925 163.07 231.997C163.059 232.019 163.053 232.041 163.042 232.058C163.009 232.147 162.987 232.241 162.981 232.336L161.343 253.153C161.316 253.486 161.438 253.813 161.677 254.041L169.698 261.874L164.258 262.501C164.258 262.501 164.225 262.512 164.208 262.512C164.18 262.512 164.158 262.512 164.13 262.523C164.113 262.523 164.097 262.534 164.08 262.54C164.052 262.545 164.025 262.557 164.002 262.568C163.964 262.584 163.925 262.601 163.886 262.618C163.864 262.629 163.841 262.64 163.819 262.651C163.775 262.679 163.73 262.706 163.692 262.74C163.681 262.751 163.669 262.756 163.658 262.767C163.608 262.812 163.564 262.856 163.52 262.912C163.508 262.928 163.497 262.945 163.486 262.956C163.458 262.995 163.431 263.034 163.408 263.073C163.397 263.095 163.386 263.117 163.375 263.139C163.359 263.178 163.342 263.217 163.325 263.256C163.314 263.284 163.309 263.306 163.303 263.334C163.292 263.373 163.286 263.417 163.281 263.461C163.281 263.489 163.27 263.511 163.27 263.539C163.27 263.545 163.27 263.556 163.27 263.561L162.32 282.796C162.309 282.996 162.354 283.196 162.448 283.368L163.342 285.072L155.426 286.488H155.404C155.309 286.51 155.226 286.538 155.148 286.577C155.137 286.577 155.132 286.577 155.121 286.582C155.109 286.588 155.098 286.599 155.082 286.604C155.009 286.643 154.948 286.682 154.887 286.732C154.871 286.743 154.854 286.754 154.843 286.771C154.776 286.832 154.715 286.904 154.665 286.982C154.654 286.999 154.643 287.021 154.632 287.037C154.593 287.104 154.565 287.171 154.538 287.243C154.532 287.265 154.521 287.287 154.515 287.309C154.493 287.398 154.477 287.493 154.477 287.587C154.477 287.587 154.477 287.593 154.477 287.598V310.453C154.477 310.786 154.626 311.102 154.882 311.313L185.097 336.493C185.308 336.671 185.563 336.754 185.813 336.754C185.835 336.754 185.858 336.749 185.88 336.749C185.908 336.749 185.935 336.754 185.963 336.754C186.035 336.754 186.102 336.749 186.174 336.732L262.709 322.021C263.253 321.916 263.636 321.433 263.619 320.883L263.542 318.613L263.575 318.618ZM187.423 279.149C187.64 279.36 187.923 279.466 188.206 279.466C188.206 279.466 188.211 279.466 188.217 279.466C188.261 279.466 188.3 279.477 188.345 279.477C188.389 279.477 188.428 279.477 188.472 279.471L240.326 273.665C240.365 273.814 240.432 273.953 240.532 274.081L242.647 276.718L175.227 281.37C175.183 281.364 175.133 281.359 175.083 281.353C175.249 281.031 175.255 280.631 175.066 280.287L166.229 264.544L171.408 263.944C171.53 263.928 171.641 263.894 171.752 263.844L187.434 279.144L187.423 279.149ZM186.185 334.462L156.753 309.936V289.968L168.01 299.15C168.488 299.544 169.198 299.472 169.587 298.989C169.981 298.512 169.909 297.801 169.426 297.413L158.229 288.281L164.452 287.171L173.628 304.735C173.823 305.107 174.206 305.334 174.622 305.334C174.639 305.334 174.65 305.334 174.666 305.334L232.832 302.953L186.191 311.607L182.272 308.243C181.8 307.838 181.095 307.893 180.689 308.365C180.284 308.837 180.34 309.542 180.812 309.947L184.72 313.3V331.358C184.72 331.98 185.219 332.48 185.841 332.48C186.463 332.48 186.962 331.98 186.962 331.358V313.744L260.86 300.033L260.938 301.243L260.1 301.715C260.05 301.715 260 301.715 259.95 301.726L193.263 314.788C190.887 315.254 189.138 317.347 189.105 319.773L189.039 325.019C189.016 326.579 189.694 328.039 190.887 329.038C191.825 329.821 192.98 330.232 194.173 330.232C194.506 330.232 194.84 330.198 195.173 330.132C195.778 330.015 196.177 329.421 196.055 328.816C195.933 328.211 195.345 327.811 194.74 327.933C193.874 328.1 192.997 327.878 192.319 327.312C191.642 326.751 191.265 325.924 191.276 325.041L191.342 319.795C191.359 318.43 192.347 317.247 193.69 316.981L259.04 304.18V306.367L221.147 313.978C220.542 314.1 220.148 314.688 220.27 315.299C220.375 315.832 220.847 316.198 221.369 316.198C221.441 316.198 221.519 316.192 221.591 316.176L259.045 308.654V315.304L198.914 327.112C198.309 327.228 197.909 327.822 198.032 328.427C198.154 329.038 198.742 329.432 199.347 329.31L259.65 317.469L261.354 319.135L261.382 319.995L186.185 334.45V334.462Z" fill="#2871B0"/>
<path d="M206.747 323.614C206.813 323.614 206.885 323.609 206.952 323.598L232.871 318.785C233.481 318.674 233.881 318.085 233.77 317.48C233.659 316.87 233.076 316.47 232.465 316.581L206.547 321.394C205.936 321.505 205.536 322.093 205.647 322.698C205.747 323.237 206.219 323.614 206.747 323.614Z" fill="#2871B0"/>
<path d="M238.106 317.431C238.173 317.431 238.245 317.425 238.311 317.414L243.008 316.543C243.618 316.432 244.018 315.843 243.907 315.238C243.796 314.627 243.213 314.228 242.602 314.339L237.906 315.21C237.295 315.321 236.896 315.91 237.007 316.515C237.107 317.053 237.579 317.431 238.106 317.431Z" fill="#2871B0"/>
<path d="M199.725 272.672C199.791 273.243 200.274 273.665 200.835 273.665C200.879 273.665 200.924 273.665 200.968 273.66L253.266 267.592C253.882 267.52 254.321 266.965 254.249 266.349C254.177 265.732 253.616 265.3 253.005 265.366L200.707 271.434C200.091 271.506 199.652 272.061 199.725 272.677V272.672Z" fill="#2871B0"/>
<path d="M253.716 258.361C253.644 257.745 253.078 257.306 252.467 257.384L221.902 261.059C221.286 261.131 220.847 261.692 220.925 262.308C220.992 262.88 221.475 263.296 222.035 263.296C222.08 263.296 222.124 263.296 222.168 263.29L252.733 259.615C253.35 259.543 253.788 258.983 253.71 258.366L253.716 258.361Z" fill="#2871B0"/>
<path d="M207.068 267.985C207.129 268.562 207.618 268.99 208.184 268.99C208.223 268.99 208.262 268.99 208.306 268.984L232.26 266.453C232.876 266.386 233.32 265.837 233.259 265.221C233.193 264.604 232.637 264.155 232.027 264.221L208.073 266.753C207.457 266.819 207.013 267.369 207.074 267.985H207.068Z" fill="#2871B0"/>
<path d="M241.409 262.913L237.073 263.368C236.457 263.435 236.013 263.984 236.074 264.6C236.135 265.178 236.624 265.605 237.19 265.605C237.229 265.605 237.267 265.605 237.312 265.6L241.647 265.144C242.264 265.078 242.708 264.528 242.647 263.912C242.58 263.296 242.025 262.846 241.414 262.913H241.409Z" fill="#2871B0"/>
<path d="M221.224 289.247C221.197 288.63 220.669 288.153 220.047 288.181L185.741 289.857C185.125 289.885 184.647 290.412 184.675 291.034C184.703 291.634 185.202 292.1 185.796 292.1C185.813 292.1 185.835 292.1 185.852 292.1L220.158 290.424C220.775 290.396 221.252 289.868 221.224 289.247Z" fill="#2871B0"/>
<path d="M199.73 293.747C199.114 293.785 198.642 294.313 198.675 294.929C198.709 295.523 199.203 295.984 199.791 295.984C199.813 295.984 199.836 295.984 199.858 295.984L203.816 295.751C204.432 295.717 204.904 295.184 204.871 294.568C204.837 293.952 204.31 293.48 203.688 293.513L199.73 293.747Z" fill="#2871B0"/>
</svg>
