<svg width="293" height="364" viewBox="0 0 293 364" fill="none" xmlns="http://www.w3.org/2000/svg">
<path d="M0 14.3515C0 6.42538 6.42536 0 14.3514 0H278.418C286.344 0 292.769 6.42536 292.769 14.3514V349.457C292.769 357.384 286.344 363.809 278.418 363.809H14.3514C6.42535 363.809 0 357.384 0 349.457V14.3515Z" fill="white"/>
<path fill-rule="evenodd" clip-rule="evenodd" d="M278.418 7.17572H14.3514C10.3884 7.17572 7.17572 10.3884 7.17572 14.3515V349.457C7.17572 353.421 10.3884 356.633 14.3514 356.633H278.418C282.381 356.633 285.594 353.421 285.594 349.457V14.3514C285.594 10.3884 282.381 7.17572 278.418 7.17572ZM14.3514 0C6.42536 0 0 6.42538 0 14.3515V349.457C0 357.384 6.42535 363.809 14.3514 363.809H278.418C286.344 363.809 292.769 357.384 292.769 349.457V14.3514C292.769 6.42536 286.344 0 278.418 0H14.3514Z" fill="#FFBE20"/>
<path d="M223.166 0H271.243C283.132 0 292.77 9.63803 292.77 21.5272V69.6045H244.693C232.804 69.6045 223.166 59.9664 223.166 48.0773V0Z" fill="#FFBE20"/>
<path d="M255.4 39.262C254.46 33.627 262.323 32.2096 262.323 28.5452C262.323 26.2981 260.618 24.8115 257.418 24.8115C255.156 24.8115 253.069 25.7795 251.294 27.75L248.998 25.6412C251.225 23.1522 254.112 21.5273 257.87 21.5273C262.81 21.5273 266.22 23.9473 266.22 28.1995C266.22 33.3505 258.218 34.2147 258.948 39.262H255.4ZM254.078 45.0353C254.078 43.2031 255.434 42.0277 257.209 42.0277C258.983 42.0277 260.375 43.2031 260.375 45.0353C260.375 46.8675 258.983 48.0775 257.209 48.0775C255.434 48.0775 254.078 46.8675 254.078 45.0353Z" fill="white"/>
<path d="M67.7009 213.281C67.1912 209.469 72.3374 208.596 72.3374 206.241C72.3374 204.784 71.1723 203.959 69.2788 203.959C67.7738 203.959 66.5115 204.614 65.3948 205.877L63.4043 204.032C64.9336 202.236 67.0698 201.07 69.6672 201.07C73.1871 201.07 75.7602 202.697 75.7602 205.925C75.7602 209.494 70.4683 209.906 70.8324 213.281H67.7009ZM66.7542 217.334C66.7542 215.927 67.8223 214.956 69.2788 214.956C70.7353 214.956 71.8034 215.927 71.8034 217.334C71.8034 218.742 70.7353 219.738 69.2788 219.738C67.8223 219.738 66.7542 218.742 66.7542 217.334Z" fill="black"/>
<path d="M61.997 180.264C61.997 181.308 62.6281 181.915 63.3321 181.915C64.4245 181.915 64.8614 180.75 64.8614 179.391C64.8614 178.468 64.4002 177.91 63.7205 177.91C62.7738 177.91 61.997 178.856 61.997 180.264ZM74.717 180.022L78.0427 181.041C78.0427 182.401 78.0669 182.862 78.0184 183.857C77.8727 186.018 77.2416 187.377 74.45 188.227C73.3819 188.566 70.8573 188.736 69.2309 188.736C63.6477 188.736 63.4049 186.964 63.4049 185.289V184.78C63.2835 184.804 63.1379 184.804 63.0165 184.804C61.2687 184.804 59.4724 183.566 59.4724 180.483C59.4724 177.643 61.293 175.507 63.9147 175.507H64.0118V173.904H63.5263C62.4825 173.904 61.1716 173.832 59.5938 173.686L59.4238 170.846C60.7589 171.04 62.1669 171.186 63.3078 171.186H64.0118V170.991C64.0118 169.462 63.939 168.661 63.769 167.957H67.1432C67.0219 168.661 66.9248 169.511 66.9248 170.967C68.3084 170.773 69.7406 170.506 71.1971 170.118V173.03C69.7892 173.346 68.2842 173.565 66.9248 173.71V176.817C67.386 177.449 67.6287 178.298 67.6287 179.245C67.6287 180.774 67.2403 182.279 66.3422 183.347V184.294C66.3422 185.314 66.6092 185.848 69.4493 185.848C70.6631 185.848 72.2167 185.678 73.1391 185.411C74.3771 185.022 74.8869 184.245 74.8869 182.983C74.8869 182.036 74.8626 181.138 74.717 180.022ZM73.1877 172.181L75.2268 170.166C76.7318 171.113 79.2321 173.467 80.3245 174.754L78.1398 176.987C76.8289 175.385 74.5713 173.176 73.1877 172.181Z" fill="black"/>
<path d="M72.3626 142.387V140.857H69.2069V142.387H72.3626ZM72.3626 146.319V144.717H69.2069V146.319H72.3626ZM72.3626 150.3V148.649H69.2069V150.3H72.3626ZM66.4153 152.728V143.43C65.9783 143.892 65.5414 144.304 65.1044 144.693C64.6675 144.11 63.5994 142.945 62.9925 142.411C65.2258 140.712 67.2406 137.92 68.3573 135.031L71.2217 135.857C70.8576 136.73 70.4449 137.58 69.9837 138.43H72.751C73.1637 137.362 73.5278 136.172 73.7706 135.225L76.9506 135.832C76.5136 136.706 76.0767 137.604 75.6397 138.43H79.9364V140.857H75.13V142.387H79.281V144.717H75.13V146.319H79.1839V148.649H75.13V150.3H80.3491V152.728H66.4153ZM64.5218 139.425L62.1429 141.246C61.4632 140.056 59.8611 138.381 58.5017 137.216L60.7107 135.565C62.0701 136.658 63.7451 138.26 64.5218 139.425ZM63.8664 144.377V152.121C64.8131 153.747 66.5124 154.427 68.9884 154.524C71.9014 154.645 77.6303 154.573 80.9802 154.305C80.6404 154.985 80.2277 156.32 80.082 157.121C77.072 157.267 71.9257 157.316 68.9641 157.194C66.0754 157.073 64.1334 156.369 62.677 154.5C61.706 155.446 60.7107 156.369 59.4727 157.413L58.1133 154.548C59.06 153.941 60.1524 153.14 61.1234 152.315V147.023H58.4046V144.377H63.8664Z" fill="black"/>
<path d="M75.373 110.899C75.9556 111.772 76.8537 113.229 77.315 114.2L75.4701 115.025C74.8632 113.69 74.3534 112.743 73.5766 111.651L75.373 110.899ZM78.0918 109.782C78.6986 110.631 79.6211 112.064 80.1309 113.01L78.3102 113.884C77.6548 112.573 77.0965 111.675 76.3197 110.607L78.0918 109.782ZM59.1816 106.917C60.1526 106.893 61.0751 106.845 61.5363 106.796C63.5511 106.626 67.5322 106.262 71.9259 105.874C74.402 105.679 77.0237 105.534 78.7229 105.461L78.7472 108.568C77.4606 108.568 75.3973 108.592 74.1107 108.884C71.1977 109.66 69.0372 112.768 69.0372 115.608C69.0372 119.565 72.727 120.997 76.8052 121.191L75.6886 124.517C70.6394 124.201 65.8815 121.482 65.8815 116.263C65.8815 112.792 67.7992 110.073 69.4256 108.859C67.338 109.078 62.2888 109.612 59.4972 110.219L59.1816 106.917Z" fill="black"/>
<path d="M80.5427 86.7616L80.9554 90.1358C79.863 91.1797 78.3822 91.9565 76.4402 91.9565C74.6439 91.9565 73.4302 90.6213 73.4302 88.3152C73.4302 85.6935 74.2798 82.1737 74.2798 79.9889C74.2798 78.7995 73.6729 78.2169 72.6776 78.2169C70.8813 78.2169 68.2596 80.4259 66.3176 82.5864C66.2933 83.2661 66.2691 83.9215 66.2691 84.5283C66.2691 86.4946 66.2691 88.5094 66.4147 90.767C66.439 91.2039 66.5361 92.0778 66.5846 92.6119H63.2833C63.3318 92.1021 63.3561 91.2282 63.3561 90.8398C63.4046 88.9706 63.4046 87.587 63.4532 85.5479C62.4094 87.0772 61.2442 88.8493 60.4188 89.9902L58.5254 87.32C59.8848 85.6693 62.3123 82.465 63.6717 80.4502L63.7688 78.7752C62.6036 78.9208 60.7587 79.1636 59.3993 79.3335L59.108 76.2506C59.7877 76.2749 60.346 76.2749 61.1956 76.2263C61.8996 76.1778 62.9434 76.0564 63.963 75.9108C64.0115 75.0126 64.0601 74.3329 64.0601 74.0659C64.0601 73.3862 64.0843 72.6579 63.963 71.9297L67.4828 72.0268C67.3372 72.7065 67.143 73.9445 66.9488 75.4495L67.8469 76.5905C67.5314 77.0031 67.0216 77.7799 66.6089 78.4111C66.6089 78.581 66.5846 78.7509 66.5604 78.9208C68.4538 77.2702 71.2211 75.3524 73.5515 75.3524C76.1247 75.3524 77.3384 76.8818 77.3384 78.8966C77.3384 81.3969 76.5373 84.9167 76.5373 87.4171C76.5373 88.0482 76.8529 88.4609 77.4598 88.4609C78.3337 88.4609 79.4746 87.854 80.5427 86.7616Z" fill="black"/>
<path d="M65.396 41.8731H71.2705V38.9844H74.2078V41.8731H80.6649V44.4462H72.7999C72.2901 45.3929 71.756 46.3397 71.2705 47.1893C72.727 47.165 74.3049 47.1165 75.8585 47.0436C75.4458 46.6067 75.0331 46.1455 74.6447 45.7571L76.878 44.5676C78.4559 46.0726 80.2765 48.1603 81.0533 49.6653L78.6258 50.9762C78.4316 50.5149 78.1161 49.9809 77.7277 49.4226C73.4796 49.6896 69.0373 49.8838 65.833 50.0294L65.5417 47.3349C66.367 47.3107 67.2895 47.3107 68.309 47.2864C68.7217 46.4125 69.1829 45.3929 69.5227 44.4462H65.396V41.8731ZM65.5174 41.4604L63.8424 43.8393C62.9685 42.9897 61.0751 41.8731 59.5458 41.2177L61.1236 39.0572C62.6044 39.6398 64.5464 40.6593 65.5174 41.4604ZM64.1823 47.9175L62.5316 50.3207C61.6091 49.4954 59.6914 48.4273 58.1621 47.7719L59.6914 45.6114C61.1965 46.1455 63.2113 47.0922 64.1823 47.9175ZM63.187 51.753L65.3717 53.5493C64.158 56.1224 62.7258 58.914 61.3664 61.293L58.8418 59.4966C60.0555 57.6517 61.8033 54.5931 63.187 51.753ZM67.2652 52.9181V50.6606H69.8626V53.0152C69.8626 55.7098 69.4499 59.1082 66.1971 61.56C65.7844 60.9531 64.8134 60.0792 64.158 59.6666C66.9496 57.676 67.2652 55.0058 67.2652 52.9181ZM71.2705 60.589V50.8791H73.7951V60.589H71.2705ZM78.2617 58.9869H78.6501C78.7715 58.9869 78.8928 58.9626 78.9657 58.8898C79.0628 58.8412 79.1113 58.647 79.1599 58.2586C79.1841 57.8945 79.2084 57.0449 79.2327 55.9525C79.7182 56.3652 80.5193 56.8021 81.1747 57.0206C81.1261 58.113 81.029 59.351 80.8834 59.8608C80.7135 60.3948 80.4707 60.7104 80.0823 60.9531C79.7667 61.1473 79.1841 61.2687 78.7472 61.2687H77.5092C76.9266 61.2687 76.2712 61.0745 75.8585 60.6618C75.4701 60.2734 75.3002 59.7394 75.3002 58.113V50.6606H77.9461V58.1858C77.9461 58.5499 77.9461 58.7684 77.9947 58.8655C78.0432 58.9383 78.1646 58.9869 78.2617 58.9869Z" fill="black"/>
<path d="M121.282 270.39L119.582 272.939C118.199 271.822 115.456 270.244 113.805 269.516L115.358 267.137C117.082 267.89 120.068 269.516 121.282 270.39ZM112.227 266.7L112.3 269.492C111.207 269.783 109.727 270.099 108.125 270.317C106.984 273.692 104.92 277.867 102.978 280.61L100.041 279.129C101.983 276.774 103.876 273.23 104.945 270.633C104.532 270.657 104.119 270.657 103.707 270.657C102.711 270.657 101.74 270.633 100.696 270.584L100.478 267.768C101.522 267.89 102.808 267.938 103.682 267.938C104.386 267.938 105.114 267.914 105.843 267.866C106.183 266.53 106.45 265.074 106.498 263.836L109.824 264.176C109.63 264.953 109.338 266.166 108.998 267.453C110.164 267.259 111.28 266.992 112.227 266.7ZM112.81 280.076V279.615C112.178 279.469 111.547 279.372 110.868 279.372C109.484 279.372 108.586 279.954 108.586 280.804C108.586 281.702 109.338 282.309 110.649 282.309C112.276 282.309 112.81 281.362 112.81 280.076ZM112.421 271.652H115.456C115.383 272.672 115.431 273.667 115.456 274.735C115.48 275.415 115.528 276.58 115.601 277.77C117.665 278.547 119.364 279.76 120.578 280.853L118.975 283.426C118.126 282.649 117.033 281.678 115.723 280.877V281.095C115.723 283.329 114.509 285.076 111.086 285.076C108.1 285.076 105.746 283.741 105.746 281.095C105.746 278.741 107.712 276.92 111.062 276.92C111.62 276.92 112.178 276.969 112.688 277.017C112.615 275.221 112.494 273.109 112.421 271.652Z" fill="black"/>
<path d="M112.519 233.388C112.276 233.679 112.009 234.116 111.742 234.504C110.553 236.228 108.732 239.578 107.543 241.69C108.441 241.18 109.363 240.961 110.286 240.961C112.082 240.961 113.174 242.127 113.271 244.117C113.32 245.185 113.247 247.127 113.393 248.122C113.466 249.069 114.121 249.433 114.922 249.433C116.985 249.433 118.296 246.739 118.976 243.753L121.573 245.865C120.335 250.016 118.102 252.735 114.388 252.735C111.766 252.735 110.504 251.132 110.407 249.385C110.31 248.098 110.334 246.132 110.261 245.161C110.188 244.311 109.727 243.826 108.853 243.826C107.203 243.826 105.868 245.476 105.018 247.443C104.363 248.851 103.561 251.521 103.197 252.783L99.7988 251.642C101.571 246.836 106.644 236.738 107.907 234.456C108.222 233.8 108.659 233.023 109.096 232.004L112.519 233.388Z" fill="black"/>
<path d="M115.31 203.404L116.815 206.219C116.087 206.656 115.335 207.069 114.437 207.506C112.956 208.283 110.698 209.302 108.489 210.735C106.499 212.045 105.164 213.429 105.164 215.104C105.164 216.828 106.814 217.75 110.164 217.75C112.616 217.75 115.869 217.362 118.005 216.876L117.956 220.323C115.917 220.687 113.368 220.93 110.237 220.93C105.455 220.93 101.838 219.595 101.838 215.444C101.838 212.798 103.513 210.832 105.819 209.132C104.727 207.093 103.561 204.52 102.469 201.971L105.503 200.733C106.426 203.234 107.542 205.54 108.513 207.385C110.286 206.341 111.985 205.491 113.101 204.836C114 204.326 114.679 203.913 115.31 203.404ZM115.262 201.073L117.18 200.296C117.786 201.17 118.66 202.724 119.122 203.622L117.155 204.447C116.67 203.452 115.917 202.02 115.262 201.073ZM118.126 199.981L120.068 199.18C120.699 200.102 121.598 201.656 122.01 202.505L120.093 203.331C119.583 202.311 118.806 200.903 118.126 199.981Z" fill="black"/>
<path d="M101.96 168.684L105.31 168.975C105.116 169.46 104.824 170.674 104.727 171.111C104.363 172.713 103.586 178.005 103.586 180.408C103.586 180.894 103.611 181.476 103.683 181.962C103.999 181.112 104.387 180.311 104.751 179.51L106.232 180.7C105.553 182.666 104.776 185.118 104.509 186.429C104.436 186.768 104.363 187.278 104.387 187.545C104.387 187.788 104.387 188.201 104.412 188.54L101.693 188.735C101.207 187.06 100.746 184.317 100.746 181.064C100.746 177.423 101.45 172.883 101.741 171.038C101.838 170.359 101.96 169.436 101.96 168.684ZM114.097 183.613V183.2C113.466 183.03 112.811 182.933 112.155 182.933C110.796 182.933 109.873 183.491 109.873 184.389C109.873 185.36 110.844 185.797 112.107 185.797C113.587 185.797 114.097 185.021 114.097 183.613ZM121.695 184.584L120.069 187.108C119.074 186.162 118.103 185.36 117.156 184.705C117.01 186.987 115.699 188.638 112.447 188.638C109.145 188.638 107.058 187.23 107.058 184.705C107.058 182.253 109.121 180.578 112.398 180.578C112.956 180.578 113.49 180.603 113.976 180.675C113.903 179.195 113.83 177.447 113.806 175.748C113.223 175.772 112.641 175.772 112.082 175.772C110.675 175.772 109.315 175.723 107.883 175.626V172.762C109.267 172.907 110.65 172.98 112.082 172.98C112.641 172.98 113.223 172.98 113.782 172.956C113.757 171.767 113.757 170.796 113.733 170.286C113.733 169.922 113.66 169.193 113.587 168.708H117.035C116.962 169.169 116.913 169.752 116.889 170.261C116.865 170.796 116.816 171.694 116.816 172.762C118.127 172.616 119.389 172.446 120.53 172.203V175.189C119.365 175.359 118.103 175.505 116.792 175.602C116.84 177.932 116.962 179.85 117.059 181.476C119.074 182.302 120.579 183.54 121.695 184.584Z" fill="black"/>
<path d="M118.127 144.938H114.583C115.068 146.637 115.675 148.215 116.476 149.671C117.18 148.239 117.763 146.637 118.127 144.938ZM119.486 142.243L121.282 142.777C120.748 146.588 119.729 149.744 118.248 152.293C119.365 153.604 120.651 154.672 122.181 155.424C121.525 155.958 120.651 157.051 120.214 157.779C118.806 156.978 117.617 155.934 116.573 154.696C115.578 155.886 114.437 156.881 113.15 157.706C112.786 157.002 111.937 155.91 111.33 155.376C112.665 154.623 113.854 153.555 114.874 152.22C113.927 150.569 113.175 148.7 112.568 146.661C112.374 150.351 111.791 154.648 110.237 157.682C109.752 157.245 108.635 156.614 107.955 156.323V157.682H105.334V149.259H103.028C102.809 152.366 102.227 155.497 100.77 157.779C100.333 157.245 99.4107 156.42 98.8281 156.031C100.406 153.118 100.6 148.506 100.6 145.01V135.713H103.149V141.466H104.897V135.082H107.494V141.466H109.193V144.015H103.149V145.035C103.149 145.569 103.149 146.151 103.125 146.71H107.955V156.104C109.825 152.317 109.97 146.977 109.97 143.19V136.126H121.258V138.723H112.641V142.316H119.001L119.486 142.243Z" fill="black"/>
<path d="M117.253 115.462H120.263V125.73H117.253V124.346H103.804V125.754H100.867V115.462H103.804V121.506H108.878V114.175H101.838V105.363H104.703V111.359H108.878V103.324H111.839V111.359H116.257V105.363H119.292V114.175H111.839V121.506H117.253V115.462Z" fill="black"/>
<path d="M113.49 77.3935H107.688C108.028 78.0246 108.343 78.7286 108.513 79.2627L108.101 79.3355H112.64C112.931 78.7529 113.223 78.0489 113.49 77.3935ZM121.33 88.2201H114.291C116.354 89.4824 119.17 90.4291 121.986 90.8661C121.33 91.4972 120.481 92.7109 120.044 93.4877C117.058 92.7352 114.121 91.2787 111.887 89.3853V93.7548H109.047V89.5309C106.79 91.303 103.804 92.7109 100.915 93.4635C100.503 92.7595 99.6772 91.6428 99.0703 91.0602C101.789 90.5019 104.654 89.4824 106.741 88.2201H99.7743V85.8412H109.047V84.7731H102.056V82.6854H109.047V81.593H100.842V79.3355H105.455C105.26 78.7286 104.945 78.0004 104.629 77.442L104.921 77.3935H99.8471V75.0388H103.1C102.76 74.1164 102.129 72.9512 101.595 72.0288L104.071 71.1791C104.775 72.223 105.576 73.6552 105.916 74.6019L104.726 75.0388H106.935V71.082H109.63V75.0388H111.426V71.082H114.145V75.0388H116.305L115.432 74.7718C116.014 73.7765 116.621 72.3201 116.961 71.252L119.995 71.9802C119.316 73.0968 118.66 74.1892 118.102 75.0388H121.258V77.3935H116.694C116.305 78.0975 115.917 78.7529 115.553 79.3355H120.311V81.593H111.887V82.6854H119.17V84.7731H111.887V85.8412H121.33V88.2201Z" fill="black"/>
<path d="M108.78 38.9844H111.742C114.363 42.8198 118.344 46.1212 122.228 47.7962C121.5 48.5487 120.845 49.4954 120.286 50.3936C116.524 48.3059 112.47 44.8103 110.382 41.8245C108.416 44.7861 104.678 48.1603 100.672 50.4178C100.308 49.7624 99.4827 48.6943 98.8516 48.0875C103.051 45.927 106.959 42.0673 108.78 38.9844ZM112.154 53.6221V58.4771H120.845V61.0988H100.187V58.4771H102.833V50.0537H105.673V58.4771H109.12V45.8784H112.154V51.0733H118.66V53.6221H112.154Z" fill="black"/>
<path d="M259.031 324.316H255.559V298.948H259.031C259.723 298.948 260.291 298.386 260.291 297.688C260.291 296.99 259.729 296.428 259.031 296.428H243.83C246.302 294.577 247.876 291.844 247.876 288.792V282.735C247.876 277.164 242.653 272.633 236.235 272.633H227.73V255.853C227.73 255.161 227.168 254.593 226.47 254.593C225.772 254.593 225.21 255.155 225.21 255.853V259.378C225.062 258.952 224.66 258.645 224.187 258.645H193.643C193.04 258.645 192.555 259.136 192.555 259.733C192.555 260.33 193.046 260.821 193.643 260.821H224.187C224.66 260.821 225.062 260.514 225.21 260.088V272.627H221.336C221.141 272.627 220.964 272.674 220.798 272.751H171.043C166.01 272.751 161.917 269.427 161.917 265.34V259.408C161.917 255.321 166.01 251.997 171.043 251.997H172.557C172.711 251.997 172.859 251.967 172.995 251.914C173.131 251.967 173.279 251.997 173.439 251.997H223.3C228.422 251.997 232.586 248.43 232.586 244.041V238.197C232.586 233.809 228.422 230.242 223.3 230.242H173.439C172.747 230.242 172.179 230.804 172.179 231.502C172.179 232.2 172.741 232.762 173.439 232.762H223.3C227.032 232.762 230.072 235.205 230.072 238.203V244.047C230.072 247.046 227.038 249.489 223.3 249.489H176.822V244.71C176.946 244.757 177.076 244.786 177.212 244.786H197.257C197.861 244.786 198.346 244.296 198.346 243.698C198.346 243.101 197.855 242.61 197.257 242.61H177.212C177.076 242.61 176.946 242.639 176.822 242.687V238.842H208.59C209.193 238.842 209.678 238.351 209.678 237.754C209.678 237.157 209.187 236.666 208.59 236.666H176.822V235.163C176.822 234.471 176.26 233.903 175.562 233.903C174.864 233.903 174.302 234.465 174.302 235.163V249.506H173.439C173.285 249.506 173.137 249.536 173.001 249.589C172.865 249.536 172.717 249.506 172.557 249.506H171.043C164.626 249.506 159.403 253.96 159.403 259.431V265.364C159.403 270.835 164.626 275.289 171.043 275.289H222.377C222.572 275.289 222.75 275.241 222.915 275.165H234.118C234.224 275.312 234.36 275.437 234.532 275.531C236.022 276.33 237.205 278.358 237.619 280.819C238.211 284.309 238.169 289.845 237.075 292.708C236.436 294.376 235.407 295.6 234.242 296.085C234.047 296.168 233.887 296.298 233.757 296.446H167.932V292.169H199.18C199.783 292.169 200.268 291.678 200.268 291.081C200.268 290.484 199.777 289.993 199.18 289.993H167.932V283.853H218.876C219.479 283.853 219.964 283.362 219.964 282.765C219.964 282.168 219.473 281.677 218.876 281.677H167.932V279.263C167.932 278.571 167.37 278.004 166.672 278.004C165.974 278.004 165.412 278.565 165.412 279.263V296.452H158.025C151.607 296.452 146.385 301.674 146.385 308.092V315.201C146.385 321.619 151.607 326.841 158.025 326.841H259.031C259.723 326.841 260.291 326.28 260.291 325.582C260.291 324.884 259.729 324.322 259.031 324.322V324.316ZM253.045 306.619C253.045 306.619 252.992 306.613 252.962 306.613H222.377C221.774 306.613 221.289 307.104 221.289 307.701C221.289 308.299 221.78 308.79 222.377 308.79H252.962C252.962 308.79 253.015 308.784 253.045 308.784V315.905H193.176C192.573 315.905 192.088 316.396 192.088 316.993C192.088 317.591 192.579 318.082 193.176 318.082H253.045V324.31H161.414C161.29 324.091 161.107 323.902 160.858 323.784C159.699 323.228 158.628 321.737 157.984 319.785C156.872 316.408 156.824 309.908 157.422 305.815C157.848 302.881 159.06 300.474 160.58 299.527C160.811 299.385 160.976 299.178 161.071 298.942H253.039V306.613L253.045 306.619ZM240.104 280.387C239.766 278.4 239.021 276.637 237.998 275.301C242.191 275.987 245.362 279.062 245.362 282.741V288.798C245.362 292.501 242.15 295.588 237.927 296.251C238.53 295.493 239.045 294.6 239.429 293.595C240.736 290.164 240.754 284.232 240.104 280.387ZM148.899 315.184V308.074C148.899 303.212 152.719 299.237 157.522 298.971C156.245 300.556 155.322 302.828 154.937 305.454C154.287 309.925 154.352 316.804 155.6 320.578C156.091 322.062 156.771 323.316 157.593 324.292C152.767 324.062 148.904 320.069 148.904 315.184H148.899Z" fill="#FFBE20"/>
<path d="M180.235 308.79H215.818C216.421 308.79 216.906 308.299 216.906 307.702C216.906 307.104 216.415 306.613 215.818 306.613H180.235C179.631 306.613 179.146 307.104 179.146 307.702C179.146 308.299 179.637 308.79 180.235 308.79Z" fill="#FFBE20"/>
<path d="M165.288 308.79H173.184C173.787 308.79 174.272 308.299 174.272 307.702C174.272 307.104 173.781 306.613 173.184 306.613H165.288C164.684 306.613 164.199 307.104 164.199 307.702C164.199 308.299 164.69 308.79 165.288 308.79Z" fill="#FFBE20"/>
<path d="M178.407 318.087H185.404C186.007 318.087 186.492 317.596 186.492 316.998C186.492 316.401 186.001 315.91 185.404 315.91H178.407C177.803 315.91 177.318 316.401 177.318 316.998C177.318 317.596 177.809 318.087 178.407 318.087Z" fill="#FFBE20"/>
<path d="M233.455 283.833C234.059 283.833 234.544 283.342 234.544 282.745C234.544 282.147 234.053 281.656 233.455 281.656H224.707C224.104 281.656 223.619 282.147 223.619 282.745C223.619 283.342 224.11 283.833 224.707 283.833H233.455Z" fill="#FFBE20"/>
<path d="M206.141 289.977C205.538 289.977 205.053 290.467 205.053 291.065C205.053 291.662 205.544 292.153 206.141 292.153H211.807C212.411 292.153 212.896 291.662 212.896 291.065C212.896 290.467 212.405 289.977 211.807 289.977H206.141Z" fill="#FFBE20"/>
<path d="M178.029 266.67C178.029 267.274 178.52 267.759 179.118 267.759H220.976C221.579 267.759 222.064 267.268 222.064 266.67C222.064 266.073 221.573 265.582 220.976 265.582H179.118C178.514 265.582 178.029 266.073 178.029 266.67Z" fill="#FFBE20"/>
<path d="M185.972 258.484H179.572C178.88 258.484 178.312 259.046 178.312 259.744C178.312 260.442 178.874 261.004 179.572 261.004H185.972C186.664 261.004 187.232 260.442 187.232 259.744C187.232 259.046 186.67 258.484 185.972 258.484Z" fill="#FFBE20"/>
<path d="M202.569 242.578C201.965 242.578 201.48 243.069 201.48 243.666C201.48 244.264 201.971 244.755 202.569 244.755H204.669C205.272 244.755 205.757 244.264 205.757 243.666C205.757 243.069 205.266 242.578 204.669 242.578H202.569Z" fill="#FFBE20"/>
</svg>
