<svg width="293" height="364" viewBox="0 0 293 364" fill="none" xmlns="http://www.w3.org/2000/svg">
<path d="M0 14.3515C0 6.42538 6.42536 0 14.3514 0H278.418C286.344 0 292.769 6.42536 292.769 14.3514V349.457C292.769 357.384 286.344 363.809 278.418 363.809H14.3514C6.42535 363.809 0 357.384 0 349.457V14.3515Z" fill="white"/>
<path fill-rule="evenodd" clip-rule="evenodd" d="M278.418 7.17572H14.3514C10.3884 7.17572 7.17572 10.3884 7.17572 14.3515V349.457C7.17572 353.421 10.3884 356.633 14.3514 356.633H278.418C282.381 356.633 285.594 353.421 285.594 349.457V14.3514C285.594 10.3884 282.381 7.17572 278.418 7.17572ZM14.3514 0C6.42536 0 0 6.42538 0 14.3515V349.457C0 357.384 6.42535 363.809 14.3514 363.809H278.418C286.344 363.809 292.769 357.384 292.769 349.457V14.3514C292.769 6.42536 286.344 0 278.418 0H14.3514Z" fill="#2871B0"/>
<path d="M223.166 0H271.243C283.132 0 292.77 9.63803 292.77 21.5272V69.6045H244.693C232.804 69.6045 223.166 59.9664 223.166 48.0773V0Z" fill="#2871B0"/>
<path d="M255.402 39.262C254.462 33.627 262.325 32.2096 262.325 28.5452C262.325 26.2981 260.62 24.8115 257.42 24.8115C255.158 24.8115 253.071 25.7795 251.296 27.75L249 25.6412C251.227 23.1522 254.114 21.5273 257.872 21.5273C262.812 21.5273 266.222 23.9473 266.222 28.1995C266.222 33.3505 258.22 34.2147 258.95 39.262H255.402ZM254.08 45.0353C254.08 43.2031 255.436 42.0277 257.211 42.0277C258.985 42.0277 260.377 43.2031 260.377 45.0353C260.377 46.8675 258.985 48.0775 257.211 48.0775C255.436 48.0775 254.08 46.8675 254.08 45.0353Z" fill="white"/>
<path d="M80.3025 309.21C79.7927 305.399 84.939 304.525 84.939 302.171C84.939 300.714 83.7738 299.889 81.8804 299.889C80.3753 299.889 79.113 300.544 77.9964 301.806L76.0059 299.962C77.5352 298.165 79.6714 297 82.2688 297C85.7886 297 88.3618 298.626 88.3618 301.855C88.3618 305.423 83.0698 305.836 83.434 309.21H80.3025ZM79.3558 313.264C79.3558 311.856 80.4239 310.885 81.8804 310.885C83.3369 310.885 84.405 311.856 84.405 313.264C84.405 314.672 83.3369 315.667 81.8804 315.667C80.4239 315.667 79.3558 314.672 79.3558 313.264Z" fill="black"/>
<path d="M81.9298 281.992C82.4396 281.992 82.9008 281.968 83.3378 281.92C83.1921 280.366 82.2939 279.346 80.9831 279.346C80.0849 279.346 79.5023 279.88 79.5023 280.487C79.5023 281.386 80.5219 281.992 81.9298 281.992ZM87.2217 264.66L88.7753 266.796C88.1927 267.16 87.6344 267.525 87.1004 267.889C85.8138 268.787 83.2892 270.923 81.7842 272.137C82.5852 271.918 83.2649 271.87 84.0417 271.87C88.1199 271.87 91.2271 274.419 91.2271 277.914C91.2271 281.701 88.3384 284.711 82.5367 284.711C79.1868 284.711 76.6622 283.182 76.6622 280.779C76.6622 278.837 78.4342 277.04 80.9831 277.04C83.9446 277.04 85.741 278.861 86.1051 281.143C87.4159 280.439 88.0714 279.322 88.0714 277.866C88.0714 275.705 85.8866 274.249 83.095 274.249C79.4052 274.249 77.002 276.215 74.4289 279.128L72.2441 276.87C73.9434 275.487 76.8321 273.035 78.2643 271.87C79.5994 270.753 82.0997 268.738 83.2892 267.695C82.0512 267.719 78.7498 267.864 77.4875 267.962C76.8321 267.986 76.0796 268.059 75.5212 268.156L75.4241 265.024C76.1038 265.097 76.9292 265.146 77.6089 265.146C78.8712 265.146 84.0175 265.024 85.3768 264.903C86.3721 264.83 86.9304 264.733 87.2217 264.66Z" fill="black"/>
<path d="M80.8612 241.883V241.932C80.8612 243.413 80.9583 244.723 81.1282 245.913C82.2934 244.748 83.3615 243.291 84.1625 241.349C82.9002 241.373 81.7836 241.592 80.8612 241.883ZM76.2732 248.729C76.9529 248.729 77.7783 248.462 78.6764 247.952C78.4094 246.447 78.2152 244.796 78.1666 243.146C76.3703 244.359 75.1566 246.204 75.1566 247.564C75.1566 248.316 75.4964 248.729 76.2732 248.729ZM85.1821 237.465L88.1436 238.145C88.0222 238.412 87.8523 238.922 87.7067 239.383C90.4983 240.305 92.3432 242.466 92.3432 245.282C92.3432 248.656 90.3284 251.982 84.4296 252.855L82.8274 250.331C87.4639 249.821 89.3574 247.491 89.3574 245.136C89.3574 243.68 88.5077 242.393 86.8813 241.762C85.5462 245.039 83.6285 247.539 81.8079 249.044C81.9778 249.675 82.172 250.258 82.3662 250.841L79.5989 251.666C79.5018 251.375 79.3804 251.035 79.2833 250.695C78.1181 251.278 76.8315 251.666 75.5692 251.666C73.7972 251.666 72.3164 250.598 72.3164 248.146C72.3164 245.088 74.8653 241.835 78.2152 240.257C78.288 239.237 78.3608 238.218 78.4579 237.247H77.6812C76.4189 237.247 74.5497 237.15 73.4331 237.101L73.336 234.309C74.1856 234.431 76.2975 234.625 77.7783 234.625H78.7007L78.8463 233.338C78.8949 232.902 78.9434 232.319 78.9192 231.906L82.0749 231.979C81.905 232.465 81.8079 232.902 81.7351 233.266C81.638 233.654 81.5651 234.091 81.4923 234.552C84.4053 234.455 87.0027 234.164 89.6487 233.533L89.6729 236.3C87.3183 236.737 84.0897 237.028 81.1282 237.174C81.0554 237.878 80.9825 238.606 80.9583 239.334C82.0992 239.067 83.3615 238.897 84.5509 238.897H84.9636C85.0607 238.412 85.1578 237.805 85.1821 237.465Z" fill="black"/>
<path d="M93.7988 201.727L91.8811 202.577C91.3714 201.557 90.5946 200.125 89.9149 199.227L91.8326 198.426C92.488 199.348 93.3862 200.878 93.7988 201.727ZM77.4861 200.149L81.0545 200.513C80.9089 201.145 80.7632 201.897 80.6419 202.504C80.4962 203.232 80.302 204.106 80.1321 204.98C80.9332 204.931 81.6614 204.883 82.1469 204.883C84.6958 204.883 86.4921 206.024 86.4921 209.471C86.4921 212.311 86.1523 216.146 85.1327 218.234C84.3316 219.909 83.0208 220.443 81.1759 220.443C80.2777 220.443 79.1125 220.297 78.3115 220.103L77.7774 216.923C78.6999 217.19 80.1078 217.433 80.739 217.433C81.54 217.433 82.1469 217.19 82.5353 216.389C83.1907 215.054 83.5063 212.19 83.5063 209.811C83.5063 207.893 82.681 207.626 81.1759 207.626C80.7875 207.626 80.2049 207.675 79.5252 207.723C78.5785 211.364 76.8307 217.02 74.6217 220.564L71.4902 219.302C73.8206 216.146 75.4713 211.34 76.3209 208.063C75.4713 208.16 74.7188 208.257 74.2576 208.33C73.5779 208.403 72.3399 208.573 71.5873 208.694L71.3203 205.441C72.1942 205.514 72.9953 205.465 73.8692 205.441C74.6217 205.417 75.7626 205.344 76.9764 205.247C77.3162 203.402 77.5104 201.654 77.4861 200.149ZM90.9101 202.844L89.6721 203.378C91.0801 205.587 92.8764 209.641 93.5804 211.753L90.5217 213.185C89.8906 210.515 88.1913 206.267 86.4678 204.13L88.7011 203.184C88.2156 202.261 87.6088 201.096 87.0504 200.319L88.9681 199.518C89.575 200.416 90.4246 201.946 90.9101 202.844Z" fill="black"/>
<path d="M76.7587 175.748H80.667V174.194H76.7587V175.748ZM76.7587 170.407V171.961H80.667V170.407H76.7587ZM87.5853 171.961V170.407H83.7256V171.961H87.5853ZM87.5853 175.748V174.194H83.7256V175.748H87.5853ZM92.9986 182.229H85.8375C87.9737 183.952 90.9353 185.506 93.7026 186.307C93.0472 186.89 92.1733 188.031 91.7606 188.759C88.9447 187.691 85.9832 185.797 83.7256 183.588V189.56H80.667V183.71C78.4337 185.943 75.4722 187.836 72.5835 188.905C72.1465 188.225 71.2726 187.108 70.6172 186.501C73.5059 185.652 76.516 184.05 78.5551 182.229H71.3697V179.583H80.667V178.151H73.7244V168.004H90.7653V178.151H83.7256V179.583H92.9986V182.229Z" fill="black"/>
<path d="M73.822 141.028L76.4923 141.708C75.6912 143.795 74.3075 145.907 72.8996 147.242C72.4141 146.781 71.346 145.932 70.7148 145.519C72.0257 144.451 73.1666 142.727 73.822 141.028ZM82.1726 152.437L80.352 154.792C79.8422 154.039 79.0411 153.141 78.143 152.243C76.6865 154.403 74.8658 156.175 72.7539 157.511C72.3655 156.904 71.3945 155.739 70.8119 155.204C72.9724 154.039 74.7202 152.364 76.0553 150.277C75.1329 149.451 74.1861 148.675 73.3123 147.995L74.9387 145.98C75.7155 146.538 76.5408 147.17 77.3662 147.825C77.7546 146.951 78.0701 146.004 78.3372 145.033L80.7404 145.543C80.2063 144.354 79.2839 142.946 78.41 141.829L80.6433 140.712C81.7842 142.048 83.0465 143.892 83.5077 145.155L81.1045 146.441L81.0074 146.174C80.619 147.437 80.1335 148.626 79.5752 149.718C80.6433 150.689 81.5657 151.636 82.1726 152.437ZM88.1685 140.203H93.1448C93.1448 140.203 93.1448 141.125 93.1205 141.489C92.9263 151.466 92.7322 155.01 91.9554 156.103C91.397 156.904 90.8387 157.171 90.0376 157.292C89.2851 157.438 88.1442 157.414 86.9547 157.389C86.9062 156.588 86.5906 155.472 86.1294 154.695C87.2218 154.768 88.217 154.792 88.6782 154.792C89.0424 154.792 89.2851 154.719 89.5279 154.379C90.0376 153.724 90.2561 150.762 90.4018 142.946H88.0714C87.7558 149.184 86.712 154.282 83.0465 157.632C82.6095 156.952 81.6628 155.981 81.0074 155.52C84.2359 152.68 85.1098 148.383 85.3526 142.946H83.0708V140.494H71.4188V137.921H75.9825V135.008H78.7984V137.921H83.2407V140.203H85.4254C85.4497 138.625 85.4497 136.95 85.4497 135.202H88.217C88.217 136.926 88.1927 138.6 88.1685 140.203Z" fill="black"/>
<path d="M92.9261 110.195L91.2268 112.744C89.8431 111.627 87.1001 110.049 85.4494 109.321L87.003 106.942C88.7265 107.695 91.7123 109.321 92.9261 110.195ZM83.8715 106.505L83.9444 109.297C82.852 109.588 81.3712 109.904 79.7691 110.122C78.6282 113.496 76.5648 117.672 74.6228 120.415L71.6855 118.934C73.6275 116.579 75.521 113.035 76.5891 110.438C76.1764 110.462 75.7637 110.462 75.3511 110.462C74.3558 110.462 73.3848 110.438 72.341 110.389L72.1225 107.573C73.1663 107.695 74.4529 107.743 75.3268 107.743C76.0307 107.743 76.759 107.719 77.4872 107.67C77.8271 106.335 78.0941 104.879 78.1427 103.641L81.4683 103.98C81.2741 104.757 80.9828 105.971 80.643 107.258C81.8082 107.063 82.9248 106.796 83.8715 106.505ZM84.4541 119.881V119.419C83.823 119.274 83.1918 119.177 82.5121 119.177C81.1285 119.177 80.2303 119.759 80.2303 120.609C80.2303 121.507 80.9828 122.114 82.2937 122.114C83.9201 122.114 84.4541 121.167 84.4541 119.881ZM84.0657 111.457H87.1001C87.0273 112.477 87.0758 113.472 87.1001 114.54C87.1244 115.22 87.1729 116.385 87.2457 117.574C89.3091 118.351 91.0083 119.565 92.2221 120.657L90.6199 123.23C89.7703 122.454 88.678 121.483 87.3671 120.682V120.9C87.3671 123.133 86.1534 124.881 82.7306 124.881C79.7448 124.881 77.3901 123.546 77.3901 120.9C77.3901 118.545 79.3564 116.725 82.7063 116.725C83.2647 116.725 83.823 116.773 84.3328 116.822C84.2599 115.026 84.1386 112.914 84.0657 111.457Z" fill="black"/>
<path d="M84.1634 73.1923C83.9206 73.4836 83.6536 73.9205 83.3866 74.3089C82.1971 76.0324 80.3765 79.3823 79.187 81.4943C80.0852 80.9845 81.0077 80.766 81.9301 80.766C83.7264 80.766 84.8188 81.9312 84.9159 83.9218C84.9645 84.9898 84.8916 86.9318 85.0373 87.9271C85.1101 88.8738 85.7655 89.2379 86.5666 89.2379C88.63 89.2379 89.9408 86.5434 90.6205 83.5576L93.2179 85.6695C91.9799 89.8205 89.7466 92.5393 86.0326 92.5393C83.4109 92.5393 82.1486 90.9372 82.0515 89.1894C81.9544 87.9028 81.9787 85.9366 81.9058 84.9656C81.833 84.1159 81.3718 83.6305 80.4979 83.6305C78.8472 83.6305 77.5121 85.2811 76.6625 87.2474C76.007 88.6554 75.206 91.3256 74.8418 92.5879L71.4434 91.447C73.2154 86.6405 78.2889 76.5422 79.5512 74.2604C79.8667 73.6049 80.3037 72.8281 80.7406 71.8086L84.1634 73.1923Z" fill="black"/>
<path d="M86.955 43.2082L88.46 46.0241C87.7318 46.461 86.9792 46.8737 86.0811 47.3107C84.6003 48.0875 82.3427 49.107 80.1337 50.5392C78.1432 51.8501 76.8081 53.2337 76.8081 54.9087C76.8081 56.6322 78.4588 57.5546 81.8087 57.5546C84.2605 57.5546 87.5133 57.1663 89.6495 56.6808L89.6009 60.1278C87.5618 60.4919 85.013 60.7347 81.8815 60.7347C77.0994 60.7347 73.4824 59.3995 73.4824 55.2485C73.4824 52.6026 75.1574 50.6363 77.4635 48.9371C76.3711 46.898 75.2059 44.3248 74.1136 41.776L77.1479 40.538C78.0704 43.0383 79.187 45.3444 80.158 47.1893C81.9301 46.1455 83.6293 45.2958 84.746 44.6404C85.6441 44.1306 86.3238 43.718 86.955 43.2082ZM86.9064 40.8778L88.8241 40.101C89.431 40.9749 90.3049 42.5285 90.7661 43.4267L88.7999 44.252C88.3144 43.2568 87.5618 41.8245 86.9064 40.8778ZM89.7709 39.7854L91.7128 38.9844C92.344 39.9068 93.2422 41.4604 93.6548 42.31L91.7371 43.1354C91.2274 42.1158 90.4506 40.7079 89.7709 39.7854Z" fill="black"/>
<path d="M114.587 168.684L117.937 168.975C117.743 169.46 117.451 170.674 117.354 171.111C116.99 172.713 116.213 178.005 116.213 180.408C116.213 180.894 116.237 181.476 116.31 181.962C116.626 181.112 117.014 180.311 117.378 179.51L118.859 180.7C118.179 182.666 117.403 185.118 117.136 186.429C117.063 186.768 116.99 187.278 117.014 187.545C117.014 187.788 117.014 188.201 117.039 188.54L114.32 188.735C113.834 187.06 113.373 184.317 113.373 181.064C113.373 177.423 114.077 172.883 114.368 171.038C114.465 170.359 114.587 169.436 114.587 168.684ZM126.724 183.613V183.2C126.093 183.03 125.438 182.933 124.782 182.933C123.423 182.933 122.5 183.491 122.5 184.389C122.5 185.36 123.471 185.797 124.734 185.797C126.214 185.797 126.724 185.021 126.724 183.613ZM134.322 184.584L132.696 187.108C131.701 186.162 130.73 185.36 129.783 184.705C129.637 186.987 128.326 188.638 125.074 188.638C121.772 188.638 119.685 187.23 119.685 184.705C119.685 182.253 121.748 180.578 125.025 180.578C125.583 180.578 126.117 180.603 126.603 180.675C126.53 179.195 126.457 177.447 126.433 175.748C125.85 175.772 125.268 175.772 124.709 175.772C123.301 175.772 121.942 175.723 120.51 175.626V172.762C121.894 172.907 123.277 172.98 124.709 172.98C125.268 172.98 125.85 172.98 126.409 172.956C126.384 171.767 126.384 170.796 126.36 170.286C126.36 169.922 126.287 169.193 126.214 168.708H129.661C129.589 169.169 129.54 169.752 129.516 170.261C129.492 170.796 129.443 171.694 129.443 172.762C130.754 172.616 132.016 172.446 133.157 172.203V175.189C131.992 175.359 130.73 175.505 129.419 175.602C129.467 177.932 129.589 179.85 129.686 181.476C131.701 182.302 133.206 183.54 134.322 184.584Z" fill="black"/>
<path d="M130.754 144.938H127.209C127.695 146.637 128.302 148.215 129.103 149.671C129.807 148.239 130.389 146.637 130.754 144.938ZM132.113 142.243L133.909 142.777C133.375 146.588 132.356 149.744 130.875 152.293C131.992 153.604 133.278 154.672 134.808 155.424C134.152 155.958 133.278 157.051 132.841 157.779C131.433 156.978 130.244 155.934 129.2 154.696C128.205 155.886 127.064 156.881 125.777 157.706C125.413 157.002 124.564 155.91 123.957 155.376C125.292 154.623 126.481 153.555 127.501 152.22C126.554 150.569 125.802 148.7 125.195 146.661C125 150.351 124.418 154.648 122.864 157.682C122.379 157.245 121.262 156.614 120.582 156.323V157.682H117.961V149.259H115.655C115.436 152.366 114.854 155.497 113.397 157.779C112.96 157.245 112.038 156.42 111.455 156.031C113.033 153.118 113.227 148.506 113.227 145.01V135.713H115.776V141.466H117.524V135.082H120.121V141.466H121.82V144.015H115.776V145.035C115.776 145.569 115.776 146.151 115.752 146.71H120.582V156.104C122.452 152.317 122.597 146.977 122.597 143.19V136.126H133.885V138.723H125.267V142.316H131.627L132.113 142.243Z" fill="black"/>
<path d="M129.88 115.462H132.89V125.73H129.88V124.346H116.431V125.754H113.494V115.462H116.431V121.506H121.505V114.175H114.465V105.363H117.33V111.359H121.505V103.324H124.466V111.359H128.884V105.363H131.919V114.175H124.466V121.506H129.88V115.462Z" fill="black"/>
<path d="M126.117 77.3935H120.315C120.655 78.0246 120.97 78.7286 121.14 79.2627L120.728 79.3355H125.267C125.558 78.7529 125.85 78.0489 126.117 77.3935ZM133.957 88.2201H126.918C128.981 89.4824 131.797 90.4291 134.613 90.8661C133.957 91.4972 133.108 92.7109 132.671 93.4877C129.685 92.7352 126.748 91.2787 124.514 89.3853V93.7548H121.674V89.5309C119.417 91.303 116.431 92.7109 113.542 93.4635C113.129 92.7595 112.304 91.6428 111.697 91.0602C114.416 90.5019 117.28 89.4824 119.368 88.2201H112.401V85.8412H121.674V84.7731H114.683V82.6854H121.674V81.593H113.469V79.3355H118.082C117.887 78.7286 117.572 78.0004 117.256 77.442L117.548 77.3935H112.474V75.0388H115.727C115.387 74.1164 114.756 72.9512 114.222 72.0288L116.698 71.1791C117.402 72.223 118.203 73.6552 118.543 74.6019L117.353 75.0388H119.562V71.082H122.257V75.0388H124.053V71.082H126.772V75.0388H128.932L128.059 74.7718C128.641 73.7765 129.248 72.3201 129.588 71.252L132.622 71.9802C131.943 73.0968 131.287 74.1892 130.729 75.0388H133.884V77.3935H129.321C128.932 78.0975 128.544 78.7529 128.18 79.3355H132.938V81.593H124.514V82.6854H131.797V84.7731H124.514V85.8412H133.957V88.2201Z" fill="black"/>
<path d="M121.407 38.9844H124.368C126.99 42.8198 130.971 46.1212 134.855 47.7962C134.127 48.5487 133.472 49.4954 132.913 50.3936C129.151 48.3059 125.097 44.8103 123.009 41.8245C121.043 44.7861 117.304 48.1603 113.299 50.4178C112.935 49.7624 112.11 48.6943 111.479 48.0875C115.678 45.927 119.586 42.0673 121.407 38.9844ZM124.781 53.6221V58.4771H133.472V61.0988H112.814V58.4771H115.46V50.0537H118.3V58.4771H121.747V45.8784H124.781V51.0733H131.287V53.6221H124.781Z" fill="black"/>
<path d="M263.575 318.618C263.564 318.33 263.442 318.058 263.236 317.852L261.415 316.076V307.816C261.554 307.583 261.615 307.305 261.554 307.022C261.526 306.894 261.476 306.778 261.415 306.667V303.552L262.648 302.858C263.025 302.647 263.247 302.242 263.22 301.809L263.02 298.628C263.009 298.484 262.97 298.351 262.909 298.223C262.881 297.94 262.748 297.668 262.515 297.474L246.605 284.123C246.133 283.723 245.422 283.784 245.023 284.262C244.623 284.734 244.69 285.444 245.161 285.844L259.628 297.979L243.857 300.904C243.663 300.532 243.268 300.288 242.819 300.299L175.283 303.064L164.596 282.613L165.34 267.575L173.101 281.397C173.301 281.758 173.678 281.958 174.061 281.964C173.978 282.119 173.928 282.291 173.928 282.48V298.856C173.928 299.478 174.433 299.977 175.049 299.977C175.666 299.977 176.171 299.478 176.171 298.856V283.557L243.818 278.888L244.018 281.453C243.818 281.314 243.574 281.242 243.318 281.259L182.516 285.328C180.212 285.494 178.563 287.404 178.586 289.857L178.636 294.976C178.652 296.552 179.346 298.09 180.545 299.189C181.544 300.105 182.755 300.599 183.981 300.599C184.092 300.599 184.209 300.599 184.32 300.588C184.936 300.544 185.402 300.005 185.352 299.389C185.308 298.773 184.775 298.306 184.153 298.356C183.443 298.406 182.682 298.112 182.061 297.54C181.328 296.869 180.884 295.903 180.878 294.953L180.828 289.835C180.817 288.581 181.578 287.643 182.671 287.565L242.414 283.568L242.613 292.1L207.324 293.199C206.708 293.216 206.22 293.738 206.236 294.354C206.253 294.959 206.752 295.442 207.358 295.442C207.369 295.442 207.38 295.442 207.391 295.442L242.658 294.343L242.702 296.203L187.995 298.073C187.373 298.095 186.89 298.612 186.912 299.233C186.935 299.839 187.429 300.316 188.034 300.316C188.045 300.316 188.061 300.316 188.073 300.316L243.058 298.44C243.263 298.651 243.546 298.778 243.857 298.778C243.868 298.778 243.874 298.778 243.885 298.778C244.506 298.762 244.995 298.251 244.978 297.629L244.629 282.63C244.806 282.724 245.012 282.769 245.234 282.752C245.85 282.702 246.311 282.163 246.266 281.547L245.961 277.617C245.944 277.423 245.878 277.228 245.755 277.062C245.744 277.045 245.739 277.029 245.722 277.012C245.722 277.012 245.722 277.006 245.717 277.001L242.83 273.398L259.217 271.561C259.767 271.5 260.189 271.05 260.211 270.495L260.305 268.419C260.316 268.13 260.222 267.847 260.028 267.63L258.523 265.909L259.411 254.596L260.533 254.08C260.927 253.897 261.177 253.508 261.182 253.081L261.227 250.172C261.227 249.85 261.099 249.544 260.86 249.328C260.622 249.111 260.3 249.006 259.989 249.039L189.932 256.428C189.932 256.428 189.921 256.428 189.91 256.428C189.283 256.372 188.755 256.839 188.705 257.455L187.373 274.375C187.323 274.991 187.784 275.53 188.4 275.58C188.428 275.58 188.461 275.58 188.489 275.58C189.066 275.58 189.56 275.136 189.605 274.547L190.859 258.582L258.962 251.404L258.945 252.342L258.223 252.675C258.179 252.675 258.14 252.675 258.096 252.675L196.422 259.803C194.179 260.064 192.397 261.885 192.192 264.133L191.753 268.907C191.62 270.356 192.142 271.766 193.18 272.782C194.085 273.665 195.278 274.147 196.522 274.147C196.705 274.147 196.893 274.136 197.082 274.114C197.698 274.042 198.137 273.487 198.065 272.871C197.993 272.255 197.432 271.816 196.821 271.888C196.05 271.977 195.295 271.716 194.74 271.178C194.185 270.639 193.907 269.884 193.979 269.113L194.418 264.338C194.529 263.139 195.472 262.173 196.671 262.035L257.113 255.051L256.236 266.209C256.214 266.509 256.314 266.809 256.508 267.036L258.029 268.774L258.001 269.44L188.606 277.206L163.619 252.825L165.024 234.945L185.502 255.262C185.941 255.701 186.651 255.695 187.09 255.257C187.523 254.818 187.523 254.108 187.084 253.669L166.556 233.302L233.459 225.918L258.246 247.962C258.462 248.151 258.723 248.245 258.99 248.245C259.3 248.245 259.606 248.118 259.828 247.868C260.239 247.407 260.2 246.697 259.733 246.286L234.57 223.909C234.331 223.698 234.02 223.598 233.704 223.631L163.975 231.325C163.886 231.336 163.803 231.359 163.725 231.386C163.719 231.386 163.714 231.386 163.708 231.386C163.697 231.386 163.686 231.403 163.675 231.403C163.597 231.436 163.531 231.47 163.464 231.52C163.447 231.531 163.425 231.542 163.408 231.558C163.336 231.614 163.27 231.681 163.214 231.753C163.203 231.764 163.198 231.78 163.186 231.792C163.142 231.858 163.103 231.925 163.07 231.997C163.059 232.019 163.053 232.041 163.042 232.058C163.009 232.147 162.987 232.241 162.981 232.336L161.343 253.153C161.316 253.486 161.438 253.813 161.677 254.041L169.698 261.874L164.258 262.501C164.258 262.501 164.225 262.512 164.208 262.512C164.18 262.512 164.158 262.512 164.13 262.523C164.113 262.523 164.097 262.534 164.08 262.54C164.052 262.545 164.025 262.557 164.002 262.568C163.964 262.584 163.925 262.601 163.886 262.618C163.864 262.629 163.841 262.64 163.819 262.651C163.775 262.679 163.73 262.706 163.692 262.74C163.681 262.751 163.669 262.756 163.658 262.767C163.608 262.812 163.564 262.856 163.52 262.912C163.508 262.928 163.497 262.945 163.486 262.956C163.458 262.995 163.431 263.034 163.408 263.073C163.397 263.095 163.386 263.117 163.375 263.139C163.359 263.178 163.342 263.217 163.325 263.256C163.314 263.284 163.309 263.306 163.303 263.334C163.292 263.373 163.286 263.417 163.281 263.461C163.281 263.489 163.27 263.511 163.27 263.539C163.27 263.545 163.27 263.556 163.27 263.561L162.32 282.796C162.309 282.996 162.354 283.196 162.448 283.368L163.342 285.072L155.426 286.488H155.404C155.309 286.51 155.226 286.538 155.148 286.577C155.137 286.577 155.132 286.577 155.121 286.582C155.109 286.588 155.098 286.599 155.082 286.604C155.009 286.643 154.948 286.682 154.887 286.732C154.871 286.743 154.854 286.754 154.843 286.771C154.776 286.832 154.715 286.904 154.665 286.982C154.654 286.999 154.643 287.021 154.632 287.037C154.593 287.104 154.565 287.171 154.538 287.243C154.532 287.265 154.521 287.287 154.515 287.309C154.493 287.398 154.477 287.493 154.477 287.587C154.477 287.587 154.477 287.593 154.477 287.598V310.453C154.477 310.786 154.626 311.102 154.882 311.313L185.097 336.493C185.308 336.671 185.563 336.754 185.813 336.754C185.835 336.754 185.858 336.749 185.88 336.749C185.908 336.749 185.935 336.754 185.963 336.754C186.035 336.754 186.102 336.749 186.174 336.732L262.709 322.021C263.253 321.916 263.636 321.433 263.619 320.883L263.542 318.613L263.575 318.618ZM187.423 279.149C187.64 279.36 187.923 279.466 188.206 279.466C188.206 279.466 188.211 279.466 188.217 279.466C188.261 279.466 188.3 279.477 188.345 279.477C188.389 279.477 188.428 279.477 188.472 279.471L240.326 273.665C240.365 273.814 240.432 273.953 240.532 274.081L242.647 276.718L175.227 281.37C175.183 281.364 175.133 281.359 175.083 281.353C175.249 281.031 175.255 280.631 175.066 280.287L166.229 264.544L171.408 263.944C171.53 263.928 171.641 263.894 171.752 263.844L187.434 279.144L187.423 279.149ZM186.185 334.462L156.753 309.936V289.968L168.01 299.15C168.488 299.544 169.198 299.472 169.587 298.989C169.981 298.512 169.909 297.801 169.426 297.413L158.229 288.281L164.452 287.171L173.628 304.735C173.823 305.107 174.206 305.334 174.622 305.334C174.639 305.334 174.65 305.334 174.666 305.334L232.832 302.953L186.191 311.607L182.272 308.243C181.8 307.838 181.095 307.893 180.689 308.365C180.284 308.837 180.34 309.542 180.812 309.947L184.72 313.3V331.358C184.72 331.98 185.219 332.48 185.841 332.48C186.463 332.48 186.962 331.98 186.962 331.358V313.744L260.86 300.033L260.938 301.243L260.1 301.715C260.05 301.715 260 301.715 259.95 301.726L193.263 314.788C190.887 315.254 189.138 317.347 189.105 319.773L189.039 325.019C189.016 326.579 189.694 328.039 190.887 329.038C191.825 329.821 192.98 330.232 194.173 330.232C194.506 330.232 194.84 330.198 195.173 330.132C195.778 330.015 196.177 329.421 196.055 328.816C195.933 328.211 195.345 327.811 194.74 327.933C193.874 328.1 192.997 327.878 192.319 327.312C191.642 326.751 191.265 325.924 191.276 325.041L191.342 319.795C191.359 318.43 192.347 317.247 193.69 316.981L259.04 304.18V306.367L221.147 313.978C220.542 314.1 220.148 314.688 220.27 315.299C220.375 315.832 220.847 316.198 221.369 316.198C221.441 316.198 221.519 316.192 221.591 316.176L259.045 308.654V315.304L198.914 327.112C198.309 327.228 197.909 327.822 198.032 328.427C198.154 329.038 198.742 329.432 199.347 329.31L259.65 317.469L261.354 319.135L261.382 319.995L186.185 334.45V334.462Z" fill="#2871B0"/>
<path d="M206.747 323.614C206.813 323.614 206.885 323.609 206.952 323.598L232.871 318.785C233.481 318.674 233.881 318.085 233.77 317.48C233.659 316.87 233.076 316.47 232.465 316.581L206.547 321.394C205.936 321.505 205.536 322.093 205.647 322.698C205.747 323.237 206.219 323.614 206.747 323.614Z" fill="#2871B0"/>
<path d="M238.106 317.431C238.173 317.431 238.245 317.425 238.311 317.414L243.008 316.543C243.618 316.432 244.018 315.843 243.907 315.238C243.796 314.627 243.213 314.228 242.602 314.339L237.906 315.21C237.295 315.321 236.896 315.91 237.007 316.515C237.107 317.053 237.579 317.431 238.106 317.431Z" fill="#2871B0"/>
<path d="M199.725 272.672C199.791 273.243 200.274 273.665 200.835 273.665C200.879 273.665 200.924 273.665 200.968 273.66L253.266 267.592C253.882 267.52 254.321 266.965 254.249 266.349C254.177 265.732 253.616 265.3 253.005 265.366L200.707 271.434C200.091 271.506 199.652 272.061 199.725 272.677V272.672Z" fill="#2871B0"/>
<path d="M253.716 258.361C253.644 257.745 253.078 257.306 252.467 257.384L221.902 261.059C221.286 261.131 220.847 261.692 220.925 262.308C220.992 262.88 221.475 263.296 222.035 263.296C222.08 263.296 222.124 263.296 222.168 263.29L252.733 259.615C253.35 259.543 253.788 258.983 253.71 258.366L253.716 258.361Z" fill="#2871B0"/>
<path d="M207.068 267.985C207.129 268.562 207.618 268.99 208.184 268.99C208.223 268.99 208.262 268.99 208.306 268.984L232.26 266.453C232.876 266.386 233.32 265.837 233.259 265.221C233.193 264.604 232.637 264.155 232.027 264.221L208.073 266.753C207.457 266.819 207.013 267.369 207.074 267.985H207.068Z" fill="#2871B0"/>
<path d="M241.409 262.913L237.073 263.368C236.457 263.435 236.013 263.984 236.074 264.6C236.135 265.178 236.624 265.605 237.19 265.605C237.229 265.605 237.267 265.605 237.312 265.6L241.647 265.144C242.264 265.078 242.708 264.528 242.647 263.912C242.58 263.296 242.025 262.846 241.414 262.913H241.409Z" fill="#2871B0"/>
<path d="M221.224 289.247C221.197 288.63 220.669 288.153 220.047 288.181L185.741 289.857C185.125 289.885 184.647 290.412 184.675 291.034C184.703 291.634 185.202 292.1 185.796 292.1C185.813 292.1 185.835 292.1 185.852 292.1L220.158 290.424C220.775 290.396 221.252 289.868 221.224 289.247Z" fill="#2871B0"/>
<path d="M199.73 293.75C199.114 293.789 198.642 294.317 198.675 294.933C198.709 295.527 199.203 295.988 199.791 295.988C199.813 295.988 199.836 295.988 199.858 295.988L203.816 295.754C204.432 295.721 204.904 295.188 204.871 294.572C204.837 293.956 204.31 293.484 203.688 293.517L199.73 293.75Z" fill="#2871B0"/>
</svg>
