<svg width="293" height="364" viewBox="0 0 293 364" fill="none" xmlns="http://www.w3.org/2000/svg">
<path d="M0 14.3515C0 6.42538 6.42536 0 14.3514 0H278.418C286.344 0 292.769 6.42536 292.769 14.3514V349.457C292.769 357.384 286.344 363.809 278.418 363.809H14.3514C6.42535 363.809 0 357.384 0 349.457V14.3515Z" fill="white"/>
<path fill-rule="evenodd" clip-rule="evenodd" d="M278.418 7.17572H14.3514C10.3884 7.17572 7.17572 10.3884 7.17572 14.3515V349.457C7.17572 353.421 10.3884 356.633 14.3514 356.633H278.418C282.381 356.633 285.594 353.421 285.594 349.457V14.3514C285.594 10.3884 282.381 7.17572 278.418 7.17572ZM14.3514 0C6.42536 0 0 6.42538 0 14.3515V349.457C0 357.384 6.42535 363.809 14.3514 363.809H278.418C286.344 363.809 292.769 357.384 292.769 349.457V14.3514C292.769 6.42536 286.344 0 278.418 0H14.3514Z" fill="#2BA7E0"/>
<path d="M223.166 0H271.243C283.132 0 292.77 9.63803 292.77 21.5272V69.6045H244.693C232.804 69.6045 223.166 59.9664 223.166 48.0773V0Z" fill="#2BA7E0"/>
<path d="M255.402 39.262C254.462 33.627 262.325 32.2096 262.325 28.5452C262.325 26.2981 260.62 24.8115 257.42 24.8115C255.158 24.8115 253.071 25.7795 251.296 27.75L249 25.6412C251.227 23.1522 254.114 21.5273 257.872 21.5273C262.812 21.5273 266.222 23.9473 266.222 28.1995C266.222 33.3505 258.22 34.2147 258.95 39.262H255.402ZM254.08 45.0353C254.08 43.2031 255.436 42.0277 257.211 42.0277C258.985 42.0277 260.377 43.2031 260.377 45.0353C260.377 46.8675 258.985 48.0775 257.211 48.0775C255.436 48.0775 254.08 46.8675 254.08 45.0353Z" fill="white"/>
<path d="M95.1619 277.406C94.6521 273.594 99.7984 272.721 99.7984 270.366C99.7984 268.909 98.6332 268.084 96.7398 268.084C95.2347 268.084 93.9724 268.739 92.8558 270.002L90.8652 268.157C92.3946 266.361 94.5307 265.195 97.1281 265.195C100.648 265.195 103.221 266.822 103.221 270.05C103.221 273.619 97.9292 274.031 98.2933 277.406H95.1619ZM94.2152 281.459C94.2152 280.052 95.2833 279.081 96.7398 279.081C98.1962 279.081 99.2643 280.052 99.2643 281.459C99.2643 282.867 98.1962 283.863 96.7398 283.863C95.2833 283.863 94.2152 282.867 94.2152 281.459Z" fill="black"/>
<path d="M90.9133 231.059L93.6321 231.932C93.0738 233.413 92.4183 234.894 91.6415 236.375V253.683H88.7528V240.987C88.1945 241.74 87.6119 242.419 87.0536 243.026C86.7866 242.322 86.0098 240.744 85.5 240.016C87.6362 237.88 89.7238 234.481 90.9133 231.059ZM99.0939 241.06H96.3994V244.847H99.0939V241.06ZM101.788 247.347H96.3994V248.925H93.7049V238.56H101.788V247.347ZM108.367 233.171V235.938H106.91V250.333C106.91 252.008 106.546 252.785 105.502 253.246C104.483 253.683 102.832 253.78 100.575 253.78C100.478 252.93 100.016 251.668 99.6037 250.818C101.182 250.891 102.881 250.891 103.366 250.891C103.852 250.891 103.997 250.746 103.997 250.284V235.938H93.4136V233.171H108.367Z" fill="black"/>
<path d="M86.7129 202.992C87.6596 202.967 88.5821 202.919 89.0676 202.87C91.0581 202.676 95.0392 202.336 99.4329 201.948C101.909 201.754 104.555 201.608 106.23 201.535L106.254 204.642C104.968 204.642 102.904 204.667 101.618 204.958C98.729 205.735 96.5442 208.842 96.5442 211.682C96.5442 215.639 100.258 217.047 104.312 217.265L103.196 220.591C98.1464 220.251 93.3885 217.532 93.3885 212.337C93.3885 208.866 95.3305 206.147 96.9326 204.934C94.8692 205.152 89.7958 205.686 87.0042 206.293L86.7129 202.992Z" fill="black"/>
<path d="M88.4375 177.325C89.1415 177.203 90.2581 176.936 90.9864 176.693C92.6128 176.208 96.691 174.824 99.6039 174.824C103.391 174.824 105.94 177.082 105.94 180.723C105.94 185.068 102.129 188.054 94.4819 188.515L93.2196 185.529C98.6815 185.384 102.76 183.952 102.76 180.674C102.76 178.878 101.4 177.616 99.3126 177.616C96.521 177.616 91.7389 179.606 89.6755 180.48L88.4375 177.325Z" fill="black"/>
<path d="M104.629 144.938H101.084C101.57 146.637 102.177 148.215 102.978 149.671C103.682 148.239 104.264 146.637 104.629 144.938ZM105.988 142.243L107.784 142.777C107.25 146.588 106.231 149.744 104.75 152.293C105.867 153.604 107.153 154.672 108.683 155.424C108.027 155.958 107.153 157.051 106.716 157.779C105.308 156.978 104.119 155.934 103.075 154.696C102.08 155.886 100.939 156.881 99.6523 157.706C99.2881 157.002 98.4385 155.91 97.8316 155.376C99.1668 154.623 100.356 153.555 101.376 152.22C100.429 150.569 99.6765 148.7 99.0697 146.661C98.8755 150.351 98.2929 154.648 96.7393 157.682C96.2538 157.245 95.1371 156.614 94.4574 156.323V157.682H91.8357V149.259H89.5296C89.3112 152.366 88.7286 155.497 87.2721 157.779C86.8351 157.245 85.9127 156.42 85.3301 156.031C86.9079 153.118 87.1021 148.506 87.1021 145.01V135.713H89.651V141.466H91.3988V135.082H93.9962V141.466H95.6954V144.015H89.651V145.035C89.651 145.569 89.651 146.151 89.6267 146.71H94.4574V156.104C96.3266 152.317 96.4722 146.977 96.4722 143.19V136.126H107.76V138.723H99.1425V142.316H105.502L105.988 142.243Z" fill="black"/>
<path d="M103.755 115.462H106.765V125.73H103.755V124.346H90.3064V125.754H87.3691V115.462H90.3064V121.506H95.3798V114.175H88.3401V105.363H91.2046V111.359H95.3798V103.324H98.3414V111.359H102.759V105.363H105.794V114.175H98.3414V121.506H103.755V115.462Z" fill="black"/>
<path d="M99.9915 77.3935H94.1898C94.5297 78.0246 94.8453 78.7286 95.0152 79.2627L94.6025 79.3355H99.1419C99.4332 78.7529 99.7245 78.0489 99.9915 77.3935ZM107.832 88.2201H100.793C102.856 89.4824 105.672 90.4291 108.488 90.8661C107.832 91.4972 106.983 92.7109 106.546 93.4877C103.56 92.7352 100.623 91.2787 98.3894 89.3853V93.7548H95.5492V89.5309C93.2917 91.303 90.3059 92.7109 87.4172 93.4635C87.0045 92.7595 86.1791 91.6428 85.5723 91.0602C88.2911 90.5019 91.1555 89.4824 93.2431 88.2201H86.2762V85.8412H95.5492V84.7731H88.5581V82.6854H95.5492V81.593H87.3443V79.3355H91.9566C91.7624 78.7286 91.4468 78.0004 91.1312 77.442L91.4225 77.3935H86.3491V75.0388H89.6019C89.262 74.1164 88.6309 72.9512 88.0969 72.0288L90.5729 71.1791C91.2769 72.223 92.0779 73.6552 92.4178 74.6019L91.2283 75.0388H93.4373V71.082H96.1318V75.0388H97.9282V71.082H100.647V75.0388H102.807L101.934 74.7718C102.516 73.7765 103.123 72.3201 103.463 71.252L106.497 71.9802C105.818 73.0968 105.162 74.1892 104.604 75.0388H107.759V77.3935H103.196C102.807 78.0975 102.419 78.7529 102.055 79.3355H106.813V81.593H98.3894V82.6854H105.672V84.7731H98.3894V85.8412H107.832V88.2201Z" fill="black"/>
<path d="M95.2819 38.9844H98.2435C100.865 42.8198 104.846 46.1212 108.73 47.7962C108.002 48.5487 107.347 49.4954 106.788 50.3936C103.026 48.3059 98.9717 44.8103 96.8841 41.8245C94.9178 44.7861 91.1795 48.1603 87.1741 50.4178C86.81 49.7624 85.9847 48.6943 85.3535 48.0875C89.5531 45.927 93.4613 42.0673 95.2819 38.9844ZM98.6561 53.6221V58.4771H107.347V61.0988H86.6886V58.4771H89.3346V50.0537H92.1748V58.4771H95.6218V45.8784H98.6561V51.0733H105.162V53.6221H98.6561Z" fill="black"/>
<path d="M140.1 144.161L143.474 143.432C145.076 145.471 145.805 147.171 145.805 149.21C145.805 152.827 142.552 155.448 137.284 155.448C133.497 155.448 130.827 153.798 130.827 149.792C130.827 149.21 130.9 148.36 130.997 147.365C129.249 147.195 127.671 146.928 126.385 146.564L126.555 143.651C128.108 144.185 129.735 144.452 131.288 144.598C131.434 143.529 131.555 142.413 131.701 141.32C130.026 141.15 128.327 140.859 126.919 140.471L127.089 137.679C128.472 138.14 130.269 138.432 132.017 138.577C132.114 137.849 132.162 137.194 132.211 136.66C132.259 136.004 132.308 135.325 132.259 134.523L135.633 134.718C135.439 135.592 135.318 136.223 135.221 136.854C135.148 137.266 135.075 137.898 134.954 138.674C136.677 138.65 138.231 138.553 139.372 138.383L139.275 141.248C137.843 141.393 136.532 141.466 134.59 141.466C134.444 142.534 134.298 143.675 134.177 144.743H134.347C135.828 144.743 137.6 144.622 139.178 144.452L139.105 147.316C137.745 147.438 136.337 147.535 134.857 147.535C134.541 147.535 134.201 147.535 133.886 147.535C133.837 148.239 133.789 148.846 133.789 149.283C133.789 151.249 135.002 152.341 137.381 152.341C140.731 152.341 142.576 150.812 142.576 148.821C142.576 147.195 141.654 145.641 140.1 144.161Z" fill="black"/>
<path d="M130.268 103.567C131.021 103.64 131.725 103.664 132.55 103.664C133.57 103.664 138.085 103.446 139.541 103.276C140.318 103.203 140.877 103.081 141.216 102.984L143.11 105.193C142.624 105.533 141.726 106.116 141.241 106.529C139.517 107.888 137.138 109.878 135.512 111.165C138.74 110.825 142.697 110.582 145.634 110.582V113.423C143.328 113.277 140.925 113.277 139.469 113.471C137.26 113.787 135.415 115.34 135.415 117.307C135.415 119.2 136.896 119.928 139.056 120.195C140.391 120.341 141.823 120.317 142.721 120.244L142.09 123.4C135.925 123.667 132.332 121.822 132.332 117.816C132.332 116.336 133.206 114.855 134.08 114.029C131.895 114.199 129.2 114.563 126.797 114.976L126.506 112.063C127.792 111.942 129.467 111.723 130.705 111.578C132.866 110.17 135.997 107.451 137.478 106.116C136.507 106.189 133.546 106.334 132.575 106.431C131.968 106.48 131.167 106.577 130.414 106.65L130.268 103.567Z" fill="black"/>
<path d="M140.1 80.1606L143.474 79.4323C145.076 81.4714 145.805 83.1706 145.805 85.2097C145.805 88.8267 142.552 91.4484 137.284 91.4484C133.497 91.4484 130.827 89.7977 130.827 85.7923C130.827 85.2097 130.9 84.3601 130.997 83.3648C129.249 83.1949 127.671 82.9279 126.385 82.5638L126.555 79.6508C128.108 80.1848 129.735 80.4519 131.288 80.5975C131.434 79.5294 131.555 78.4128 131.701 77.3204C130.026 77.1505 128.327 76.8592 126.919 76.4708L127.089 73.6792C128.472 74.1404 130.269 74.4317 132.017 74.5773C132.114 73.8491 132.162 73.1937 132.211 72.6596C132.259 72.0042 132.308 71.3245 132.259 70.5234L135.633 70.7176C135.439 71.5915 135.318 72.2227 135.221 72.8538C135.148 73.2665 135.075 73.8976 134.954 74.6744C136.677 74.6502 138.231 74.5531 139.372 74.3831L139.275 77.2476C137.843 77.3932 136.532 77.466 134.59 77.466C134.444 78.5341 134.298 79.6751 134.177 80.7432H134.347C135.828 80.7432 137.6 80.6218 139.178 80.4519L139.105 83.3163C137.745 83.4377 136.337 83.5348 134.857 83.5348C134.541 83.5348 134.201 83.5348 133.886 83.5348C133.837 84.2387 133.789 84.8456 133.789 85.2826C133.789 87.2488 135.002 88.3412 137.381 88.3412C140.731 88.3412 142.576 86.8119 142.576 84.8213C142.576 83.1949 141.654 81.6413 140.1 80.1606Z" fill="black"/>
<path d="M130.268 39.567C131.021 39.6398 131.725 39.6641 132.55 39.6641C133.57 39.6641 138.085 39.4456 139.541 39.2757C140.318 39.2028 140.877 39.0815 141.216 38.9844L143.11 41.1934C142.624 41.5332 141.726 42.1158 141.241 42.5285C139.517 43.8879 137.138 45.8784 135.512 47.165C138.74 46.8252 142.697 46.5824 145.634 46.5824V49.4226C143.328 49.2769 140.925 49.2769 139.469 49.4711C137.26 49.7867 135.415 51.3403 135.415 53.3065C135.415 55.2 136.896 55.9282 139.056 56.1953C140.391 56.3409 141.823 56.3166 142.721 56.2438L142.09 59.3995C135.925 59.6666 132.332 57.8217 132.332 53.8163C132.332 52.3356 133.206 50.8548 134.08 50.0294C131.895 50.1994 129.2 50.5635 126.797 50.9762L126.506 48.0632C127.792 47.9418 129.467 47.7233 130.705 47.5777C132.866 46.1697 135.997 43.451 137.478 42.1158C136.507 42.1887 133.546 42.3343 132.575 42.4314C131.968 42.48 131.167 42.5771 130.414 42.6499L130.268 39.567Z" fill="black"/>
<path d="M259.031 324.316H255.559V298.948H259.031C259.723 298.948 260.291 298.386 260.291 297.688C260.291 296.99 259.729 296.428 259.031 296.428H243.83C246.302 294.577 247.876 291.844 247.876 288.792V282.735C247.876 277.164 242.653 272.633 236.235 272.633H227.73V255.853C227.73 255.161 227.168 254.593 226.47 254.593C225.772 254.593 225.21 255.155 225.21 255.853V259.378C225.062 258.952 224.66 258.645 224.187 258.645H193.643C193.04 258.645 192.555 259.136 192.555 259.733C192.555 260.33 193.046 260.821 193.643 260.821H224.187C224.66 260.821 225.062 260.514 225.21 260.088V272.627H221.336C221.141 272.627 220.964 272.674 220.798 272.751H171.043C166.01 272.751 161.917 269.427 161.917 265.34V259.408C161.917 255.321 166.01 251.997 171.043 251.997H172.557C172.711 251.997 172.859 251.967 172.995 251.914C173.131 251.967 173.279 251.997 173.439 251.997H223.3C228.422 251.997 232.586 248.43 232.586 244.041V238.197C232.586 233.809 228.422 230.242 223.3 230.242H173.439C172.747 230.242 172.179 230.804 172.179 231.502C172.179 232.2 172.741 232.762 173.439 232.762H223.3C227.032 232.762 230.072 235.205 230.072 238.203V244.047C230.072 247.046 227.038 249.489 223.3 249.489H176.822V244.71C176.946 244.757 177.076 244.786 177.212 244.786H197.257C197.861 244.786 198.346 244.296 198.346 243.698C198.346 243.101 197.855 242.61 197.257 242.61H177.212C177.076 242.61 176.946 242.639 176.822 242.687V238.842H208.59C209.193 238.842 209.678 238.351 209.678 237.754C209.678 237.157 209.187 236.666 208.59 236.666H176.822V235.163C176.822 234.471 176.26 233.903 175.562 233.903C174.864 233.903 174.302 234.465 174.302 235.163V249.506H173.439C173.285 249.506 173.137 249.536 173.001 249.589C172.865 249.536 172.717 249.506 172.557 249.506H171.043C164.626 249.506 159.403 253.96 159.403 259.431V265.364C159.403 270.835 164.626 275.289 171.043 275.289H222.377C222.572 275.289 222.75 275.241 222.915 275.165H234.118C234.224 275.312 234.36 275.437 234.532 275.531C236.022 276.33 237.205 278.358 237.619 280.819C238.211 284.309 238.169 289.845 237.075 292.708C236.436 294.376 235.407 295.6 234.242 296.085C234.047 296.168 233.887 296.298 233.757 296.446H167.932V292.169H199.18C199.783 292.169 200.268 291.678 200.268 291.081C200.268 290.484 199.777 289.993 199.18 289.993H167.932V283.853H218.876C219.479 283.853 219.964 283.362 219.964 282.765C219.964 282.168 219.473 281.677 218.876 281.677H167.932V279.263C167.932 278.571 167.37 278.004 166.672 278.004C165.974 278.004 165.412 278.565 165.412 279.263V296.452H158.025C151.607 296.452 146.385 301.674 146.385 308.092V315.201C146.385 321.619 151.607 326.841 158.025 326.841H259.031C259.723 326.841 260.291 326.28 260.291 325.582C260.291 324.884 259.729 324.322 259.031 324.322V324.316ZM253.045 306.619C253.045 306.619 252.992 306.613 252.962 306.613H222.377C221.774 306.613 221.289 307.104 221.289 307.701C221.289 308.299 221.78 308.79 222.377 308.79H252.962C252.962 308.79 253.015 308.784 253.045 308.784V315.905H193.176C192.573 315.905 192.088 316.396 192.088 316.993C192.088 317.591 192.579 318.082 193.176 318.082H253.045V324.31H161.414C161.29 324.091 161.107 323.902 160.858 323.784C159.699 323.228 158.628 321.737 157.984 319.785C156.872 316.408 156.824 309.908 157.422 305.815C157.848 302.881 159.06 300.474 160.58 299.527C160.811 299.385 160.976 299.178 161.071 298.942H253.039V306.613L253.045 306.619ZM240.104 280.387C239.766 278.4 239.021 276.637 237.998 275.301C242.191 275.987 245.362 279.062 245.362 282.741V288.798C245.362 292.501 242.15 295.588 237.927 296.251C238.53 295.493 239.045 294.6 239.429 293.595C240.736 290.164 240.754 284.232 240.104 280.387ZM148.899 315.184V308.074C148.899 303.212 152.719 299.237 157.522 298.971C156.245 300.556 155.322 302.828 154.937 305.454C154.287 309.925 154.352 316.804 155.6 320.578C156.091 322.062 156.771 323.316 157.593 324.292C152.767 324.062 148.904 320.069 148.904 315.184H148.899Z" fill="#2BA7E0"/>
<path d="M180.235 308.79H215.818C216.421 308.79 216.906 308.299 216.906 307.702C216.906 307.104 216.415 306.613 215.818 306.613H180.235C179.631 306.613 179.146 307.104 179.146 307.702C179.146 308.299 179.637 308.79 180.235 308.79Z" fill="#2BA7E0"/>
<path d="M165.288 308.79H173.184C173.787 308.79 174.272 308.299 174.272 307.702C174.272 307.104 173.781 306.613 173.184 306.613H165.288C164.684 306.613 164.199 307.104 164.199 307.702C164.199 308.299 164.69 308.79 165.288 308.79Z" fill="#2BA7E0"/>
<path d="M178.407 318.087H185.404C186.007 318.087 186.492 317.596 186.492 316.998C186.492 316.401 186.001 315.91 185.404 315.91H178.407C177.803 315.91 177.318 316.401 177.318 316.998C177.318 317.596 177.809 318.087 178.407 318.087Z" fill="#2BA7E0"/>
<path d="M233.455 283.833C234.059 283.833 234.544 283.342 234.544 282.745C234.544 282.147 234.053 281.656 233.455 281.656H224.707C224.104 281.656 223.619 282.147 223.619 282.745C223.619 283.342 224.11 283.833 224.707 283.833H233.455Z" fill="#2BA7E0"/>
<path d="M206.141 289.977C205.538 289.977 205.053 290.467 205.053 291.065C205.053 291.662 205.544 292.153 206.141 292.153H211.807C212.411 292.153 212.896 291.662 212.896 291.065C212.896 290.467 212.405 289.977 211.807 289.977H206.141Z" fill="#2BA7E0"/>
<path d="M178.027 266.67C178.027 267.274 178.518 267.759 179.116 267.759H220.974C221.577 267.759 222.062 267.268 222.062 266.67C222.062 266.073 221.572 265.582 220.974 265.582H179.116C178.512 265.582 178.027 266.073 178.027 266.67Z" fill="#2BA7E0"/>
<path d="M185.972 258.484H179.572C178.88 258.484 178.312 259.046 178.312 259.744C178.312 260.442 178.874 261.004 179.572 261.004H185.972C186.664 261.004 187.232 260.442 187.232 259.744C187.232 259.046 186.67 258.484 185.972 258.484Z" fill="#2BA7E0"/>
<path d="M202.569 242.578C201.965 242.578 201.48 243.069 201.48 243.666C201.48 244.264 201.971 244.755 202.569 244.755H204.669C205.272 244.755 205.757 244.264 205.757 243.666C205.757 243.069 205.266 242.578 204.669 242.578H202.569Z" fill="#2BA7E0"/>
</svg>
