<svg width="76" height="77" viewBox="0 0 76 77" fill="none" xmlns="http://www.w3.org/2000/svg">
<path fill-rule="evenodd" clip-rule="evenodd" d="M70.9342 7.09272H10.0653C8.38664 7.09272 7.02583 8.45354 7.02583 10.1322V71.9348C7.02583 73.6135 8.38665 74.9743 10.0653 74.9743H70.9343C72.6129 74.9743 73.9737 73.6135 73.9737 71.9348V10.1322C73.9737 8.45354 72.6129 7.09272 70.9342 7.09272ZM10.0653 5.06641C7.26754 5.06641 4.99951 7.33443 4.99951 10.1322V71.9348C4.99951 74.7326 7.26755 77.0006 10.0653 77.0006H70.9343C73.732 77.0006 76 74.7326 76 71.9348V10.1322C76 7.33444 73.732 5.06641 70.9342 5.06641H10.0653Z" fill="#FFBE20"/>
<path d="M0 5.06578C0 2.26802 2.26803 0 5.06579 0H65.9347C68.7325 0 71.0005 2.26803 71.0005 5.06579V66.8684C71.0005 69.6662 68.7325 71.9342 65.9347 71.9342H5.06579C2.26804 71.9342 0 69.6662 0 66.8684V5.06578Z" fill="#FFBE20"/>
<path fill-rule="evenodd" clip-rule="evenodd" d="M65.9347 2.02632H5.06579C3.38713 2.02632 2.02632 3.38713 2.02632 5.06578V66.8684C2.02632 68.5471 3.38714 69.9079 5.06579 69.9079H65.9347C67.6134 69.9079 68.9742 68.5471 68.9742 66.8684V5.06579C68.9742 3.38714 67.6134 2.02632 65.9347 2.02632ZM5.06579 0C2.26803 0 0 2.26802 0 5.06578V66.8684C0 69.6662 2.26804 71.9342 5.06579 71.9342H65.9347C68.7325 71.9342 71.0005 69.6662 71.0005 66.8684V5.06579C71.0005 2.26803 68.7325 0 65.9347 0H5.06579Z" fill="#FFBE20"/>
<path d="M52.9189 15.5273V24.1708H51.1439V15.5273H52.9189ZM55.5784 15.5273V16.9224H48.5259V15.5273H55.5784Z" fill="black"/>
<path d="M46.9537 15.5273V24.1708H45.1727L41.6999 18.3769V24.1708H39.9189V15.5273H41.6999L45.1787 21.3273V15.5273H46.9537Z" fill="black"/>
<path d="M37.5211 15.5273V24.1708H35.7461V15.5273H37.5211Z" fill="black"/>
<path d="M33.6156 19.6488V20.0584C33.6156 20.7154 33.5266 21.3051 33.3485 21.8275C33.1704 22.3499 32.9191 22.7951 32.5945 23.1632C32.27 23.5273 31.8822 23.8063 31.431 24.0002C30.9838 24.1942 30.4871 24.2911 29.9409 24.2911C29.3987 24.2911 28.9021 24.1942 28.4509 24.0002C28.0037 23.8063 27.6158 23.5273 27.2873 23.1632C26.9589 22.7951 26.7036 22.3499 26.5215 21.8275C26.3434 21.3051 26.2544 20.7154 26.2544 20.0584V19.6488C26.2544 18.9879 26.3434 18.3982 26.5215 17.8797C26.6996 17.3573 26.9509 16.9121 27.2755 16.544C27.604 16.176 27.9918 15.895 28.439 15.701C28.8902 15.5071 29.3869 15.4102 29.9291 15.4102C30.4752 15.4102 30.9719 15.5071 31.4191 15.701C31.8703 15.895 32.2581 16.176 32.5827 16.544C32.9112 16.9121 33.1644 17.3573 33.3425 17.8797C33.5246 18.3982 33.6156 18.9879 33.6156 19.6488ZM31.8169 20.0584V19.6369C31.8169 19.1778 31.7753 18.7742 31.6922 18.4259C31.6091 18.0776 31.4864 17.7847 31.3241 17.5473C31.1619 17.3098 30.964 17.1317 30.7305 17.013C30.497 16.8903 30.2299 16.829 29.9291 16.829C29.6283 16.829 29.3611 16.8903 29.1276 17.013C28.8981 17.1317 28.7022 17.3098 28.5399 17.5473C28.3816 17.7847 28.2609 18.0776 28.1778 18.4259C28.0947 18.7742 28.0531 19.1778 28.0531 19.6369V20.0584C28.0531 20.5135 28.0947 20.9172 28.1778 21.2695C28.2609 21.6177 28.3836 21.9126 28.5459 22.154C28.7081 22.3914 28.906 22.5715 29.1395 22.6942C29.373 22.8169 29.6402 22.8782 29.9409 22.8782C30.2417 22.8782 30.5089 22.8169 30.7424 22.6942C30.9759 22.5715 31.1718 22.3914 31.3301 22.154C31.4884 21.9126 31.6091 21.6177 31.6922 21.2695C31.7753 20.9172 31.8169 20.5135 31.8169 20.0584Z" fill="black"/>
<path d="M21.3162 21.0898H19.1137V19.7007H21.3162C21.6565 19.7007 21.9336 19.6453 22.1473 19.5345C22.361 19.4197 22.5173 19.2614 22.6163 19.0595C22.7152 18.8577 22.7647 18.6301 22.7647 18.3769C22.7647 18.1196 22.7152 17.8802 22.6163 17.6585C22.5173 17.4369 22.361 17.2588 22.1473 17.1243C21.9336 16.9897 21.6565 16.9224 21.3162 16.9224H19.7311V24.1708H17.9502V15.5273H21.3162C21.9929 15.5273 22.5727 15.65 23.0556 15.8954C23.5424 16.1368 23.9144 16.4712 24.1716 16.8987C24.4289 17.3261 24.5575 17.8149 24.5575 18.365C24.5575 18.923 24.4289 19.4058 24.1716 19.8135C23.9144 20.2211 23.5424 20.5357 23.0556 20.7574C22.5727 20.979 21.9929 21.0898 21.3162 21.0898Z" fill="black"/>
<path d="M51.2847 30.8633V58.2908H45.8706V37.1045L39.3662 39.1724V34.905L50.7019 30.8633H51.2847Z" fill="black"/>
<path d="M34.4036 42.1982V46.9355C34.4036 48.9909 34.1842 50.7642 33.7456 52.2556C33.307 53.7345 32.6741 54.9501 31.8469 55.9026C31.0323 56.8425 30.061 57.5381 28.9331 57.9893C27.8052 58.4404 26.5519 58.666 25.1733 58.666C24.0705 58.666 23.0428 58.5282 22.0903 58.2524C21.1379 57.9642 20.2794 57.5193 19.5149 56.9177C18.7629 56.3162 18.1112 55.5579 17.5598 54.6431C17.0209 53.7157 16.6073 52.6128 16.3191 51.3345C16.0308 50.0562 15.8867 48.5898 15.8867 46.9355V42.1982C15.8867 40.1429 16.106 38.3821 16.5447 36.9158C16.9958 35.4369 17.6287 34.2275 18.4434 33.2876C19.2705 32.3477 20.248 31.6584 21.376 31.2197C22.5039 30.7686 23.7572 30.543 25.1357 30.543C26.2386 30.543 27.26 30.6871 28.2 30.9753C29.1524 31.2511 30.0109 31.6834 30.7754 32.2725C31.5399 32.8615 32.1916 33.6197 32.7305 34.5471C33.2694 35.462 33.6829 36.5586 33.9712 37.8369C34.2594 39.1027 34.4036 40.5565 34.4036 42.1982ZM28.9707 47.6499V41.4651C28.9707 40.475 28.9143 39.6103 28.8015 38.8708C28.7013 38.1314 28.5446 37.5048 28.3315 36.991C28.1185 36.4646 27.8553 36.0385 27.542 35.7126C27.2287 35.3868 26.8715 35.1487 26.4705 34.9983C26.0694 34.8479 25.6245 34.7727 25.1357 34.7727C24.5216 34.7727 23.9765 34.8918 23.5002 35.1299C23.0365 35.368 22.6418 35.7502 22.3159 36.2766C21.9901 36.7904 21.7394 37.4797 21.564 38.3445C21.401 39.1967 21.3196 40.2369 21.3196 41.4651V47.6499C21.3196 48.64 21.3697 49.511 21.47 50.2629C21.5828 51.0149 21.7457 51.6603 21.9587 52.1992C22.1843 52.7256 22.4475 53.158 22.7483 53.4963C23.0616 53.8222 23.4188 54.0603 23.8198 54.2107C24.2334 54.3611 24.6846 54.4363 25.1733 54.4363C25.7749 54.4363 26.3075 54.3172 26.7712 54.0791C27.2475 53.8285 27.6485 53.4399 27.9744 52.9136C28.3127 52.3747 28.5634 51.6729 28.7263 50.8081C28.8892 49.9434 28.9707 48.8906 28.9707 47.6499Z" fill="black"/>
</svg>
