<svg width="131" height="41" viewBox="0 0 131 41" fill="none" xmlns="http://www.w3.org/2000/svg">
<path fill-rule="evenodd" clip-rule="evenodd" d="M125.934 4.03H8.06579C5.83688 4.03 4.03 5.83688 4.03 8.06579V35.9342C4.03 38.1631 5.83688 39.97 8.06579 39.97H125.934C128.163 39.97 129.97 38.1631 129.97 35.9342V8.06579C129.97 5.83688 128.163 4.03 125.934 4.03ZM8.06579 3C5.26803 3 3 5.26803 3 8.06579V35.9342C3 38.732 5.26803 41 8.06579 41H125.934C128.732 41 131 38.732 131 35.9342V8.06579C131 5.26803 128.732 3 125.934 3H8.06579Z" fill="#FFBE20"/>
<path d="M0 5.06579C0 2.26803 2.26803 0 5.06579 0H122.934C125.732 0 128 2.26803 128 5.06579V31.9342C128 34.732 125.732 37 122.934 37H5.06579C2.26803 37 0 34.732 0 31.9342V5.06579Z" fill="#FFBE20"/>
<path fill-rule="evenodd" clip-rule="evenodd" d="M122.934 2.02632H5.06579C3.38713 2.02632 2.02632 3.38713 2.02632 5.06579V31.9342C2.02632 33.6129 3.38713 34.9737 5.06579 34.9737H122.934C124.613 34.9737 125.974 33.6129 125.974 31.9342V5.06579C125.974 3.38713 124.613 2.02632 122.934 2.02632ZM5.06579 0C2.26803 0 0 2.26803 0 5.06579V31.9342C0 34.732 2.26803 37 5.06579 37H122.934C125.732 37 128 34.732 128 31.9342V5.06579C128 2.26803 125.732 0 122.934 0H5.06579Z" fill="#FFBE20"/>
<path d="M69.4062 16.0469V26H67.3623V16.0469H69.4062ZM72.4688 16.0469V17.6533H64.3477V16.0469H72.4688Z" fill="black"/>
<path d="M62.5371 16.0469V26H60.4863L56.4873 19.3281V26H54.4365V16.0469H56.4873L60.4932 22.7256V16.0469H62.5371Z" fill="black"/>
<path d="M51.6758 16.0469V26H49.6318V16.0469H51.6758Z" fill="black"/>
<path d="M47.1782 20.791V21.2627C47.1782 22.0192 47.0757 22.6982 46.8706 23.2998C46.6655 23.9014 46.3761 24.4141 46.0024 24.8379C45.6287 25.2572 45.1821 25.5785 44.6626 25.8018C44.1476 26.0251 43.5757 26.1367 42.9468 26.1367C42.3224 26.1367 41.7505 26.0251 41.231 25.8018C40.716 25.5785 40.2694 25.2572 39.8911 24.8379C39.5129 24.4141 39.2189 23.9014 39.0093 23.2998C38.8042 22.6982 38.7017 22.0192 38.7017 21.2627V20.791C38.7017 20.0299 38.8042 19.3509 39.0093 18.7539C39.2144 18.1523 39.5037 17.6396 39.8774 17.2158C40.2557 16.792 40.7023 16.4684 41.2173 16.2451C41.7368 16.0218 42.3088 15.9102 42.9331 15.9102C43.562 15.9102 44.134 16.0218 44.6489 16.2451C45.1685 16.4684 45.6151 16.792 45.9888 17.2158C46.367 17.6396 46.6587 18.1523 46.8638 18.7539C47.0734 19.3509 47.1782 20.0299 47.1782 20.791ZM45.1069 21.2627V20.7773C45.1069 20.2487 45.0591 19.7839 44.9634 19.3828C44.8677 18.9818 44.7264 18.6445 44.5396 18.3711C44.3527 18.0977 44.1248 17.8926 43.856 17.7559C43.5871 17.6146 43.2795 17.5439 42.9331 17.5439C42.5868 17.5439 42.2791 17.6146 42.0103 17.7559C41.7459 17.8926 41.5203 18.0977 41.3335 18.3711C41.1512 18.6445 41.0122 18.9818 40.9165 19.3828C40.8208 19.7839 40.7729 20.2487 40.7729 20.7773V21.2627C40.7729 21.7868 40.8208 22.2516 40.9165 22.6572C41.0122 23.0583 41.1535 23.3978 41.3403 23.6758C41.5272 23.9492 41.755 24.1566 42.0239 24.2979C42.2928 24.4391 42.6004 24.5098 42.9468 24.5098C43.2931 24.5098 43.6007 24.4391 43.8696 24.2979C44.1385 24.1566 44.3641 23.9492 44.5464 23.6758C44.7287 23.3978 44.8677 23.0583 44.9634 22.6572C45.0591 22.2516 45.1069 21.7868 45.1069 21.2627Z" fill="black"/>
<path d="M33.0151 22.4521H30.479V20.8525H33.0151C33.4071 20.8525 33.7261 20.7887 33.9722 20.6611C34.2183 20.529 34.3983 20.3467 34.5122 20.1143C34.6261 19.8818 34.6831 19.6198 34.6831 19.3281C34.6831 19.0319 34.6261 18.7562 34.5122 18.501C34.3983 18.2458 34.2183 18.0407 33.9722 17.8857C33.7261 17.7308 33.4071 17.6533 33.0151 17.6533H31.1899V26H29.1392V16.0469H33.0151C33.7944 16.0469 34.4621 16.1882 35.0181 16.4707C35.5786 16.7487 36.007 17.1338 36.3032 17.626C36.5994 18.1182 36.7476 18.681 36.7476 19.3145C36.7476 19.957 36.5994 20.513 36.3032 20.9824C36.007 21.4518 35.5786 21.8141 35.0181 22.0693C34.4621 22.3245 33.7944 22.4521 33.0151 22.4521Z" fill="black"/>
<path d="M99.0278 11.3984V26.0027H96.145V14.7217L92.6816 15.8228V13.5505L98.7175 11.3984H99.0278Z" fill="black"/>
<path d="M90.0388 17.4326V19.9551C90.0388 21.0495 89.922 21.9937 89.6885 22.7878C89.4549 23.5753 89.1179 24.2226 88.6775 24.7297C88.2437 25.2302 87.7266 25.6006 87.126 25.8408C86.5254 26.0811 85.8581 26.2012 85.124 26.2012C84.5368 26.2012 83.9896 26.1278 83.4824 25.981C82.9753 25.8275 82.5181 25.5906 82.1111 25.2703C81.7107 24.95 81.3637 24.5462 81.0701 24.0591C80.7831 23.5653 80.5629 22.978 80.4094 22.2974C80.2559 21.6167 80.1792 20.8359 80.1792 19.9551V17.4326C80.1792 16.3382 80.296 15.4006 80.5295 14.6199C80.7698 13.8324 81.1068 13.1885 81.5405 12.688C81.981 12.1875 82.5015 11.8205 83.1021 11.5869C83.7026 11.3467 84.37 11.2266 85.104 11.2266C85.6912 11.2266 86.2351 11.3033 86.7356 11.4568C87.2428 11.6036 87.6999 11.8338 88.1069 12.1475C88.514 12.4611 88.861 12.8648 89.1479 13.3586C89.4349 13.8458 89.6551 14.4297 89.8086 15.1104C89.9621 15.7843 90.0388 16.5584 90.0388 17.4326ZM87.146 20.3354V17.0422C87.146 16.5151 87.116 16.0546 87.0559 15.6609C87.0025 15.2672 86.9191 14.9335 86.8057 14.6599C86.6922 14.3796 86.5521 14.1528 86.3853 13.9792C86.2184 13.8057 86.0282 13.679 85.8147 13.5989C85.6012 13.5188 85.3643 13.4788 85.104 13.4788C84.777 13.4788 84.4867 13.5422 84.2332 13.6689C83.9862 13.7957 83.776 13.9993 83.6025 14.2795C83.429 14.5531 83.2956 14.9202 83.2021 15.3806C83.1154 15.8344 83.072 16.3883 83.072 17.0422V20.3354C83.072 20.8626 83.0987 21.3264 83.1521 21.7268C83.2122 22.1272 83.2989 22.4709 83.4124 22.7578C83.5325 23.0381 83.6726 23.2683 83.8328 23.4485C83.9996 23.622 84.1898 23.7488 84.4033 23.8289C84.6235 23.9089 84.8638 23.949 85.124 23.949C85.4443 23.949 85.7279 23.8856 85.9749 23.7588C86.2284 23.6253 86.442 23.4185 86.6155 23.1382C86.7957 22.8512 86.9291 22.4775 87.0159 22.0171C87.1026 21.5566 87.146 20.9961 87.146 20.3354Z" fill="black"/>
</svg>
